<?xml version="1.0" encoding="UTF-8"?><svg xmlns="http://www.w3.org/2000/svg" viewBox="0 0 512 512"><g isolation="isolate"><g id="OBJECTS"><path d="M450.03,75.74c-.72-3.6-5.74-18.93-7.56-20.62C431.19,44.65,175.31,1.19,149.75,3.61c-27.21,2.58-29.8,136.1-29.8,136.1,0,0-72.49,265.78-70.88,281.08.17,1.61,6.61,19.33,7.56,20.62,9.08,12.42,301.2,78.93,312.48,65.24,11.28-13.69,69.26-295.57,69.26-295.57,0,0,16.65-110.13,11.66-135.34Z" fill="#136849" stroke-width="0"/><path d="M149.75,3.61c-27.21,2.58-29.8,136.1-29.8,136.1,0,0-72.49,265.78-70.88,281.08,1.61,15.3,301.2,78.92,312.49,65.24,11.27-13.69,69.25-295.57,69.25-295.57,0,0,20.43-127.19,11.66-135.34C431.19,44.65,175.31,1.19,149.75,3.61Z" fill="#4dc18a" stroke-width="0"/><path d="M247.79,204.04c44.5-14.4,89-6.54,133.5-15.71,31.42-6.54,7.86-14.4-11.77-18.32-23.56-3.93-47.12-6.54-70.68-9.16-49.74-6.55-128.38-19.36-151.49-46.45-14.75-27.65,4.68-82.08,22.59-109.63-9.84-1.04-16.91-1.48-20.19-1.17-27.21,2.58-29.8,136.1-29.8,136.1,0,0-72.49,265.78-70.88,281.08.34,3.24,14.08,8.65,35.58,15.03,10.37-63.56,32.47-130.78,70.22-174.19,24.86-27.49,58.9-47.12,92.93-57.59Z" fill="#6fd1a5" stroke-width="0"/><path d="M161.63,44.16c-7.18.89-14.47,46.02-8.09,48.93,6.39,2.9,246.9,61.45,253.28,56.47,1.32-1.02,9.4-11.08,10.58-14.44,4.51-12.98,7.44-38.76,4.74-41.86-3.4-3.9-250.7-50.32-260.5-49.1Z" fill="#136849" stroke-width="0"/><path d="M161.36,51.7c-7,.89-14.1,46.03-7.88,48.93,6.22,2.9,247.12,53.9,253.34,48.93,6.22-4.98,11.61-44.85,8.3-48.76-3.32-3.9-244.21-50.32-253.76-49.1Z" fill="#c9f1f3" stroke-width="0"/><g mix-blend-mode="multiply"><path d="M227.27,62.4c-19.3,13.22-38.02,27.53-56.01,42.59,3.86.87,8.26,1.85,13.1,2.92,17.87-15.07,35.95-29.88,54.76-43.33-4.04-.75-7.99-1.48-11.85-2.18Z" fill="#c9f1f3" stroke-width="0"/><path d="M339.88,139.75c3.19.6,6.32,1.18,9.37,1.74,19.87-14.84,39.68-29.78,61.09-42.31-1.51-.4-3.39-.87-5.54-1.39-21.9,13.52-44.06,26.79-64.92,41.95Z" fill="#c9f1f3" stroke-width="0"/><path d="M314.07,78.91c-18.81,14.16-37.12,29.21-54.59,44.92,11.39,2.34,22.99,4.7,34.45,6.99,17.37-16.56,35.6-32.32,55.55-44.85-11.14-2.26-23.1-4.64-35.41-7.06Z" fill="#c9f1f3" stroke-width="0"/></g><path d="M141.17,161.24c-6.96,2.87-14.74,43.4-9.01,47.49,5.73,4.1,36.43,10.24,42.17,6.14,5.74-4.1,13.93-40.12,10.64-45.04-3.27-4.92-38.87-10.63-43.81-8.6Z" fill="#136849" stroke-width="0"/><path d="M136.43,163.18c-6.96,2.86-14.74,43.4-9.01,47.49,5.73,4.09,36.44,10.24,42.17,6.14,5.74-4.09,13.92-40.12,10.64-45.04-3.28-4.91-38.87-10.63-43.81-8.6Z" fill="#f9b149" stroke-width="0"/><path d="M135.29,163.13c-6.24,2.53-13.22,38.26-8.08,41.88,5.14,3.61,32.68,9.03,37.82,5.42,5.14-3.61,12.49-35.38,9.55-39.71-2.94-4.34-34.86-9.37-39.29-7.58Z" fill="#ffd68b" stroke-width="0"/><path d="M136.16,171.64c-5.7,5.62-7.13,13.51-7.44,21.21-.13,3.34,5.04,3.33,5.18,0,.24-6.31,1.22-12.93,5.91-17.56,2.38-2.34-1.27-5.99-3.65-3.66h0Z" fill="#fff" stroke-width="0"/><path d="M140.15,168.28v.21c0,3.34,5.17,3.34,5.17,0v-.21c0-3.34-5.17-3.34-5.17,0h0Z" fill="#fff" stroke-width="0"/><path d="M206.62,177.24c-6.71,3.41-11.27,44.43-5.23,48.06,6.04,3.63,37.13,7.33,42.52,2.8,5.39-4.53,10.72-41.09,7.07-45.73-3.65-4.64-39.59-7.54-44.35-5.12Z" fill="#136849" stroke-width="0"/><path d="M202.05,179.55c-6.71,3.4-11.28,44.42-5.24,48.05,6.04,3.63,37.13,7.34,42.52,2.8,5.39-4.53,10.71-41.1,7.06-45.74-3.65-4.64-39.58-7.53-44.35-5.12Z" fill="#f9b149" stroke-width="0"/><path d="M200.91,179.59c-6.02,3.01-10.16,39.19-4.75,42.39,5.41,3.19,33.29,6.42,38.12,2.42,4.84-4,9.66-36.25,6.39-40.34-3.28-4.09-35.49-6.6-39.76-4.46Z" fill="#ffd68b" stroke-width="0"/><path d="M202.46,188.01c-5.24,6.05-6.05,14.03-5.75,21.73.14,3.33,5.29,2.91,5.16-.41-.25-6.32.2-12.99,4.52-17.97,2.18-2.52-1.75-5.87-3.93-3.35h0Z" fill="#fff" stroke-width="0"/><path d="M206.15,184.34c.01.07.01.14.02.21.26,3.32,5.42,2.92,5.15-.4,0-.07-.01-.14-.02-.22-.26-3.32-5.41-2.92-5.15.41h0Z" fill="#fff" stroke-width="0"/><path d="M275.43,187.78c-7.03,2.69-15.83,43.01-10.2,47.25,5.62,4.23,36.16,11.15,42,7.2,5.83-3.95,14.94-39.75,11.79-44.75-3.16-5-38.59-11.62-43.58-9.71Z" fill="#136849" stroke-width="0"/><path d="M270.65,189.59c-7.03,2.69-15.83,43.01-10.21,47.25,5.62,4.24,36.16,11.16,42,7.21,5.84-3.95,14.94-39.76,11.79-44.75-3.16-5-38.59-11.61-43.57-9.71Z" fill="#f9b149" stroke-width="0"/><path d="M269.51,189.51c-6.3,2.37-14.18,37.92-9.14,41.66,5.05,3.74,32.44,9.85,37.67,6.37,5.23-3.48,13.38-35.05,10.56-39.46-2.83-4.4-34.62-10.25-39.09-8.57Z" fill="#ffd68b" stroke-width="0"/><path d="M270.17,198.05c-5.84,5.47-7.46,13.32-7.96,21.02-.22,3.33,4.95,3.45,5.17.13.41-6.31,1.55-12.89,6.36-17.4,2.43-2.28-1.13-6.02-3.56-3.74h0Z" fill="#fff" stroke-width="0"/><path d="M274.23,194.78v.21c-.09,3.34,5.08,3.46,5.16.13,0-.07,0-.14,0-.22.09-3.33-5.08-3.46-5.16-.13h0Z" fill="#fff" stroke-width="0"/><path d="M341.34,201.64c-7.04,2.69-15.83,43.01-10.2,47.25,5.63,4.23,58.43,17.05,64.26,13.1,5.83-3.95,14.93-39.75,11.78-44.75-3.15-4.99-60.85-17.51-65.84-15.6Z" fill="#136849" stroke-width="0"/><path d="M336.56,203.46c-7.04,2.69-15.83,43.01-10.2,47.25,5.62,4.24,57,17.05,62.83,13.11,5.84-3.95,14.94-39.76,11.79-44.75-3.15-5-59.43-17.51-64.41-15.61Z" fill="#f9b149" stroke-width="0"/><path d="M335.43,203.38c-6.31,2.37-14.19,37.92-9.14,41.66,5.05,3.74,54.05,16.75,59.28,13.27,5.23-3.48,13.38-35.05,10.55-39.46-2.82-4.41-56.22-17.15-60.69-15.47Z" fill="#ffd68b" stroke-width="0"/><path d="M336.08,211.91c-5.84,5.47-7.47,13.32-7.97,21.02-.21,3.33,4.95,3.45,5.17.13.41-6.31,1.54-12.89,6.36-17.4,2.44-2.28-1.12-6.02-3.56-3.74h0Z" fill="#fff" stroke-width="0"/><path d="M340.14,208.65v.22c-.08,3.33,5.08,3.46,5.16.13,0-.08.01-.14.01-.21.08-3.33-5.09-3.47-5.18-.13h0Z" fill="#fff" stroke-width="0"/><path d="M324.89,265.57c-6.93,2.93-14.33,43.53-8.57,47.57,5.77,4.04,58.98,15.02,64.68,10.88,5.69-4.15,13.54-40.25,10.22-45.13-3.31-4.89-61.42-15.39-66.34-13.31Z" fill="#136849" stroke-width="0"/><path d="M320.17,267.55c-6.93,2.92-14.34,43.53-8.57,47.57,5.77,4.04,57.55,15.07,63.25,10.93,5.69-4.15,13.55-40.24,10.22-45.13-3.32-4.89-59.99-15.46-64.9-13.37Z" fill="#f9b149" stroke-width="0"/><path d="M319.04,267.51c-6.23,2.59-12.87,38.39-7.7,41.95,5.18,3.56,54.6,14.87,59.7,11.22,5.11-3.66,12.17-35.49,9.19-39.8-2.98-4.3-56.78-15.2-61.19-13.37Z" fill="#ffd68b" stroke-width="0"/><path d="M319.99,276.01c-5.65,5.67-7,13.57-7.24,21.28-.1,3.33,5.07,3.27,5.17-.05.19-6.33,1.1-12.95,5.76-17.62,2.35-2.36-1.34-5.98-3.69-3.62h0Z" fill="#fff" stroke-width="0"/><path d="M323.94,272.61c0,.07,0,.14,0,.22.03,3.33,5.2,3.28,5.17-.05,0-.08,0-.15,0-.22-.03-3.33-5.2-3.29-5.16.05h0Z" fill="#fff" stroke-width="0"/><path d="M306.91,330.93c-6.94,2.93-14.34,43.53-8.57,47.57,5.77,4.04,58.98,15.02,64.68,10.88,5.69-4.15,13.55-40.25,10.23-45.13-3.33-4.89-61.43-15.4-66.34-13.32Z" fill="#136849" stroke-width="0"/><path d="M302.19,332.91c-6.93,2.93-14.34,43.53-8.57,47.57,5.77,4.04,57.55,15.08,63.25,10.93,5.69-4.15,13.55-40.25,10.22-45.13-3.32-4.88-59.99-15.45-64.9-13.37Z" fill="#f9b149" stroke-width="0"/><path d="M301.05,332.87c-6.22,2.59-12.86,38.39-7.69,41.95,5.17,3.56,54.59,14.87,59.7,11.21,5.11-3.66,12.16-35.5,9.18-39.8-2.97-4.31-56.78-15.2-61.19-13.37Z" fill="#ffd68b" stroke-width="0"/><path d="M302,341.37c-5.64,5.66-7,13.57-7.23,21.28-.11,3.33,5.06,3.28,5.17-.05.19-6.33,1.1-12.94,5.75-17.61,2.35-2.36-1.33-5.98-3.69-3.62h0Z" fill="#fff" stroke-width="0"/><path d="M305.95,337.97c0,.08,0,.14,0,.22.03,3.34,5.19,3.29,5.16-.05v-.22c-.03-3.33-5.2-3.28-5.17.05h0Z" fill="#fff" stroke-width="0"/><path d="M299.06,395.98c-6.93,2.93-14.33,43.53-8.56,47.57,5.77,4.04,58.97,15.02,64.67,10.88,5.69-4.15,13.55-40.25,10.23-45.13-3.32-4.89-61.42-15.4-66.34-13.31Z" fill="#136849" stroke-width="0"/><path d="M294.35,397.97c-6.94,2.92-14.34,43.52-8.57,47.56,5.77,4.04,57.56,15.08,63.25,10.93,5.69-4.15,13.55-40.25,10.22-45.13-3.32-4.89-59.99-15.45-64.9-13.37Z" fill="#f9b149" stroke-width="0"/><path d="M293.21,397.92c-6.22,2.58-12.87,38.39-7.69,41.95,5.18,3.56,54.6,14.86,59.7,11.21,5.11-3.66,12.16-35.5,9.18-39.8-2.98-4.3-56.78-15.19-61.19-13.36Z" fill="#ffd68b" stroke-width="0"/><path d="M294.16,406.43c-5.65,5.66-7,13.57-7.24,21.28-.1,3.33,5.08,3.27,5.18-.05.19-6.33,1.1-12.94,5.75-17.62,2.36-2.36-1.34-5.98-3.69-3.61h0Z" fill="#fff" stroke-width="0"/><path d="M298.11,403.02c0,.07,0,.14,0,.21.03,3.34,5.2,3.29,5.17-.04,0-.07,0-.14,0-.21-.04-3.33-5.2-3.28-5.17.05h0Z" fill="#fff" stroke-width="0"/><path d="M124.77,226.68c-6.95,2.86-14.74,43.4-9,47.49,5.73,4.09,36.43,10.24,42.17,6.14,5.73-4.09,13.92-40.12,10.64-45.04-3.28-4.91-38.87-10.63-43.81-8.6Z" fill="#136849" stroke-width="0"/><path d="M120.02,228.62c-6.95,2.86-14.73,43.4-9,47.49,5.73,4.09,36.44,10.24,42.17,6.14,5.73-4.09,13.93-40.12,10.65-45.04-3.28-4.91-38.87-10.63-43.82-8.6Z" fill="#f9b149" stroke-width="0"/><path d="M118.89,228.57c-6.24,2.53-13.22,38.27-8.08,41.88,5.15,3.61,32.68,9.02,37.82,5.42,5.13-3.61,12.48-35.38,9.55-39.71-2.94-4.33-34.87-9.38-39.29-7.58Z" fill="#ffd68b" stroke-width="0"/><path d="M119.77,237.08c-5.7,5.61-7.13,13.51-7.44,21.21-.13,3.34,5.04,3.32,5.16,0,.26-6.32,1.22-12.93,5.92-17.56,2.38-2.34-1.28-5.99-3.65-3.65h0Z" fill="#fff" stroke-width="0"/><path d="M123.75,233.71v.22c0,3.33,5.17,3.33,5.17,0v-.22c0-3.34-5.17-3.34-5.17,0h0Z" fill="#fff" stroke-width="0"/><path d="M191.37,242.03c-6.85,3.13-13.11,43.92-7.23,47.79,5.88,3.88,36.8,8.87,42.37,4.57,5.57-4.3,12.42-40.61,8.96-45.4-3.45-4.79-39.24-9.18-44.09-6.96Z" fill="#136849" stroke-width="0"/><path d="M186.7,244.15c-6.85,3.13-13.12,43.92-7.24,47.79,5.88,3.88,36.8,8.87,42.37,4.57,5.58-4.3,12.43-40.61,8.97-45.4-3.45-4.79-39.24-9.18-44.1-6.96Z" fill="#f9b149" stroke-width="0"/><path d="M185.57,244.14c-6.14,2.76-11.79,38.73-6.51,42.15,5.28,3.41,33,7.8,37.99,4,5.01-3.8,11.16-35.82,8.06-40.04-3.1-4.22-35.19-8.07-39.54-6.12Z" fill="#ffd68b" stroke-width="0"/><path d="M186.75,252.61c-5.49,5.83-6.61,13.77-6.63,21.48-.01,3.34,5.15,3.13,5.16-.19.02-6.32.75-12.97,5.27-17.77,2.29-2.43-1.49-5.94-3.79-3.52h0Z" fill="#fff" stroke-width="0"/><path d="M190.61,249.1c0,.07,0,.14,0,.21.13,3.34,5.28,3.14,5.17-.19,0-.07,0-.14,0-.22-.13-3.33-5.29-3.13-5.17.19h0Z" fill="#fff" stroke-width="0"/><path d="M259.03,253.21c-7.03,2.69-15.83,43.01-10.2,47.25,5.63,4.24,36.17,11.16,42,7.21,5.84-3.95,14.94-39.76,11.79-44.76-3.15-4.99-38.59-11.61-43.58-9.7Z" fill="#136849" stroke-width="0"/><path d="M254.25,255.03c-7.03,2.69-15.83,43.01-10.2,47.25,5.62,4.24,36.16,11.16,42,7.21,5.84-3.95,14.93-39.75,11.79-44.75-3.16-5-38.6-11.61-43.58-9.71Z" fill="#f9b149" stroke-width="0"/><path d="M253.11,254.95c-6.3,2.37-14.18,37.92-9.13,41.66,5.05,3.74,32.44,9.85,37.67,6.37,5.23-3.48,13.38-35.05,10.55-39.46-2.82-4.41-34.61-10.25-39.09-8.58Z" fill="#ffd68b" stroke-width="0"/><path d="M253.77,263.48c-5.84,5.47-7.47,13.33-7.97,21.02-.22,3.33,4.95,3.45,5.16.13.41-6.31,1.55-12.9,6.36-17.41,2.44-2.28-1.12-6.03-3.56-3.75h0Z" fill="#fff" stroke-width="0"/><path d="M257.83,260.22v.22c-.09,3.34,5.08,3.46,5.16.13,0-.07,0-.14,0-.21.08-3.33-5.08-3.46-5.17-.13h0Z" fill="#fff" stroke-width="0"/><path d="M115.93,290.87c-7,2.76-15.4,43.17-9.73,47.34,5.67,4.18,36.27,10.8,42.07,6.79,5.79-4.01,14.54-39.91,11.33-44.87-3.19-4.96-38.7-11.23-43.67-9.27Z" fill="#136849" stroke-width="0"/><path d="M111.17,292.73c-7,2.76-15.41,43.17-9.74,47.35,5.67,4.18,36.27,10.8,42.07,6.79,5.79-4,14.53-39.9,11.34-44.86-3.21-4.96-38.71-11.23-43.67-9.28Z" fill="#f9b149" stroke-width="0"/><path d="M110.03,292.67c-6.28,2.43-13.81,38.06-8.72,41.75,5.08,3.69,32.53,9.53,37.73,6,5.2-3.53,13.03-35.18,10.15-39.56-2.87-4.38-34.72-9.91-39.17-8.19Z" fill="#ffd68b" stroke-width="0"/><path d="M110.77,301.19c-5.79,5.53-7.34,13.4-7.76,21.1-.18,3.33,4.98,3.4,5.17.08.35-6.31,1.42-12.91,6.19-17.47,2.42-2.3-1.19-6.02-3.6-3.71h0Z" fill="#fff" stroke-width="0"/><path d="M114.81,297.89v.22c-.06,3.34,5.11,3.41,5.17.08v-.21c.05-3.34-5.11-3.42-5.17-.08h0Z" fill="#fff" stroke-width="0"/><path d="M182.93,306.91c-6.96,2.86-14.79,43.38-9.06,47.48,5.72,4.1,36.42,10.29,42.15,6.2,5.74-4.09,13.98-40.1,10.71-45.02-3.27-4.92-38.87-10.69-43.81-8.66Z" fill="#136849" stroke-width="0"/><path d="M178.19,308.84c-6.96,2.86-14.79,43.38-9.07,47.48,5.72,4.1,36.43,10.29,42.16,6.2,5.74-4.09,13.98-40.1,10.71-45.02-3.26-4.92-38.85-10.68-43.8-8.66Z" fill="#f9b149" stroke-width="0"/><path d="M177.06,308.78c-6.24,2.52-13.27,38.25-8.13,41.87,5.13,3.62,32.67,9.07,37.81,5.47,5.15-3.61,12.54-35.36,9.61-39.7-2.94-4.33-34.85-9.42-39.28-7.63Z" fill="#ffd68b" stroke-width="0"/><path d="M177.92,317.3c-5.7,5.61-7.15,13.5-7.46,21.2-.14,3.33,5.03,3.33,5.17,0,.25-6.31,1.23-12.93,5.94-17.54,2.38-2.34-1.27-6-3.65-3.66h0Z" fill="#fff" stroke-width="0"/><path d="M181.91,313.94v.21c0,3.34,5.17,3.34,5.17,0,0-.07,0-.14,0-.22,0-3.33-5.16-3.34-5.17,0h0Z" fill="#fff" stroke-width="0"/><path d="M249.78,319.47c-7.07,2.58-16.5,42.76-10.94,47.08,5.57,4.32,35.99,11.71,41.89,7.85,5.89-3.86,15.54-39.52,12.47-44.56-3.08-5.04-38.41-12.21-43.42-10.37Z" fill="#136849" stroke-width="0"/><path d="M244.96,321.21c-7.07,2.58-16.49,42.76-10.93,47.08,5.55,4.33,35.99,11.72,41.88,7.86,5.9-3.86,15.54-39.52,12.48-44.56-3.08-5.04-38.41-12.21-43.42-10.38Z" fill="#f9b149" stroke-width="0"/><path d="M243.83,321.11c-6.34,2.27-14.77,37.7-9.78,41.52,4.99,3.82,32.29,10.35,37.57,6.95,5.28-3.4,13.91-34.84,11.15-39.29-2.76-4.45-34.45-10.78-38.94-9.18Z" fill="#ffd68b" stroke-width="0"/><path d="M244.35,329.65c-5.92,5.38-7.67,13.21-8.29,20.9-.27,3.33,4.9,3.52,5.16.21.5-6.3,1.75-12.87,6.63-17.31,2.47-2.24-1.04-6.04-3.51-3.8h0Z" fill="#fff" stroke-width="0"/><path d="M248.46,326.45v.21c-.14,3.33,5.03,3.54,5.17.21,0-.07,0-.14,0-.21.13-3.33-5.03-3.54-5.17-.21h0Z" fill="#fff" stroke-width="0"/><path d="M103.17,348.57c-7.1,2.49-17.07,42.54-11.56,46.94,5.49,4.4,35.83,12.19,41.77,8.41,5.94-3.78,16.07-39.31,13.07-44.39-3.01-5.08-38.24-12.72-43.28-10.96Z" fill="#136849" stroke-width="0"/><path d="M98.33,350.25c-7.1,2.49-17.06,42.54-11.56,46.94,5.5,4.4,35.83,12.19,41.77,8.41,5.95-3.78,16.07-39.31,13.07-44.39-3.01-5.08-38.24-12.72-43.28-10.96Z" fill="#f9b149" stroke-width="0"/><path d="M97.2,350.14c-6.37,2.19-15.27,37.49-10.33,41.38,4.94,3.88,32.14,10.78,37.47,7.46,5.33-3.33,14.38-34.66,11.68-39.14-2.7-4.49-34.3-11.25-38.82-9.7Z" fill="#ffd68b" stroke-width="0"/><path d="M97.61,358.68c-5.99,5.3-7.84,13.11-8.57,20.78-.31,3.32,4.84,3.59,5.17.28.58-6.29,1.91-12.85,6.85-17.21,2.5-2.21-.95-6.05-3.45-3.85h0Z" fill="#fff" stroke-width="0"/><path d="M101.77,355.54c0,.07,0,.14,0,.21-.18,3.33,4.99,3.61,5.16.28,0-.07,0-.15.01-.22.18-3.33-4.98-3.61-5.17-.28h0Z" fill="#fff" stroke-width="0"/><path d="M169.7,367.09c-7.09,2.54-16.76,42.66-11.23,47.02,5.54,4.36,35.91,11.95,41.83,8.12,5.92-3.82,15.8-39.43,12.76-44.49-3.04-5.06-38.33-12.45-43.36-10.65Z" fill="#136849" stroke-width="0"/><path d="M164.88,368.8c-7.09,2.54-16.77,42.66-11.23,47.02,5.53,4.36,35.92,11.94,41.83,8.11,5.92-3.82,15.79-39.42,12.75-44.49-3.04-5.06-38.33-12.44-43.35-10.65Z" fill="#f9b149" stroke-width="0"/><path d="M163.75,368.7c-6.35,2.23-15,37.6-10.03,41.45,4.96,3.84,32.22,10.55,37.52,7.19,5.3-3.36,14.14-34.75,11.4-39.22-2.73-4.47-34.38-11-38.89-9.42Z" fill="#ffd68b" stroke-width="0"/><path d="M164.22,377.24c-5.96,5.34-7.76,13.16-8.42,20.84-.29,3.33,4.88,3.56,5.16.24.55-6.3,1.83-12.86,6.74-17.26,2.48-2.22-.99-6.05-3.48-3.82h0Z" fill="#fff" stroke-width="0"/><path d="M168.35,374.07c0,.07,0,.14-.01.21-.15,3.33,5.01,3.58,5.17.24,0-.07.01-.14.01-.21.16-3.33-5.01-3.57-5.16-.24h0Z" fill="#fff" stroke-width="0"/><path d="M235.8,382.33c-7.16,2.3-18.13,42.09-12.74,46.62,5.38,4.54,35.51,13.1,41.54,9.47,6.05-3.63,17.07-38.89,14.2-44.05-2.88-5.16-37.91-13.68-43-12.05Z" fill="#136849" stroke-width="0"/><path d="M230.92,383.89c-7.16,2.3-18.13,42.09-12.74,46.62,5.38,4.54,35.5,13.1,41.54,9.47,6.04-3.63,17.07-38.89,14.2-44.05-2.87-5.16-37.91-13.68-43-12.05Z" fill="#f9b149" stroke-width="0"/><path d="M229.8,383.75c-6.42,2.02-16.21,37.1-11.37,41.11,4.83,4,31.86,11.59,37.27,8.4,5.42-3.19,15.26-34.28,12.67-38.83-2.59-4.55-34.01-12.11-38.57-10.68Z" fill="#ffd68b" stroke-width="0"/><path d="M229.99,392.3c-6.13,5.15-8.18,12.9-9.09,20.55-.4,3.31,4.76,3.72,5.15.41.75-6.28,2.25-12.79,7.3-17.03,2.55-2.15-.8-6.08-3.36-3.93h0Z" fill="#fff" stroke-width="0"/><path d="M234.23,389.26c0,.08-.01.14-.02.22-.26,3.32,4.89,3.73,5.16.41,0-.07,0-.14.01-.21.26-3.32-4.89-3.73-5.15-.41h0Z" fill="#fff" stroke-width="0"/><path d="M154.8,178.11c1.42-.63,2.64-.86,3.65-.7.68.1,1.14.49,1.36,1.15.24.75-.01,2.34-.74,4.79l-2.23,7.4c-.8,2.65-1.42,4.44-1.88,5.38.52.06,1.11.15,1.75.26.46.09.74.39.83.91.09.52,0,.99-.29,1.39-.08.1-.13.16-.16.2-.52.46-1.41.62-2.65.47-1.37-.17-3.33-.52-5.89-1.06-.98-.21-1.36-.7-1.13-1.46.09-.29.28-.6.57-.91.43-.45,1.16-.59,2.18-.43.22.03.46.08.73.13.18-.41.65-1.82,1.39-4.26.78-2.57,1.69-5.84,2.74-9.8-1.22,1.03-2.28,1.47-3.18,1.34-.38-.06-.7-.26-.95-.6-.25-.34-.32-.7-.21-1.07.11-.36.38-.72.81-1.07,1-.84,2.1-1.53,3.29-2.07Z" fill="#136849" stroke-width="0"/><path d="M221.8,188.64c1.43-.18,2.74-.07,3.94.34.36.12.7.26,1.02.42,1.48.72,2.45,1.48,2.91,2.27,1.14,1.98.94,4.38-.59,7.2-.71,1.33-1.8,2.59-3.25,3.78-1.54,1.25-3.04,2.06-4.52,2.41-.79.19-2.13.41-4.02.67.49,0,1.1.15,1.83.45,1.3.5,2.04.84,2.24,1.01.46.43.51,1.13.14,2.12-.37,1.01-1.39,1.26-3.05.76-1.31-.4-2.74-.89-4.31-1.47-2.3-.88-3.5-1.53-3.58-1.93-.09-.54.02-1.11.32-1.73.09-.17.2-.35.33-.55.57-.85,1.31-1.44,2.21-1.75.56-.19,1.52-.33,2.88-.42,3.36-.23,5.67-1.17,6.93-2.82.65-.84,1.28-1.93,1.88-3.25.9-1.97.46-3.25-1.33-3.87-.28-.09-.55-.16-.81-.2-1.47-.23-2.81.77-4.02,3-.32.59-.49.92-.51,1.02-.22.43-.55.77-.98,1.01-.49.27-.95.35-1.39.22-.54-.17-.93-.41-1.15-.72-.67-.92-.53-2.13.4-3.66,1.52-2.51,3.68-3.95,6.48-4.31Z" fill="#136849" stroke-width="0"/><path d="M295.37,207.81c-.35.73-.82,1.39-1.42,1.98-.78.77-1.51,1.1-2.2.99.73.77.77,2.18.13,4.26-.23.76-.48,1.41-.75,1.96-.7,1.44-1.59,2.44-2.66,2.99-1.49.73-3.02.87-4.61.4-1.87-.57-3.24-1.07-4.11-1.51-1.78-.91-2.5-1.9-2.16-2.94.11-.31.21-.58.32-.82.56-1.16,1.27-1.61,2.13-1.33.11.04.23.09.35.15,1.2.55,2.19.94,2.96,1.2.82.29,1.43.48,1.82.54.9.14,1.52.02,1.88-.39.57-.64.94-1.13,1.1-1.47.56-1.16.04-2.11-1.55-2.84-1.04-.38-2.08-.76-3.13-1.15-1.23-.56-1.79-1.29-1.68-2.2.04-.32.11-.59.22-.82.24-.5.68-.81,1.31-.94.53-.11,1.08-.08,1.64.11.19.06.41.17.66.31.72.41,1.66.72,2.82.93,1.14.19,1.86.05,2.18-.4.12-.19.21-.35.29-.52.34-.71.32-1.36-.05-1.98-.37-.45-.73-.77-1.08-.96-.43-.21-1.31-.5-2.64-.84-1.19-.3-2-.6-2.4-.88-.75-.52-.9-1.21-.47-2.07.45-.91,1.38-1.31,2.8-1.24.73.05,1.79.27,3.19.67,1.64.48,2.81.88,3.53,1.23,1.32.64,2.15,1.49,2.47,2.54.28.95.17,2.16-.35,3.64-.22.62-.4,1.08-.55,1.39Z" fill="#136849" stroke-width="0"/><path d="M133.18,250.12l-1.08,2.6-.14.35c.48.2.88.36,1.19.47.85.3,1.4.44,1.64.43.78-1.65,1.7-3.94,2.77-6.89,1.02-2.84,2.25-4.15,3.67-3.95,1.46.19,1.8,1.26,1.04,3.22-.29.75-.95,2.16-1.98,4.23-.89,1.8-1.49,3.22-1.79,4.26.67.2,1.54.42,2.64.63.89.19,1.78.45,2.66.78.58.23.72.7.42,1.4-.11.26-.26.55-.46.85-.58.83-1.32,1.25-2.24,1.24-.48,0-1.29-.18-2.43-.56-.99-.34-1.68-.44-2.08-.32-.4.12-.8.69-1.23,1.72-.16.4-.29.72-.37.96-.25.71-.53,1.23-.85,1.56-.45.48-1,.62-1.63.43-1.02-.31-1.37-.91-1.06-1.77l1.36-3.77c-1.08-.16-2.36-.51-3.83-1.06-1-.37-1.67-.77-1.99-1.21-.42-.54-.48-1.26-.2-2.17l1.15-2.7c.82-1.93,1.61-4.04,2.4-6.34.14-.43.29-.81.43-1.16.55-1.31,1.1-2.08,1.63-2.29.68-.27,1.32-.3,1.93-.1.98.34,1.38,1.1,1.21,2.29-.08.56-.41,1.53-.97,2.91-.63,1.53-1.22,2.85-1.77,3.97Z" fill="#136849" stroke-width="0"/><path d="M215.72,260.03c.88.47,1.15,1.05.8,1.75-.32.63-.7,1.04-1.12,1.24-.43.2-1.03.27-1.8.19-.7-.06-1.69-.27-2.96-.61-1.28-.34-2.21-.53-2.77-.59-1.12,1.99-1.81,3.26-2.08,3.79,1.33,0,3.07.25,5.22.71.36.08.75.19,1.16.33,1.91.65,3.24,1.8,3.99,3.47.43,1.64.16,3.26-.8,4.89-1.04,1.73-2.55,3.03-4.55,3.89-2,.87-3.98,1.09-5.97.68-.7-.14-1.35-.31-1.95-.52-1.1-.37-1.93-.83-2.52-1.37-.86-.81-1.37-1.48-1.52-2-.03-.25.02-.51.16-.79.12-.24.31-.5.59-.77.58-.59,1.18-.8,1.79-.66.57.14,1.17.38,1.83.69.48.24,1.49.53,3.04.89,1.42.32,2.7.25,3.85-.23.79-.33,1.31-.74,1.56-1.24.11-.21.16-.46.16-.75-.01-.87-.19-1.45-.56-1.75-.3-.25-.9-.52-1.8-.8-.85-.25-1.9-.49-3.14-.69l-3.25-.42c-.37-.05-.72-.12-1.05-.24-.8-.27-1.14-.72-1.02-1.36.16-.84.35-1.52.58-2.04.24-.58.62-1.41,1.15-2.49.31-.63.85-1.66,1.63-3.07.48-.88,1.08-1.79,1.81-2.76.65.06,1.09.13,1.31.21l2.3.49c.98.21,2.15.53,3.5.96,1.14.35,1.96.67,2.45.93Z" fill="#136849" stroke-width="0"/><path d="M272.34,273.93c1.69-1.32,3.23-2.06,4.61-2.22,1.28-.15,2.43-.09,3.46.18.97.25,1.97.72,3.02,1.42,1.27.84,2.1,1.96,2.5,3.36.33,1.2.03,2.39-.92,3.6-.19.25-.35.43-.46.56-1.31,1.39-2.27,1.93-2.89,1.64-.62-.28-1.05-.69-1.29-1.21-.17-.36-.04-.81.39-1.35.11-.14.29-.34.54-.59.25-.25.43-.44.55-.58.56-.71.53-1.38-.08-2.01-.4-.4-.75-.7-1.08-.88-.33-.19-.65-.31-.95-.35-1.63-.22-3.31.39-5.06,1.83-.53.43-1.05.98-1.58,1.64-.61.78-1.24,1.72-1.87,2.81.43-.7,1.52-.97,3.27-.84,1.06.08,1.98.35,2.79.82.53.31,1,.7,1.39,1.17,1.57,1.9,1.75,3.81.56,5.69-.14.22-.28.43-.44.62-1.42,1.81-3.23,2.69-5.41,2.64-1.46-.04-2.66-.27-3.63-.71-.96-.44-1.73-.94-2.27-1.5-1.01-1.03-1.63-2.45-1.86-4.25-.04-.42-.02-.9.06-1.43.31-1.94,1.36-4.09,3.15-6.48.97-1.29,2.15-2.48,3.52-3.55ZM275.07,284.9c-.27-.16-.6-.26-.99-.32-1.3-.19-2.25.15-2.86,1-.76,1.06-.62,1.88.41,2.48.7.4,1.53.49,2.51.27.39-.09.71-.3.97-.63.26-.33.45-.74.56-1.25.16-.72-.03-1.23-.6-1.56Z" fill="#136849" stroke-width="0"/><path d="M117.62,302.38c.66.07,1.68.21,3.07.42,1.33.19,2.86.56,4.6,1.08,1.46.45,1.89,1.87,1.27,4.27-.56,2.16-1.32,4.41-2.27,6.73-1,2.48-1.75,4.34-2.24,5.58-1.24,2.99-2.18,4.56-2.78,4.71-.39.1-.78.11-1.18.04-.36-.07-.77-.21-1.23-.43-.91-.44-1.27-.96-1.09-1.56.32-1.08.92-2.51,1.81-4.3,1.06-2.17,1.72-3.6,2-4.29.81-2.03,1.39-3.5,1.73-4.4.46-1.2.74-2.19.83-2.96-1.07-.36-2.22-.62-3.44-.78-1.1-.13-1.85-.12-2.25.05-.5.21-.95.79-1.34,1.75-.33.83-.56,1.46-.72,1.89-.31.85-.61,1.7-.91,2.55-.47,1.06-1.04,1.73-1.71,2.01-.43.18-.8.24-1.1.18-.24-.04-.43-.15-.61-.33-.45-.49-.7-.94-.74-1.36-.04-.31.06-.87.3-1.69.37-1.31,1.23-3.86,2.59-7.64.72-1.13,1.47-1.69,2.28-1.7.91-.02,1.95.04,3.14.18Z" fill="#136849" stroke-width="0"/><path d="M199.93,322.38c-.7,2.26-1.95,3.69-3.74,4.29.23.17.36.28.4.33,1.14.94,1.86,1.75,2.14,2.41.21.5.36.93.44,1.3.22.98.2,1.87-.06,2.68-.25.68-.42,1.14-.51,1.36-.26.68-.57,1.22-.93,1.64-.88,1.02-1.77,1.76-2.68,2.21-.91.45-2.05.6-3.41.42-.44-.05-.78-.1-1.03-.16-1.05-.23-2.08-.7-3.09-1.41-.85-.58-1.44-1.28-1.78-2.09-.06-.14-.11-.24-.14-.3-.28-.8-.35-1.54-.23-2.22.1-.54.25-1.08.45-1.62.14-.54.4-1.08.77-1.63,0-.03.01-.05.04-.06.41-.53.81-1.05,1.19-1.57.44-.53.97-.97,1.61-1.31.29-.17.92-.45,1.88-.83-1.69-.89-2.38-2.38-2.09-4.45.11-.72.33-1.39.64-2.02.56-1.11,1.63-1.83,3.19-2.17,1.12-.24,2.1-.32,2.97-.24,1.63.15,2.83.87,3.62,2.15.62,1,.73,2.09.36,3.29ZM191.3,329.93c-.58.48-.94,1.08-1.11,1.79-.26,1.11-.04,2.01.68,2.68.32.3.7.47,1.12.51.31.03.67-.03,1.08-.15.92-.27,1.52-1.16,1.85-2.65.32-1.48-.02-2.37-1.03-2.67-.22-.07-.45-.11-.67-.13-.71-.07-1.36.14-1.93.62ZM195.82,321.99c.13-.79-.11-1.31-.7-1.58-.28-.13-.53-.2-.72-.23-.59-.05-1.02.25-1.27.89-.07.18-.14.39-.2.64-.23.97.18,1.5,1.22,1.6.63-.06,1.15-.41,1.54-1.03.08-.13.12-.23.14-.3Z" fill="#136849" stroke-width="0"/><path d="M261.73,333.27c.55.07,1.1.19,1.66.38,1.33.44,2.27,1.17,2.84,2.2.75,1.37.93,2.67.55,3.89-.26.84-.63,1.73-1.09,2.67-.52,1.05-1.17,2.17-1.93,3.36-1.52,2.35-2.97,4.14-4.36,5.36-1.44,1.26-2.6,2.06-3.5,2.4-1.2.46-2.52.41-3.96-.15-1.26-.49-2.1-1.03-2.57-1.63-.54-.67-.73-1.63-.56-2.86.04-.36.13-.66.24-.89.19-.39.47-.64.85-.75.79-.23,1.37-.28,1.75-.15.63.2.92.64.9,1.3-.02.67,0,1.08.05,1.24.13.43.51.73,1.12.91.87.24,2.13-.61,3.8-2.53,1.56-1.79,2.59-3.21,3.11-4.26-.33.24-1.17.46-2.54.67-.55.08-1.14.02-1.76-.18-.82-.27-1.65-.83-2.49-1.67-1.41-1.42-1.64-3.06-.68-4.91.56-1.08,1-1.82,1.31-2.22.49-.6,1.17-1.12,2.04-1.58,1.28-.68,3.02-.87,5.21-.59ZM258.4,340.2c1.06.31,1.95,0,2.66-.9.12-.16.22-.31.29-.45.34-.69.16-1.26-.56-1.72-.29-.19-.6-.34-.92-.44-.52-.17-1-.15-1.46.07-.46.22-.81.59-1.06,1.1-.09.18-.17.39-.24.63-.24.82.19,1.39,1.29,1.7Z" fill="#136849" stroke-width="0"/><path d="M114.85,368.52c1.83.22,3.1.8,3.82,1.75.58.78.95,2.14,1.09,4.09.12,1.64-.18,3.57-.9,5.8-.35,1.07-.77,2.18-1.29,3.33-1.64,3.7-3.38,5.81-5.21,6.34-1.31.38-2.47.48-3.46.3-.4-.07-.75-.18-1.08-.33-1.52-.71-2.47-1.87-2.84-3.49-.28-1.26-.24-2.87.13-4.85.29-1.59.68-3.11,1.15-4.56,1.04-3.19,2.45-5.51,4.27-6.93,1.45-1.15,2.89-1.63,4.33-1.46ZM109.98,386.27c1,.25,1.96-.26,2.87-1.52.63-.86,1.14-1.9,1.53-3.08.38-1.16.69-2.56.94-4.2.31-2.11.24-3.42-.2-3.95-.28-.34-.92-.54-1.91-.61-1.46.36-2.64,2.11-3.58,5.24-1.49,4.99-1.37,7.7.36,8.13Z" fill="#136849" stroke-width="0"/><path d="M180.61,400c-.15-.17-.24-.31-.28-.43.11-.19.29-.65.54-1.37.29-.85.44-1.49.45-1.91.01-.43.11-.74.29-.94.18-.2.48-.37.9-.52.89-.29,1.41-.05,1.55.73.04.24.05.52.02.84-.08.84-.45,1.61-1.07,2.31-.81.86-1.49,1.39-2.05,1.58-.08.02-.19-.07-.35-.29Z" fill="#136849" stroke-width="0"/><path d="M247.67,405.4c-2.72,0-4.73,1.27-6,3.81-.31.61-.52,1.31-.63,2.1-.14,1-.1,2.13.13,3.39.34,1.9,1.59,2.86,3.73,2.86.28,0,.7-.03,1.27-.08.56-.05.99-.08,1.27-.08,1.85,0,2.94.51,3.29,1.52.09.26.13.56.08.87-.13.88-.99,1.65-2.58,2.32-1.68.41-2.87.63-3.55.65-1.61.04-3.26-.31-4.94-1.05-2.3-1.01-3.38-3.66-3.23-7.94.03-.86.11-1.72.23-2.57.16-1.1.38-2.21.69-3.32.55-1.95,1.26-3.37,2.14-4.26,1.07-1.07,2.15-1.84,3.24-2.29.9-.38,2.17-.66,3.8-.87.8-.1,1.52-.16,2.14-.16.92,0,1.68.11,2.28.32,1.63.36,2.4,1.41,2.3,3.17-.08,1.37-.78,2.05-2.14,2.05-.34,0-.71-.04-1.12-.13-.88-.19-1.68-.29-2.39-.29Z" fill="#136849" stroke-width="0"/><path d="M313.84,423.9c-.79-.89-1.34-1.64-1.64-2.26-.38-.76-.49-1.67-.36-2.74.13-1.08.48-1.88,1.03-2.43.55-.55,1.56-.95,3.03-1.18,1.85-.29,3.4-.15,4.66.45.23.07.53.25.92.56,1.47,1.14,2.42,2.38,2.84,3.74.56,1.83-.13,3.5-2.06,5.02-.52.41-1.2.74-2.05,1-.7.22-1.37.28-2.04.17-1.78-.3-3.22-1.08-4.32-2.34ZM318.58,422.13c.08-.03.18-.06.31-.08.25-.13.41-.22.45-.27.19-.14.29-.27.31-.42.03-.15.03-.34.03-.57.03-.14.02-.28-.03-.42-.09-.31-.32-.61-.7-.89-.37-.29-.72-.45-1.05-.51-.67-.08-1.07-.06-1.22.07-.58.35-.77.91-.52,1.67.07.24.17.48.28.69.63.59,1.26.84,1.85.74.11,0,.21,0,.3-.02ZM300.57,426.99c-.17-.55-.17-1.08-.02-1.58.18-.59.54-.93,1.07-1.01.99-.16,2.9.04,5.74.59,1.97.4,3.93.8,5.9,1.19,1.99.33,3.95.72,5.88,1.17,1.63.38,3.59.81,5.89,1.28.19.03,1.69.24,4.51.62,1.84.27,2.86.42,3.09.47,1.24.34,2,.94,2.27,1.83.53,1.7-.25,2.72-2.32,3.05-1.09.18-3.69-.18-7.8-1.04-3.11-.65-5.81-1.31-8.14-1.99-.52-.04-1.17-.13-1.95-.24-1.02-.26-1.82-.41-2.37-.45-1.02-.08-2.33-.3-3.95-.69-1.85-.44-3.18-.72-4.01-.87-.92-.15-1.58-.29-1.96-.43-.75-.27-1.28-.64-1.59-1.13l-.24-.78ZM314.62,443.79c-.42-.03-1.27-.35-2.55-.94-.83-.39-1.4-.84-1.7-1.37-.21-.29-.5-.7-.88-1.22-.4-.72-.55-1.84-.43-3.36.12-1.5.46-2.49,1.04-2.97.94-.8,2.05-1.29,3.31-1.5.99-.16,2.32,0,4,.49.67.19,1.53.78,2.59,1.75.34.32.74.9,1.19,1.78.38.71.55,1.61.52,2.66-.03.99-.22,1.83-.55,2.52-.33.69-.99,1.27-1.94,1.74-.96.46-1.86.66-2.69.58-.25-.03-.88-.08-1.9-.16ZM316.66,439.05c.12-.1.18-.32.17-.64-.14-.82-.55-1.38-1.22-1.68-.36-.16-.73-.21-1.1-.15-.31.06-.6.17-.86.37-.23.12-.38.29-.45.52-.04.38,0,.74.1,1.09-.04.24.18.51.65.79.47.29.85.43,1.14.4.56-.06,1.09-.31,1.57-.7Z" fill="#136849" stroke-width="0"/><path d="M333.02,374.96c-.41,0-.88-.2-1.42-.6-.53-.4-.8-.87-.83-1.41-.14-1.8-.05-4.4.27-7.8.07-.79.08-1.37.06-1.74-1.27,1.08-2.22,1.89-2.84,2.43-.94.97-2.38,2.37-4.35,4.21-.68.59-1.65.62-2.89.09-.72-.3-1.21-.79-1.48-1.47-.27-.69-.21-1.37.19-2.03.21-.34.51-.68.92-1.02.82-.67,2.22-1.7,4.19-3.11l3.34-2.38c.48-.35.78-.63.92-.85.16-.26.21-.68.16-1.25-.12-1.09-.24-2.16-.36-3.24-.13-1.26-.17-2.35-.13-3.24.06-1.75.17-2.91.32-3.47.08-.34.19-.64.35-.9.33-.55.83-.94,1.49-1.18.95-.37,1.93-.35,2.92.07,1.52.66,1.88,2.31,1.09,4.98-.23.75-.36,1.48-.43,2.2-.02.32-.27,1.95-.73,4.9,1.86-1.26,3.51-2.55,4.95-3.88,1.43-1.33,2.45-2.19,3.04-2.59,1.43-.93,2.64-1.13,3.63-.59.88.47,1.34,1.23,1.38,2.26.03.64-.09,1.18-.36,1.63-.19.32-.43.57-.72.78-.65.47-1.1.81-1.34,1.04-1.32.86-2.91,1.85-4.74,2.96-.73.39-1.47.79-2.22,1.19-1.08.58-1.71,1.02-1.9,1.33-.11.19-.18.39-.19.59-.07.69,0,1.54.17,2.56.33,1.82.53,3.03.6,3.6.19,1.62.16,2.81-.11,3.56-.21.54-.43,1.05-.69,1.55-.29.54-1.04.82-2.25.83Z" fill="#136849" stroke-width="0"/><path d="M351.12,296.65c-2.79-.41-4.71-.7-5.77-.83-1.86-.29-4.07-.92-6.65-1.91-2.32-.9-3.13-2.14-2.42-3.72,1.04-2.3,3.5-3.26,7.39-2.87,1.67.18,4.22.77,7.67,1.8,3.26.98,5.03,1.9,5.29,2.75.18.58.11,1.2-.19,1.87-.17.39-.45.83-.83,1.34-1.01,1.35-2.5,1.87-4.48,1.57Z" fill="#136849" stroke-width="0"/><path d="M367.74,217.36c.79.29,1.02,1.05.68,2.28-.46,1.59-.76,2.68-.91,3.26l-.86,3.31,1.04.12c3.48.4,5.47.96,5.97,1.69.35.51.43,1.14.24,1.88-.08.29-.2.61-.39.97-.64,1.26-1.8,1.84-3.47,1.77-2.19-.12-3.68-.2-4.49-.27l-.63,2.46c-.04.24-.14.69-.31,1.34l-.37,1.44c-.41.95-1.02,1.68-1.83,2.18-.55.23-1.1.32-1.68.25-.24-.05-.58-.19-1-.42-.44-.22-.64-.34-.62-.34-.09-.24-.19-.46-.27-.67-.14-.61.16-2.35.91-5.27.04-.15.08-.37.14-.65.05-.29.09-.51.13-.66-2.5-.39-4.04-.65-4.6-.76-1.83-.34-2.53-1.31-2.1-2.9.4-1.46,1.52-2.3,3.39-2.52.59-.06,2.13-.02,4.63.12.19-.4.38-1.01.55-1.82.21-1.23.37-2.08.45-2.55.1-.59.26-1.27.46-2.04.28-1.07.67-1.85,1.18-2.33.3-.19.78-.28,1.44-.27.6-.09,1.37.04,2.33.39Z" fill="#136849" stroke-width="0"/></g></g></svg>