<?xml version="1.0" encoding="UTF-8"?><svg id="OBJECTS" xmlns="http://www.w3.org/2000/svg" viewBox="0 0 512 512"><path d="M268.19,481.52h-32.31c-5,0-9.05-4.05-9.05-9.05v-153.79h50.4v153.79c0,5-4.05,9.05-9.05,9.05Z" fill="#ee8700" stroke-width="0"/><rect x="226.84" y="318.68" width="50.4" height="72.76" fill="#cc7400" stroke-width="0"/><path d="M198.26,17.32l-71.16,474.3c-.94,6.25,3.9,11.87,10.22,11.87h26.14c5.12,0,9.47-3.74,10.22-8.81L244.84,20.39c.94-6.25-3.9-11.87-10.23-11.87h-26.14c-5.12,0-9.46,3.74-10.22,8.81Z" fill="#ff9811" stroke-width="0"/><path d="M303.52,8.51h-26.14c-6.32,0-11.16,5.62-10.22,11.87l71.16,474.3c.76,5.06,5.11,8.81,10.22,8.81h26.14c6.32,0,11.16-5.62,10.22-11.87L313.74,17.32c-.76-5.06-5.11-8.81-10.22-8.81Z" fill="#ff9811" stroke-width="0"/><polygon points="322.83 391.45 369.87 391.45 355.85 298 308.81 298 322.83 391.45" fill="#ee8700" stroke-width="0"/><polygon points="142.13 391.45 189.17 391.45 203.19 298 156.15 298 142.13 391.45" fill="#ee8700" stroke-width="0"/><path d="M432.4,342.17H79.6c-17.13,0-31.02-13.89-31.02-31.02V84.01c0-17.13,13.89-31.02,31.02-31.02h352.79c17.13,0,31.02,13.89,31.02,31.02v227.15c0,17.13-13.89,31.02-31.02,31.02Z" fill="#ffc477" stroke-width="0"/><path d="M175.21,117.22c20.32-26.66,44.79-48.17,71.64-64.23H79.6c-17.13,0-31.02,13.89-31.02,31.02v227.15c0,17.13,13.89,31.02,31.02,31.02h55.04c-23.53-72.55-11.06-157.24,40.57-224.95Z" fill="#ffb655" stroke-width="0"/><path d="M79.6,316.33c-2.85,0-5.17-2.32-5.17-5.17V84.01c0-2.85,2.32-5.17,5.17-5.17h352.79c2.85,0,5.17,2.32,5.17,5.17v227.15c0,2.85-2.32,5.17-5.17,5.17H79.6Z" fill="#4e901e" stroke-width="0"/><path d="M175.21,117.22c10.9-14.3,23-27.1,36.01-38.38H79.6c-2.85,0-5.17,2.32-5.17,5.17v227.15c0,2.85,2.32,5.17,5.17,5.17h48.27c-13.32-66.24,1.74-139.29,47.34-199.11Z" fill="#47821c" stroke-width="0"/><path d="M335.7,354.01h-159.39c-5.71,0-10.34-4.63-10.34-10.34v-38.35c0-5.71,4.63-10.34,10.34-10.34h159.39c5.71,0,10.34,4.63,10.34,10.34v38.35c0,5.71-4.63,10.34-10.34,10.34Z" fill="#ffb655" stroke-width="0"/><path d="M211.22,343.68v-38.35c0-5.71,4.63-10.34,10.34-10.34h-45.26c-5.71,0-10.34,4.63-10.34,10.34v38.35c0,5.71,4.63,10.34,10.34,10.34h45.26c-5.71,0-10.34-4.63-10.34-10.34Z" fill="#ffa733" stroke-width="0"/><path d="M168.27,191.61h-25.19c-3,0-5.71-1.8-6.88-4.56-1.17-2.76-.57-5.96,1.52-8.11l10.76-11.08s.05-.05.08-.08c5.01-5.06,8.9-12.31,7.7-14.36-.38-.65-.62-.71-.82-.76-1.62-.42-4.92.79-6.59,1.79-3.51,2.16-8.09,1.05-10.26-2.46-2.16-3.51-1.05-8.13,2.47-10.29,1.55-.95,9.7-5.61,17.98-3.54,4.28,1.07,7.77,3.73,10.1,7.71,6.91,11.79-4,25.84-8.45,30.81h7.57c4.13,0,7.47,3.34,7.47,7.47,0,4.12-3.34,7.47-7.47,7.47Z" fill="#fff" stroke-width="0"/><path d="M137.73,178.94c-2.09,2.15-2.69,5.35-1.52,8.11.2.47.45.89.73,1.3,1.65-4.75,3.46-9.48,5.41-14.16l-4.62,4.75Z" fill="#dcf4ca" stroke-width="0"/><path d="M159.05,138.16c-8.28-2.07-16.43,2.59-17.98,3.54-3.51,2.16-4.63,6.77-2.47,10.29,2.16,3.51,6.74,4.62,10.26,2.46.87-.52,2.18-1.09,3.47-1.47,2.57-4.85,5.31-9.64,8.22-14.37-.49-.17-.99-.33-1.5-.46Z" fill="#dcf4ca" stroke-width="0"/><path d="M264.88,191.61h-25.19c-3,0-5.71-1.8-6.88-4.56-1.17-2.76-.57-5.96,1.52-8.11l10.76-11.08s.05-.05.08-.08c5.01-5.06,8.9-12.31,7.7-14.36-.38-.65-.62-.71-.82-.76-1.62-.42-4.92.79-6.59,1.79-3.51,2.16-8.09,1.05-10.26-2.46-2.16-3.51-1.05-8.13,2.47-10.29,1.55-.95,9.7-5.61,17.98-3.54,4.28,1.07,7.77,3.73,10.1,7.71,6.91,11.79-4,25.84-8.45,30.81h7.57c4.13,0,7.47,3.34,7.47,7.47,0,4.12-3.34,7.47-7.47,7.47Z" fill="#fff" stroke-width="0"/><path d="M216.43,164.22h-4.98v-4.98c0-4.13-3.34-7.47-7.47-7.47s-7.47,3.34-7.47,7.47v4.98h-4.98c-4.13,0-7.47,3.34-7.47,7.47s3.34,7.47,7.47,7.47h4.98v4.98c0,4.13,3.34,7.47,7.47,7.47s7.47-3.34,7.47-7.47v-4.98h4.98c4.13,0,7.47-3.34,7.47-7.47s-3.34-7.47-7.47-7.47Z" fill="#fff" stroke-width="0"/><path d="M313.53,163.38h-19.1c-4.13,0-7.47-3.34-7.47-7.47s3.34-7.47,7.47-7.47h19.1c4.13,0,7.47,3.34,7.47,7.47s-3.34,7.47-7.47,7.47Z" fill="#fff" stroke-width="0"/><path d="M313.53,187.28h-19.1c-4.13,0-7.47-3.34-7.47-7.47s3.34-7.47,7.47-7.47h19.1c4.13,0,7.47,3.34,7.47,7.47,0,4.13-3.34,7.47-7.47,7.47Z" fill="#fff" stroke-width="0"/><path d="M368.92,159.74h-1.29v-8.62c0-4.13-3.34-7.47-7.47-7.47s-7.47,3.34-7.47,7.47v8.62h-4.69v-14.44c0-4.13-3.34-7.47-7.47-7.47s-7.47,3.34-7.47,7.47v21.91c0,4.13,3.34,7.47,7.47,7.47h12.15v9.46c0,4.13,3.34,7.47,7.47,7.47s7.47-3.34,7.47-7.47v-9.46h1.29c4.13,0,7.47-3.34,7.47-7.47,0-4.13-3.34-7.47-7.47-7.47Z" fill="#fff" stroke-width="0"/></svg>