<?xml version="1.0" encoding="UTF-8"?><svg id="OBJECTS" xmlns="http://www.w3.org/2000/svg" viewBox="0 0 512 512"><path d="M106.27,36.22S27.66,168.07,68.16,447.57c0,0,171.52-6.36,338.27,60.34,0,0,3.98-278.71,77.02-391.46,0,0-185-132.69-377.17-80.23ZM74.71,278.29c3.29,0,5.96,5.98,5.96,13.36s-2.67,13.36-5.96,13.36-5.96-5.98-5.96-13.36,2.67-13.36,5.96-13.36ZM77.68,414.48c-3.29,0-5.96-5.98-5.96-13.36s2.67-13.36,5.96-13.36,5.96,5.98,5.96,13.36-2.67,13.36-5.96,13.36ZM80.66,210.71c-3.29,0-5.96-5.98-5.96-13.36s2.67-13.36,5.96-13.36,5.96,6,5.96,13.36-2.67,13.36-5.96,13.36ZM99.72,106.85c-3.29,0-5.96-5.98-5.96-13.36s2.67-13.36,5.96-13.36,5.96,5.98,5.96,13.36-2.67,13.36-5.96,13.36Z" fill="#ffbedb" stroke-width="0"/><polygon points="244.67 102.8 177.35 84.1 163.07 180 226.02 196.17 244.67 102.8" fill="none" stroke-width="0"/><polygon points="225.55 198.51 162.71 182.37 148.66 276.73 207.54 288.68 225.55 198.51" fill="none" stroke-width="0"/><polygon points="148.31 279.09 137.85 349.24 193.06 361.14 207.07 291.02 148.31 279.09" fill="none" stroke-width="0"/><polygon points="209.4 291.49 195.39 361.65 258.65 375.29 275.73 304.96 209.4 291.49" fill="none" stroke-width="0"/><polygon points="260.98 375.79 330.58 390.8 347.87 319.61 278.06 305.43 260.98 375.79" fill="none" stroke-width="0"/><polygon points="297.67 214.57 319.74 123.65 246.98 103.44 228.33 196.76 297.67 214.57" fill="none" stroke-width="0"/><polygon points="278.63 303.11 348.44 317.29 368.37 235.18 299.42 217.48 278.63 303.11" fill="none" stroke-width="0"/><polygon points="209.87 289.15 276.29 302.64 297.11 216.88 227.86 199.1 209.87 289.15" fill="none" stroke-width="0"/><polygon points="368.94 232.87 390.67 143.36 322.04 124.29 299.98 215.16 368.94 232.87" fill="none" stroke-width="0"/><path d="M420.13,334.28c.11-.79.21-1.58.32-2.37l-69.68-14.15,19.91-81.99,63.62,16.34c.17-.78.33-1.56.5-2.33l-63.56-16.32,21.73-89.47,67.35,18.71c.3-.74.59-1.49.88-2.23l-67.67-18.8,16.23-66.83c-.73-.34-1.47-.68-2.2-1.03l-16.32,67.22-68.63-19.07,18.09-74.51c-.76-.24-1.52-.49-2.28-.73l-18.11,74.6-72.86-20.24,14.46-72.39c-.78-.12-1.58-.22-2.36-.34l-14.4,72.09-67.44-18.73,8.57-57.53c-.8.03-1.61.08-2.42.12l-8.46,56.77-79.84-22.18c-.3.73-.6,1.46-.91,2.22l80.4,22.33-14.3,95.95-92.41-23.73c-.14.78-.29,1.56-.43,2.35l92.48,23.75-14.07,94.47-89.02-18.07c-.03.8-.06,1.61-.09,2.41l88.76,18.02-10.45,70.13-78.2-16.86c.03.82.06,1.64.1,2.46l77.75,16.77-14.51,97.39c.79.04,1.58.08,2.39.12l14.45-97.01,55.09,11.88-17.83,89.25c.78.08,1.59.17,2.38.26l17.78-89,63.17,13.62-20.35,83.82c.79.13,1.57.26,2.36.4l20.32-83.72,69.6,15.01-20.29,83.55c.77.2,1.54.39,2.31.59l20.31-83.64,79.43,17.13c.07-.8.13-1.59.2-2.39l-79.08-17.05,17.29-71.22,69.92,14.2ZM348.44,317.29l-69.81-14.17,20.79-85.64,68.96,17.71-19.94,82.11ZM276.29,302.64l-66.42-13.49,17.99-90.05,69.25,17.78-20.82,85.76ZM390.67,143.36l-21.74,89.51-68.96-17.71,22.06-90.87,68.63,19.07ZM319.74,123.65l-22.07,90.92-69.34-17.8,18.65-93.32,72.77,20.21ZM177.35,84.1l67.32,18.7-18.66,93.37-62.95-16.17,14.29-95.91ZM162.71,182.37l62.84,16.14-18.02,90.17-58.88-11.96,14.06-94.35ZM137.85,349.24l10.45-70.15,58.76,11.93-14.01,70.13-55.2-11.9ZM195.39,361.65l14.02-70.16,66.32,13.47-17.07,70.33-63.27-13.64ZM330.58,390.8l-69.6-15.01,17.08-70.36,69.81,14.17-17.29,71.19Z" fill="#f4e4ce" opacity=".4" stroke-width="0"/><path d="M136,29.55c-9.89,1.74-19.8,3.95-29.73,6.67,0,0-78.61,131.85-38.11,411.35,0,0,10.74-.4,29.47.05-6.57-65.94-21.27-275.69,38.38-418.07ZM99.72,80.12c3.29,0,5.96,5.98,5.96,13.36s-2.67,13.36-5.96,13.36-5.96-5.98-5.96-13.36,2.67-13.36,5.96-13.36ZM74.71,278.29c3.29,0,5.96,5.98,5.96,13.36s-2.67,13.36-5.96,13.36-5.96-5.98-5.96-13.36,2.67-13.36,5.96-13.36ZM77.68,414.48c-3.29,0-5.96-5.98-5.96-13.36s2.67-13.36,5.96-13.36,5.96,5.98,5.96,13.36-2.67,13.36-5.96,13.36ZM80.66,210.71c-3.29,0-5.96-5.98-5.96-13.36s2.67-13.36,5.96-13.36,5.96,6,5.96,13.36-2.67,13.36-5.96,13.36Z" fill="#ff80b5" stroke-width="0"/><path d="M136.37,240.4c1.45.2,2.65.37,3.6.53.95.16,1.7.27,2.25.35l1.5.2,1.73.24c.7.1,1.64.21,2.82.35,1.18.14,2.73.29,4.65.44-.93.08-1.66.2-2.19.35-.53.16-.94.34-1.23.56-.33.21-.55.46-.64.75,0,.41.09,1.06.27,1.95.15.79.45,1.87.9,3.26.45,1.39,1.15,3.27,2.1,5.64,2.43-2.11,4.3-3.8,5.59-5.05,1.3-1.25,2.27-2.21,2.92-2.89.67-.77,1.07-1.31,1.21-1.59-.02-.26-.06-.52-.12-.78-.1-.42-.38-1.1-.87-2.03,1.34.29,2.51.51,3.51.67,1,.16,1.84.32,2.54.46.79.16,1.44.27,1.94.34.55.08,1.36.16,2.41.26.86.07,2.03.16,3.52.29,1.49.13,3.37.24,5.66.35-1.98.65-3.68,1.29-5.09,1.94-1.41.65-2.59,1.24-3.53,1.77-1.1.61-2.03,1.2-2.77,1.76-.75.66-1.68,1.48-2.79,2.45-.99.88-2.2,1.98-3.62,3.29-1.43,1.31-3.17,2.95-5.23,4.91.99,2.43,1.97,4.53,2.93,6.3.95,1.76,1.79,3.23,2.49,4.4.83,1.39,1.62,2.52,2.37,3.39.75.87,1.57,1.75,2.47,2.64.76.77,1.66,1.59,2.68,2.47,1.03.88,2.15,1.69,3.38,2.41-1.32-.08-2.59-.19-3.82-.33-1.23-.14-2.33-.23-3.3-.26-1.12-.05-2.18-.12-3.18-.21-1.02-.03-2.05-.1-3.11-.2-.91-.07-1.92-.16-3.03-.26-1.11-.1-2.24-.23-3.39-.39.51-.39.92-.77,1.22-1.13.31-.37.56-.69.75-.97.25-.32.42-.63.51-.93,0-.41-.15-1.09-.48-2.06-.29-.86-.77-2.06-1.42-3.6-.66-1.54-1.64-3.66-2.96-6.34-1.32,1.04-2.38,1.97-3.18,2.78-.8.81-1.41,1.49-1.85,2.04-.5.65-.85,1.18-1.06,1.61-.16.44-.23.94-.2,1.5.03.46.11,1.02.23,1.68.11.65.38,1.34.79,2.06-2.53-.19-4.64-.4-6.34-.64l-2.55-.35c-.8-.11-1.75-.27-2.85-.47-.94-.18-2.13-.38-3.55-.6-1.43-.22-3.08-.51-4.97-.87.58-.13,1.19-.3,1.83-.51.64-.22,1.21-.42,1.69-.61.59-.22,1.16-.48,1.71-.76.61-.37,1.61-1.1,2.98-2.19,1.14-.92,2.72-2.22,4.74-3.91,2.02-1.69,4.65-3.97,7.9-6.84-1.24-3.23-2.25-5.81-3.04-7.73-.79-1.92-1.38-3.42-1.8-4.49-.49-1.24-.86-2.08-1.11-2.52-.25-.44-.59-.95-1.02-1.52-.69-.91-1.86-2.04-3.52-3.39Z" fill="#222a5c" stroke-width="0"/><path d="M188.82,247.51l8.77.82c-.57,1.15-1.03,2.19-1.39,3.14-.36.94-.64,1.76-.83,2.45-.27.83-.44,1.57-.53,2.22l-.3,2.18c-.1.7-.23,1.47-.4,2.32-.17.84-.35,1.77-.53,2.76,1.81.2,3.35.36,4.64.48,1.28.13,2.35.25,3.2.36l2.41.33c.6.08,1.21.14,1.81.17.56.03,1.16.04,1.79.05.64.01,1.27-.04,1.9-.16l-.57,6.43c-1.09-.25-2.07-.44-2.95-.56-.88-.12-1.64-.25-2.28-.39-.75-.1-1.42-.22-2.02-.35l-2.25-.31c-.75-.1-1.67-.2-2.75-.3-1.09-.1-2.36-.22-3.82-.37-.22.84-.39,1.63-.52,2.38-.13.75-.21,1.43-.24,2.03-.1.7-.13,1.36-.12,1.98-.04.66-.04,1.42,0,2.3,0,.76.01,1.68.04,2.76.03,1.07.07,2.36.13,3.84l-8.19-1.12c.38-1.32.71-2.51.99-3.58.27-1.06.5-1.93.7-2.62.22-.84.4-1.58.53-2.22.16-.79.32-1.59.48-2.38.14-.69.27-1.43.38-2.21.1-.77.18-1.52.23-2.23-1.25-.22-2.36-.39-3.34-.49-.98-.11-1.82-.19-2.53-.23-.81-.06-1.52-.1-2.12-.14-.62.02-1.3,0-2.06-.05-.67.01-1.45-.03-2.35-.13-.91-.1-1.89-.17-2.96-.21l.32-6.23c1.34.29,2.52.53,3.54.71,1.02.19,1.88.34,2.58.43l2.03.28,2.25.31,5.93.81c.18-1.3.33-2.44.43-3.42.11-.98.18-1.8.22-2.46.05-.76.08-1.37.1-1.82.02-.51,0-1.12-.05-1.84-.02-.61-.05-1.4-.1-2.35-.05-.95-.11-2.07-.19-3.36Z" fill="#222a5c" stroke-width="0"/><path d="M209.62,253.81c.98.29,1.85.52,2.62.7.76.18,1.44.34,2.04.47.64.14,1.27.25,1.87.33.55.07,1.26.15,2.12.21.71.05,1.63.11,2.77.19,1.14.08,2.49.15,4.06.21-.13.19-.41.77-.85,1.76-.44.99-.91,2.2-1.41,3.63-.5,1.44-.99,3.03-1.46,4.77-.47,1.75-.81,3.49-1.02,5.22-.21,1.73-.22,3.39-.03,4.97.19,1.58.67,2.91,1.44,3.99,1.64,2.21,3.16,3.62,4.59,4.22,1.42.6,2.72.73,3.89.38,1.17-.35,2.17-.98,3.01-1.88.84-.91,1.47-1.76,1.88-2.58,1.07-2.2,1.85-4.57,2.35-7.1.4-2.19.57-4.67.48-7.43-.08-2.77-.78-5.67-2.1-8.71,1.29.28,2.41.51,3.35.69.94.18,1.76.34,2.46.49.79.16,1.49.3,2.08.44.54.13,1.19.21,1.95.27.65.09,1.45.16,2.38.21.94.05,1.99.11,3.15.17-.47,4.94-.89,9.33-1.27,13.18-.37,3.85-.73,7.25-1.05,10.19-.33,2.94-.63,5.48-.93,7.6-.29,2.13-.54,3.92-.74,5.37-.53,3.45-.99,5.71-1.39,6.77-.61,1.5-1.54,2.95-2.78,4.36-1.24,1.41-2.72,2.62-4.44,3.64-1.72,1.01-3.64,1.72-5.76,2.12-2.12.4-4.37.33-6.75-.2-2.33-.52-4.15-1.09-5.47-1.71-1.32-.61-2.33-1.25-3.03-1.91-.7-.66-1.17-1.31-1.41-1.95-.24-.65-.4-1.29-.46-1.94s-.13-1.25-.21-1.83c-.08-.57-.31-1.09-.71-1.55-.49-.53-1-1.06-1.54-1.59-.5-.48-1.03-.96-1.6-1.44-.57-.49-1.14-.9-1.71-1.23l16.13,1.29c-.53.54-.94,1.04-1.2,1.52-.27.47-.45.88-.55,1.23-.11.44-.14.82-.08,1.14.12.63.39,1.34.82,2.14.43.8,1.04,1.47,1.83,2.01.79.54,1.79.82,2.98.83,1.2.01,2.62-.43,4.28-1.33,1.38-.78,2.64-2.16,3.78-4.15.95-1.71,1.84-4.16,2.69-7.36.85-3.2,1.36-7.49,1.54-12.88-1.33,2.98-2.88,5.19-4.66,6.63-1.78,1.44-3.5,2.43-5.15,2.97-1.92.65-3.87.87-5.83.66-2.59-.46-4.77-1.1-6.55-1.93-1.78-.83-3.19-1.83-4.26-3-1.06-1.17-1.84-2.48-2.33-3.95-.49-1.47-.77-3.08-.83-4.82-.07-1.74.02-3.48.25-5.21.23-1.73.47-3.34.7-4.84.23-1.5.43-2.86.6-4.09.17-1.23.18-2.23.03-3.02-.2-.79-.5-1.6-.89-2.42-.31-.71-.78-1.5-1.4-2.37-.62-.88-1.38-1.73-2.29-2.57Z" fill="#222a5c" stroke-width="0"/><path d="M254.98,278.62c4.42.56,7.98.99,10.69,1.31,2.71.32,4.79.55,6.25.7,1.71.18,2.94.33,3.69.43.65.09,1.68.18,3.1.27,1.21.11,2.86.27,4.95.45,2.09.18,4.83.41,8.21.67l-.7,6.79c-3.8-.57-6.94-1.04-9.41-1.41-2.48-.36-4.44-.67-5.88-.92-1.7-.28-2.99-.49-3.9-.61-.89-.17-2.15-.32-3.77-.44-1.37-.08-3.2-.2-5.5-.33-2.31-.14-5.21-.24-8.72-.32.19-.64.31-1.19.38-1.67.07-.48.12-.89.17-1.24l.14-1.05c-.02-.26,0-.54.04-.84l.25-1.81ZM292.77,275.46c-4.46-.61-8.03-1.09-10.71-1.43-2.68-.34-4.75-.61-6.2-.81l-3.68-.5c-.66-.04-1.69-.13-3.1-.27-1.21-.11-2.87-.27-4.99-.45-2.12-.19-4.84-.46-8.16-.81l.79-6.86c3.79.62,6.92,1.15,9.39,1.59s4.42.78,5.87,1.03c1.69.34,2.98.56,3.88.69.84.17,2.08.31,3.69.43,1.36.14,3.2.29,5.53.45,2.33.17,5.24.31,8.74.43-.33,1.28-.54,2.22-.62,2.82l-.14,1.05-.13.9c-.03.25-.06.53-.07.83-.02.3-.04.61-.08.91Z" fill="#222a5c" stroke-width="0"/><path d="M320.31,252.06c2.31.27,4.57,1.11,6.77,2.54,2.2,1.43,4.1,3.38,5.7,5.87,1.6,2.49,2.77,5.49,3.51,9.01.74,3.52.83,7.54.26,12.06-.36,3.01-.96,5.71-1.8,8.1-.84,2.39-1.81,4.49-2.93,6.3-1.12,1.81-2.31,3.38-3.59,4.71-1.28,1.33-2.54,2.43-3.78,3.31-1.24.88-2.41,1.54-3.49,2.01-1.08.47-1.99.75-2.72.85-.94.18-2.06.29-3.34.34-1.28.06-2.61.03-3.97-.08-1.36-.11-2.69-.37-3.99-.78-1.3-.41-2.41-.98-3.32-1.72-.92-.74-1.97-1.76-3.14-3.07-1.17-1.31-2.23-3.03-3.16-5.18-.93-2.14-1.62-4.78-2.06-7.9s-.36-6.86.24-11.22,1.65-8.19,3.15-11.51c1.5-3.32,3.33-6.05,5.49-8.21,2.16-2.15,4.61-3.69,7.37-4.62,2.76-.92,5.69-1.2,8.8-.82ZM305.89,278.55c-.46,2.95-.64,5.55-.53,7.81.1,2.26.32,4.18.66,5.76.34,1.58.74,2.85,1.2,3.8.45.95.81,1.63,1.06,2.02.24.49.75.87,1.53,1.13.78.26,1.62.44,2.53.54.9.1,1.8.09,2.68-.02.88-.11,1.57-.33,2.08-.67.28-.22.73-.79,1.35-1.73.61-.94,1.27-2.18,1.96-3.71s1.39-3.34,2.08-5.42c.69-2.07,1.28-4.33,1.77-6.76.53-2.73.87-5.28,1.04-7.63.17-2.35.22-4.42.16-6.21-.06-1.79-.21-3.29-.45-4.5-.24-1.21-.56-2.04-.96-2.5-.57-.69-1.3-1.22-2.19-1.6-.89-.38-1.8-.6-2.74-.68-.93-.07-1.83-.02-2.7.17-.87.19-1.56.5-2.08.94-1.04.88-1.98,1.82-2.84,2.83-.85,1.01-1.61,2.25-2.27,3.74-.66,1.49-1.27,3.26-1.84,5.3-.56,2.04-1.07,4.51-1.51,7.41Z" fill="#222a5c" stroke-width="0"/><path d="M122.07,337.34c1.45.2,2.65.37,3.6.53.95.16,1.7.27,2.25.35l1.5.2,1.73.24c.7.1,1.64.21,2.82.35,1.18.14,2.73.29,4.65.44-.93.08-1.66.2-2.19.35-.53.16-.94.34-1.23.56-.33.21-.55.46-.64.75,0,.41.09,1.06.27,1.95.15.79.45,1.87.9,3.26.45,1.39,1.15,3.27,2.1,5.64,2.43-2.11,4.3-3.8,5.59-5.05,1.3-1.25,2.27-2.21,2.92-2.89.67-.77,1.07-1.31,1.21-1.59-.02-.26-.06-.52-.12-.78-.1-.42-.38-1.1-.87-2.03,1.34.29,2.51.51,3.51.67,1,.16,1.84.32,2.54.46.79.16,1.44.27,1.94.34.55.08,1.36.16,2.41.26.86.07,2.03.16,3.52.29,1.49.13,3.37.24,5.66.35-1.98.65-3.68,1.29-5.09,1.94-1.41.65-2.59,1.24-3.53,1.77-1.11.61-2.03,1.2-2.77,1.76-.75.66-1.68,1.48-2.79,2.45-.99.88-2.2,1.98-3.62,3.29-1.43,1.31-3.17,2.95-5.23,4.91.99,2.43,1.97,4.53,2.93,6.3.95,1.76,1.79,3.23,2.49,4.4.83,1.39,1.62,2.52,2.37,3.39.75.87,1.57,1.75,2.47,2.64.76.77,1.66,1.59,2.68,2.47,1.03.88,2.15,1.69,3.38,2.41-1.32-.08-2.59-.19-3.82-.33-1.23-.14-2.33-.23-3.3-.26-1.12-.05-2.18-.12-3.18-.21-1.02-.03-2.05-.1-3.11-.2-.91-.07-1.92-.16-3.03-.26-1.11-.1-2.24-.23-3.39-.39.51-.39.92-.77,1.22-1.13.31-.37.56-.69.75-.97.25-.32.42-.63.51-.93,0-.41-.15-1.09-.48-2.06-.29-.86-.77-2.06-1.42-3.6-.66-1.54-1.64-3.66-2.96-6.34-1.32,1.04-2.38,1.97-3.18,2.78-.8.81-1.41,1.49-1.85,2.04-.5.65-.85,1.18-1.06,1.61-.16.44-.23.94-.2,1.5.03.46.11,1.02.23,1.68.11.65.38,1.34.79,2.06-2.53-.19-4.64-.4-6.34-.64l-2.55-.35c-.8-.11-1.75-.27-2.85-.47-.94-.18-2.13-.38-3.55-.6-1.43-.22-3.08-.51-4.97-.87.58-.13,1.19-.3,1.83-.51.64-.22,1.21-.42,1.69-.61.59-.22,1.16-.48,1.71-.76.61-.37,1.61-1.1,2.98-2.19,1.14-.92,2.72-2.22,4.74-3.91,2.02-1.69,4.65-3.97,7.9-6.84-1.24-3.23-2.25-5.81-3.04-7.73-.79-1.92-1.38-3.42-1.8-4.49-.49-1.24-.86-2.08-1.11-2.52-.25-.44-.59-.95-1.02-1.52-.69-.91-1.86-2.04-3.52-3.39Z" fill="#222a5c" stroke-width="0"/><path d="M174.53,344.45l8.77.82c-.57,1.15-1.03,2.19-1.39,3.14-.36.94-.64,1.76-.83,2.45-.27.83-.44,1.57-.53,2.22l-.3,2.18c-.1.7-.23,1.47-.4,2.32-.17.84-.35,1.77-.53,2.76,1.81.2,3.35.36,4.64.48,1.28.13,2.35.25,3.2.36l2.41.33c.6.08,1.21.14,1.81.17.56.03,1.16.04,1.79.05.64.01,1.27-.04,1.9-.16l-.57,6.43c-1.09-.25-2.07-.44-2.95-.56-.88-.12-1.64-.25-2.28-.39-.75-.1-1.42-.22-2.02-.35l-2.25-.31c-.75-.1-1.67-.2-2.75-.3-1.09-.1-2.36-.22-3.82-.37-.22.84-.39,1.63-.52,2.38-.13.75-.21,1.43-.24,2.03-.1.7-.13,1.36-.12,1.98-.04.66-.04,1.42,0,2.3,0,.76.01,1.68.04,2.76.03,1.07.07,2.36.13,3.84l-8.19-1.12c.38-1.32.71-2.51.99-3.58.27-1.06.5-1.93.7-2.62.22-.84.4-1.58.53-2.22.16-.79.32-1.59.48-2.38.14-.69.27-1.43.38-2.21.1-.77.18-1.52.23-2.23-1.25-.22-2.36-.39-3.34-.49-.98-.11-1.82-.19-2.53-.23-.81-.06-1.52-.1-2.12-.14-.62.02-1.3,0-2.06-.05-.67.01-1.45-.03-2.35-.13-.91-.1-1.89-.17-2.96-.21l.32-6.23c1.34.29,2.52.53,3.54.71,1.02.19,1.88.34,2.58.43l2.03.28,2.25.31,5.93.81c.18-1.3.33-2.44.43-3.42.11-.98.18-1.8.22-2.46.05-.76.08-1.37.1-1.82.02-.51,0-1.12-.05-1.84-.02-.61-.05-1.4-.1-2.35-.05-.95-.11-2.07-.19-3.36Z" fill="#222a5c" stroke-width="0"/><path d="M195.33,350.74c.98.29,1.85.52,2.62.7.76.18,1.44.34,2.04.47.64.14,1.27.25,1.87.33.55.07,1.26.15,2.12.21.71.05,1.63.11,2.77.19,1.14.08,2.49.15,4.06.21-.13.19-.41.77-.85,1.76-.44.99-.91,2.2-1.41,3.63-.5,1.44-.99,3.03-1.46,4.77-.47,1.75-.81,3.49-1.02,5.22-.21,1.73-.22,3.39-.03,4.97.19,1.58.67,2.91,1.44,3.99,1.64,2.21,3.16,3.62,4.59,4.22,1.42.6,2.72.73,3.89.38,1.17-.35,2.17-.98,3.01-1.88.84-.91,1.47-1.76,1.88-2.58,1.07-2.2,1.85-4.57,2.35-7.1.4-2.19.57-4.67.48-7.43-.08-2.77-.78-5.67-2.1-8.71,1.29.28,2.41.51,3.35.69.94.18,1.76.34,2.46.49.79.16,1.49.3,2.08.44.54.13,1.19.21,1.95.27.65.09,1.45.16,2.38.21.94.05,1.99.11,3.15.17-.47,4.94-.89,9.33-1.27,13.18-.37,3.85-.73,7.25-1.05,10.19-.33,2.94-.63,5.48-.93,7.6-.29,2.13-.54,3.92-.74,5.37-.53,3.45-.99,5.71-1.39,6.77-.61,1.5-1.54,2.95-2.78,4.36-1.24,1.41-2.72,2.62-4.44,3.64-1.72,1.01-3.64,1.72-5.76,2.12-2.12.4-4.37.33-6.75-.2-2.33-.52-4.15-1.09-5.47-1.71-1.32-.61-2.33-1.25-3.03-1.91-.7-.66-1.17-1.31-1.41-1.95-.24-.65-.4-1.29-.46-1.94-.07-.65-.13-1.25-.21-1.83-.08-.57-.31-1.09-.71-1.55-.49-.53-1-1.06-1.54-1.59-.5-.48-1.03-.96-1.6-1.44-.57-.49-1.14-.9-1.71-1.23l16.13,1.29c-.53.54-.94,1.04-1.2,1.52-.27.47-.45.88-.55,1.23-.11.44-.14.82-.08,1.14.12.63.39,1.34.82,2.14.43.8,1.04,1.47,1.83,2.01.79.54,1.79.82,2.98.83,1.2.01,2.62-.43,4.28-1.33,1.38-.78,2.64-2.16,3.78-4.15.95-1.71,1.84-4.16,2.69-7.36.85-3.2,1.36-7.49,1.54-12.88-1.33,2.98-2.88,5.19-4.66,6.63-1.78,1.44-3.5,2.43-5.15,2.97-1.92.65-3.87.87-5.83.66-2.59-.46-4.77-1.1-6.55-1.93-1.78-.83-3.19-1.83-4.26-3-1.06-1.17-1.84-2.48-2.33-3.95-.49-1.47-.77-3.08-.83-4.82-.07-1.74.02-3.48.25-5.21.23-1.73.47-3.34.7-4.84.23-1.5.43-2.86.6-4.09.17-1.23.18-2.23.03-3.02-.2-.79-.5-1.6-.89-2.42-.31-.71-.78-1.5-1.4-2.37-.62-.88-1.38-1.73-2.29-2.57Z" fill="#222a5c" stroke-width="0"/><path d="M270.77,365.45c-.77-.05-1.46-.11-2.13-.16l5.57-9.83-7.54-4.37-6.26,13.3c-.76-.13-1.66-.29-2.74-.51-1.45-.25-3.4-.59-5.87-1.03-2.47-.44-5.59-.97-9.39-1.59l-.79,6.86c3.32.35,6.04.62,8.16.81,2.12.19,3.78.34,4.99.45,1.41.14,2.44.23,3.1.27h.06s-3.56,7.57-3.56,7.57c-.9-.1-1.88-.22-3-.35-2.71-.32-6.28-.76-10.69-1.31l-.25,1.81c-.04.3-.06.58-.04.84l-.14,1.05c-.05.35-.1.76-.17,1.24-.07.47-.19,1.03-.38,1.67,3.51.07,6.42.18,8.72.32,1.27.08,2.39.14,3.38.2l-7.37,15.66,4.37,1.99,9.61-16.97c.83.12,1.89.29,3.18.51,1.45.25,3.41.56,5.88.92,2.48.37,5.61.83,9.41,1.41l.7-6.79c-3.38-.26-6.12-.48-8.21-.67-2.09-.18-3.74-.34-4.95-.45-1.34-.09-2.33-.17-2.99-.26l4.15-7.33c.68.09,1.39.18,2.17.28,2.68.34,6.25.82,10.71,1.43.04-.3.07-.6.08-.91.01-.3.04-.58.07-.83l.13-.9.14-1.05c.08-.6.29-1.54.62-2.82-3.51-.12-6.42-.27-8.74-.43Z" fill="#222a5c" stroke-width="0"/><path d="M306.02,349c2.31.27,4.57,1.11,6.77,2.54,2.2,1.43,4.1,3.38,5.7,5.87,1.6,2.49,2.77,5.49,3.51,9.01.74,3.52.83,7.54.26,12.05-.36,3.01-.96,5.71-1.8,8.1-.84,2.39-1.81,4.49-2.93,6.3-1.12,1.81-2.31,3.38-3.59,4.71-1.28,1.33-2.54,2.43-3.78,3.31-1.24.88-2.41,1.54-3.49,2.01-1.08.47-1.99.75-2.72.85-.94.18-2.06.29-3.34.34-1.28.06-2.61.03-3.97-.08-1.36-.11-2.69-.37-3.99-.78-1.3-.41-2.41-.98-3.32-1.72-.92-.74-1.97-1.76-3.14-3.07-1.17-1.31-2.23-3.03-3.16-5.18-.93-2.14-1.62-4.78-2.06-7.9-.44-3.12-.36-6.86.24-11.22s1.65-8.19,3.15-11.51c1.5-3.32,3.33-6.05,5.49-8.21,2.16-2.15,4.61-3.69,7.37-4.62,2.76-.92,5.69-1.2,8.8-.82ZM291.6,375.49c-.46,2.95-.64,5.55-.53,7.81.1,2.26.32,4.18.66,5.76.34,1.58.74,2.85,1.2,3.8.45.95.81,1.63,1.06,2.02.24.49.75.87,1.53,1.13.78.26,1.62.44,2.53.54.9.1,1.8.09,2.68-.02.88-.11,1.57-.33,2.08-.67.28-.22.73-.79,1.35-1.73.61-.94,1.27-2.18,1.96-3.71s1.39-3.34,2.08-5.42c.69-2.07,1.28-4.33,1.77-6.76.53-2.73.87-5.28,1.04-7.63.17-2.35.22-4.42.16-6.21-.06-1.79-.21-3.29-.45-4.5-.24-1.21-.56-2.04-.96-2.5-.57-.69-1.3-1.22-2.19-1.6-.89-.38-1.8-.6-2.74-.68-.93-.07-1.83-.02-2.7.17-.87.19-1.56.5-2.08.94-1.04.88-1.98,1.82-2.84,2.83-.85,1.01-1.61,2.25-2.27,3.74-.66,1.49-1.27,3.26-1.84,5.3-.56,2.04-1.07,4.51-1.51,7.41Z" fill="#222a5c" stroke-width="0"/><path d="M239.73,433.42c-76.79,0-114.14-29.97-124.7-40.29-12.02-11.75-18.09-24.4-17.08-35.61,3.01-33.54,67.2-39.91,69.93-40.16l.66,7.12c-.61.06-60.99,6.03-63.47,33.69-.8,8.9,4.65,19.78,14.96,29.86,11.55,11.29,56.93,47.29,155.77,36.15,48.07-5.41,77.02-20.49,79.41-41.37,1.94-16.97-14.61-36.15-38.52-44.62-48.99-17.36-157.58-1.19-158.67-1.03l-1.07-7.07c4.53-.69,111.45-16.6,162.13,1.36,27.4,9.71,45.58,31.65,43.23,52.17-1.65,14.38-14.98,39.69-85.71,47.65-13.19,1.49-25.47,2.15-36.87,2.15Z" fill="#ff80b5" stroke-width="0"/><polygon points="310.24 248.49 308.06 241.68 234.56 265.19 180.52 216.62 175.74 221.94 226.68 267.71 141.71 294.88 143.89 301.69 232.84 273.24 279.56 315.24 284.34 309.92 240.72 270.72 310.24 248.49" fill="#ff80b5" stroke-width="0"/><path d="M396.32,123.17c2.89.24,5.43.39,7.62.43,2.19.05,4.06.07,5.6.07,1.78,0,3.32-.05,4.62-.14,1.35-.14,3.11-.34,5.27-.58,1.83-.24,4.19-.57,7.08-.97,2.89-.41,6.4-.95,10.55-1.63-.53.82-.97,1.67-1.34,2.56-.36.89-.66,1.7-.9,2.42-.24.87-.46,1.71-.65,2.53-.14.92-.31,2.05-.51,3.4-.19,1.16-.42,2.61-.69,4.37-.27,1.76-.59,3.84-.97,6.25-1.44-3.76-2.9-6.65-4.37-8.67-1.47-2.02-2.83-3.51-4.08-4.48-1.44-1.11-2.82-1.73-4.12-1.88-1.88,0-3.42.36-4.62,1.08-1.21.72-2.18,1.65-2.92,2.78-.75,1.13-1.31,2.36-1.7,3.68-.39,1.33-.65,2.6-.8,3.83-.14,1.23-.24,2.31-.29,3.25-.05.94-.1,1.58-.14,1.91,1.68-.1,3.11-.22,4.26-.36,1.16-.15,2.07-.29,2.75-.43.82-.19,1.47-.39,1.95-.58.72-.38,1.44-.84,2.17-1.37.63-.48,1.29-1.06,1.99-1.73.7-.67,1.31-1.49,1.84-2.46-.29,1.73-.54,3.18-.76,4.33-.22,1.16-.4,2.07-.54,2.75-.19.82-.31,1.44-.36,1.88-.1.43-.22,1.04-.36,1.81-.14.67-.31,1.54-.5,2.6-.19,1.06-.41,2.38-.65,3.97-.58-1.01-1.18-1.84-1.81-2.49-.63-.65-1.21-1.17-1.73-1.55-.63-.43-1.23-.77-1.81-1.01-.63-.19-1.3-.38-2.02-.58-.63-.14-1.36-.3-2.2-.47-.84-.17-1.75-.32-2.71-.47.1,2.6.24,4.83.43,6.68.19,1.85.36,3.41.5,4.66.19,1.44.39,2.65.58,3.61.24.96.62,2,1.15,3.11.44.96,1.05,2.06,1.84,3.29.8,1.23,1.82,2.54,3.07,3.94-.96-.24-1.98-.41-3.03-.5-1.06-.1-2-.17-2.82-.22-1.01-.05-1.98-.05-2.89,0-.97.05-2.02.14-3.18.29-.97.1-2.07.24-3.32.43-1.25.19-2.58.41-3.97.65.82-.82,1.49-1.64,2.02-2.46.53-.82.91-1.54,1.16-2.17.29-.72.48-1.42.58-2.09.05-.58.07-1.84.07-3.79s-.03-4.24-.07-6.86c-.05-2.62-.12-5.41-.22-8.34-.1-2.94-.19-5.69-.29-8.27-.1-2.58-.21-4.78-.33-6.61-.12-1.83-.25-2.94-.4-3.32-.19-.48-.41-1.04-.65-1.66-.39-1.01-1.18-2.48-2.38-4.41Z" fill="#ff80b5" stroke-width="0"/><path d="M398.58,187.67c-7.7,0-15.7-1.93-20.64-6.29-4.18-3.68-5.86-8.83-4.86-14.89,1.83-10.97,9.94-21.36,19.74-25.28l.88,2.21c-9.06,3.62-16.58,13.27-18.27,23.45-.87,5.28.51,9.55,4.09,12.71,6.86,6.05,20.89,6.91,29.97,4.22,23.5-6.82,39.28-27.27,38.37-49.73-.22-8.7-5.06-19.14-15.17-21.55-9.87-2.47-17.75,3.37-23.52,8.73l-1.62-1.74c5.73-5.32,14.63-12.07,25.7-9.3,11.32,2.7,16.74,14.22,16.98,23.78.95,23.54-15.53,44.96-40.08,52.09-3.44,1.02-7.47,1.57-11.57,1.57Z" fill="#ff80b5" stroke-width="0"/><path d="M263.49,193.23c-2.04,0-4-.3-5.89-.91-10.21-3.29-14.13-14.27-14.3-14.73l2.25-.78c.04.1,3.72,10.34,12.8,13.26,6.48,2.09,14.19.03,22.91-6.1,5.33-3.74,10.66-8.12,15.83-12.35,13.65-11.19,26.54-21.76,36.48-18.06,6.66,2.48,11.2,11.12,13.86,26.41l-2.34.41c-2.51-14.39-6.55-22.43-12.35-24.59-8.65-3.21-21.04,6.93-34.14,17.67-5.2,4.26-10.57,8.66-15.97,12.45-6.94,4.87-13.35,7.32-19.15,7.32Z" fill="#222a5c" stroke-width="0"/><path d="M345.54,193.3c-7.9,0-16.82-7.07-17.28-7.44l1.49-1.86c.13.1,12.58,9.98,19.72,5.97,4.77-2.68,6.34-11.44,4.55-25.34l2.36-.3c1.95,15.16.02,24.48-5.75,27.72-1.57.88-3.31,1.25-5.1,1.25Z" fill="#222a5c" stroke-width="0"/><path d="M244.43,106.84c0,17.06-10.13,30.89-22.63,30.89s-22.63-13.83-22.63-30.89,10.13-30.89,22.63-30.89,22.63,13.83,22.63,30.89Z" fill="#f4e4ce" stroke-width="0"/><path d="M235.7,126.77c0,4.82-4.53,8.74-10.12,8.74s-10.12-3.91-10.12-8.74,4.53-8.73,10.12-8.73,10.12,3.91,10.12,8.73Z" fill="#222a5c" stroke-width="0"/><path d="M314.71,108.01c0,31.19-14.67,56.48-32.75,56.48s-32.75-25.29-32.75-56.48,14.67-56.48,32.75-56.48,32.75,25.29,32.75,56.48Z" fill="#f4e4ce" stroke-width="0"/><path d="M276.99,139.87c0,4.82-4.53,8.74-10.12,8.74s-10.12-3.91-10.12-8.74,4.53-8.73,10.12-8.73,10.12,3.91,10.12,8.73Z" fill="#222a5c" stroke-width="0"/><path d="M237.18,80.19c-19.48,0-46.95-25.75-52.89-31.54l8.32-8.52c16.59,16.18,39.25,31.38,46.96,27.72,3.22-1.53,4.6-8.61,3.69-18.95l11.86-1.05c.54,6.13,2.19,24.76-10.45,30.76-2.3,1.09-4.82,1.57-7.5,1.57Z" fill="#222a5c" stroke-width="0"/><path d="M306.49,59.65c-5.74,0-11.18-1.08-16.28-3.25-26.96-11.44-33.51-48.75-33.77-50.33l11.75-1.98c.06.32,5.77,32.51,26.72,41.37,12.57,5.32,28.73,1.3,48.01-11.93l6.74,9.82c-15.82,10.86-30.27,16.31-43.16,16.31Z" fill="#222a5c" stroke-width="0"/></svg>