<?xml version="1.0" encoding="UTF-8"?><svg xmlns="http://www.w3.org/2000/svg" viewBox="0 0 512 512"><g isolation="isolate"><g id="OBJECTS"><path d="M47.59,308.03c10.29-36.03,58.4-38.26,38.26-82.56-14.1-34.24-53.36-49.34-49.33-91.62,5.04-42.29,51.35-79.54,94.64-77.53,42.29,2.01,51.35,63.43,93.64,64.44,37.26,1.01,62.43-52.36,91.62-69.47,45.31-25.17,103.7-13.09,128.88,34.23,22.15,39.27,0,78.54-8.05,118.81-7.05,29.2,2.01,54.37,26.18,73.5,23.16,18.12,57.4,32.22,41.28,68.46-16.11,36.25-52.36,61.42-89.61,70.48-39.23,9.54-218.98,5.16-330.25-51.34-31.41-15.95-43.29-36.25-37.25-57.4Z" fill="#054379" stroke-width="0"/><g opacity=".5"><path d="M128.13,195.26c-10.07-30.21-18.12-63.44-39.26-87.6-7.54-8.86-18.39-14.61-29.3-19.98-11,11.64-19.01,25.64-22.09,40.47,9.97,11.26,20.4,21.22,23.2,24.82,22.15,30.2,39.27,69.47,52.36,102.7,13.09,34.23,13.09,70.48,12.08,106.72-.34,7.07-.48,13.77-.32,20.2,19.68,7.18,40.5,13.15,61.61,18.07-3.52-11.91-6.69-23.85-9.95-35.25-15.1-57.39-31.21-113.78-48.33-170.16Z" fill="#025c99" stroke-width="0"/><path d="M392.93,219.42c-23.15-53.36-32.22-100.69-27.18-159.08.34-5.09,1.6-13.05,2.53-21.83-16.66-.48-33.75,3.32-49.4,11.47-.7,33.32,11.11,70.78,18.68,96.95,17.11,59.4,45.3,114.78,62.42,174.19,8.2,29.05,27.95,58.11,36.05,88.79,26.71-11.06,50.88-30.39,64.85-55.94-53.03-25.12-85.37-82.44-107.95-134.54Z" fill="#025c99" stroke-width="0"/><path d="M306.34,233.52c-5.04-49.33-1-95.65,2.01-143.98.55-9.32,1.68-21.63.33-32.87-19.79,15.81-38.34,45.08-60.97,57.86,13.84,32.59,36.36,65.42,26.42,95.83-9.06,24.16-36.25,27.18-54.37,11.07-26.18-24.17-23.16-58.4-23.16-90.62,0-4.7.31-12.2.6-21.18-20.61-17.12-33.49-48.4-61.42-52.83-8.63,24.9-9.66,55.06-9.66,78.04,0,45.31,12.09,89.61,33.22,130.89,24.17,44.3,57.4,83.57,86.59,124.85,2.81,4.21,8.83,12.81,15.71,23.45,31.47,4.02,61.31,6.02,86.57,6.54-9.31-21.14-15.63-45.1-20.73-64.22-11.07-40.28-16.11-81.55-21.15-122.84Z" fill="#025c99" stroke-width="0"/></g><path d="M97.48,324.34c-4.16.09-8.36-.35-12.52-.38-.08,0-.16,0-.24,0,1.61-1.58,3.21-3.15,4.79-4.7,1.14-1.11-.71-2.74-1.85-1.63-1.82,1.77-3.64,3.58-5.48,5.38.01-3.01.15-6.02.28-9,.08-1.59-2.38-1.45-2.46.12-.12,2.65-.17,5.3-.2,7.95-1.19-1.26-2.3-2.59-3.2-4.04-.84-1.35-2.89.01-2.05,1.36.97,1.57,2.19,3,3.5,4.36-4.34-.19-8.7-.5-12.98-.87-1.57-.14-2.1,2.27-.52,2.41,4.73.41,9.51.68,14.28.89-1.95,1.8-3.93,3.54-6,5.13-1.25.97.11,3.03,1.37,2.05,1.97-1.53,3.88-3.17,5.75-4.89.28,2.65.85,5.54.17,7.96-.43,1.53,1.98,2.04,2.41.52.75-2.66,0-5.61-.21-8.3-.01-.22-.01-.44-.02-.65,1.79,1.8,3.63,3.64,5.66,5.1,1.28.92,2.93-.92,1.64-1.84-1.94-1.39-3.66-3.18-5.38-4.85,4.43.15,8.96.49,13.38.39,1.59-.04,1.46-2.5-.12-2.46Z" fill="#fff" stroke-width="0"/><path d="M441.74,369.48c-4.16.09-8.36-.35-12.52-.38-.08,0-.16,0-.24,0,1.61-1.57,3.21-3.15,4.79-4.7,1.14-1.11-.71-2.74-1.84-1.63-1.82,1.76-3.64,3.58-5.49,5.38.01-3.01.15-6.02.29-8.99.08-1.59-2.39-1.45-2.47.12-.12,2.65-.17,5.3-.19,7.95-1.19-1.27-2.31-2.6-3.2-4.04-.84-1.35-2.89.01-2.06,1.37.97,1.56,2.2,2.99,3.5,4.35-4.34-.19-8.7-.5-12.98-.87-1.56-.14-2.1,2.27-.52,2.41,4.73.41,9.51.68,14.28.88-1.95,1.8-3.94,3.54-6,5.14-1.25.97.11,3.03,1.37,2.05,1.97-1.53,3.88-3.17,5.75-4.89.28,2.65.85,5.54.17,7.96-.43,1.54,1.97,2.04,2.41.52.75-2.66,0-5.61-.2-8.3-.01-.21-.01-.44-.03-.65,1.79,1.79,3.63,3.64,5.66,5.1,1.28.92,2.93-.92,1.64-1.85-1.94-1.39-3.66-3.18-5.37-4.85,4.43.15,8.95.49,13.38.39,1.59-.04,1.46-2.5-.13-2.46Z" fill="#fff" stroke-width="0"/><path d="M341.93,87.01c-2.68.06-5.38-.22-8.06-.24-.05,0-.1,0-.15,0,1.04-1.01,2.06-2.03,3.09-3.02.73-.71-.46-1.76-1.19-1.05-1.17,1.14-2.34,2.31-3.53,3.46,0-1.93.1-3.88.18-5.79.05-1.02-1.54-.94-1.59.08-.08,1.71-.11,3.41-.13,5.12-.77-.82-1.49-1.67-2.06-2.6-.54-.87-1.86.01-1.32.88.62,1.01,1.41,1.93,2.25,2.8-2.8-.12-5.6-.32-8.36-.56-1-.09-1.35,1.47-.33,1.55,3.04.26,6.12.44,9.19.57-1.26,1.16-2.53,2.28-3.86,3.31-.8.62.07,1.95.88,1.32,1.27-.98,2.5-2.04,3.7-3.14.19,1.71.56,3.57.12,5.12-.28.99,1.27,1.31,1.55.34.48-1.71,0-3.61-.13-5.35,0-.14,0-.28-.02-.42,1.15,1.16,2.34,2.34,3.65,3.29.82.59,1.88-.59,1.05-1.19-1.25-.89-2.36-2.05-3.46-3.12,2.85.1,5.76.32,8.61.25,1.02-.02.95-1.61-.08-1.59Z" fill="#fff" stroke-width="0"/><path d="M367.91,64.9c-1.96.04-3.93-.16-5.89-.18h-.11c.75-.74,1.51-1.48,2.25-2.21.54-.52-.34-1.29-.87-.77-.85.83-1.71,1.68-2.58,2.53,0-1.41.07-2.83.14-4.23.03-.75-1.12-.69-1.16.06-.06,1.25-.09,2.49-.09,3.74-.56-.6-1.09-1.22-1.51-1.9-.4-.64-1.36,0-.97.64.45.74,1.03,1.41,1.64,2.05-2.04-.09-4.09-.23-6.1-.41-.74-.07-.99,1.07-.24,1.13,2.23.2,4.47.32,6.71.42-.91.85-1.85,1.66-2.82,2.41-.58.45.05,1.42.64.97.93-.72,1.82-1.49,2.71-2.3.13,1.25.4,2.6.08,3.74-.2.72.93.96,1.13.24.35-1.25,0-2.64-.1-3.91,0-.1,0-.21,0-.31.84.84,1.7,1.71,2.66,2.4.6.43,1.38-.43.77-.87-.91-.65-1.72-1.49-2.53-2.28,2.08.07,4.21.23,6.29.18.75-.01.69-1.18-.06-1.16Z" fill="#fff" stroke-width="0"/><path d="M478.1,322.06c-2.67.06-5.38-.22-8.06-.25-.05,0-.1,0-.15,0,1.03-1.01,2.06-2.03,3.09-3.02.73-.72-.46-1.77-1.19-1.05-1.16,1.13-2.34,2.31-3.53,3.46,0-1.93.1-3.88.18-5.79.05-1.03-1.54-.93-1.58.07-.08,1.71-.12,3.41-.13,5.12-.77-.81-1.49-1.67-2.06-2.6-.54-.87-1.86,0-1.32.88.62,1.01,1.41,1.93,2.25,2.81-2.8-.13-5.6-.32-8.35-.56-1.01-.09-1.36,1.47-.33,1.55,3.04.26,6.12.43,9.19.57-1.26,1.16-2.54,2.27-3.87,3.3-.8.62.07,1.95.88,1.32,1.27-.98,2.5-2.04,3.71-3.15.18,1.71.55,3.57.11,5.13-.28.99,1.27,1.32,1.55.34.49-1.71,0-3.61-.13-5.35,0-.14,0-.28-.02-.42,1.15,1.15,2.34,2.35,3.64,3.29.83.59,1.89-.59,1.05-1.19-1.25-.9-2.35-2.05-3.46-3.12,2.85.09,5.76.31,8.61.25,1.02-.02.94-1.61-.08-1.58Z" fill="#fff" stroke-width="0"/><path d="M122.61,84.71c-2.67.06-5.38-.22-8.06-.24-.05,0-.1,0-.15,0,1.04-1.01,2.07-2.03,3.09-3.02.73-.71-.46-1.76-1.19-1.05-1.17,1.13-2.35,2.3-3.53,3.46,0-1.94.1-3.88.18-5.79.05-1.03-1.54-.94-1.59.07-.08,1.71-.11,3.41-.12,5.12-.77-.82-1.49-1.67-2.06-2.6-.54-.87-1.86,0-1.32.88.62,1.01,1.41,1.93,2.25,2.8-2.8-.12-5.6-.32-8.36-.56-1.01-.09-1.35,1.47-.33,1.55,3.05.27,6.12.43,9.2.56-1.26,1.16-2.53,2.28-3.87,3.31-.8.63.07,1.95.88,1.32,1.27-.98,2.5-2.04,3.7-3.15.19,1.71.55,3.57.11,5.12-.28.99,1.28,1.32,1.55.34.48-1.72,0-3.61-.13-5.35,0-.14,0-.28-.02-.42,1.15,1.16,2.34,2.34,3.65,3.29.83.59,1.89-.59,1.05-1.19-1.24-.89-2.36-2.04-3.46-3.12,2.85.09,5.76.31,8.61.25,1.02-.02.94-1.61-.08-1.59Z" fill="#fff" stroke-width="0"/><path d="M423.8,326.34c-2.67.06-5.38-.22-8.07-.24-.05,0-.1,0-.15,0,1.03-1.01,2.07-2.03,3.09-3.02.74-.72-.45-1.76-1.19-1.05-1.17,1.13-2.34,2.3-3.53,3.46,0-1.93.09-3.88.18-5.79.04-1.03-1.54-.94-1.59.07-.08,1.7-.11,3.41-.13,5.12-.77-.82-1.48-1.67-2.06-2.6-.54-.87-1.86,0-1.32.88.62,1.01,1.41,1.93,2.25,2.8-2.8-.12-5.6-.32-8.36-.56-1.01-.09-1.35,1.46-.33,1.55,3.05.27,6.12.43,9.19.57-1.25,1.16-2.53,2.28-3.86,3.31-.8.62.07,1.96.88,1.32,1.27-.99,2.5-2.04,3.7-3.15.19,1.71.55,3.57.12,5.12-.28.99,1.27,1.32,1.54.34.49-1.72,0-3.61-.13-5.35,0-.14,0-.28-.01-.42,1.15,1.16,2.34,2.34,3.64,3.29.83.59,1.89-.59,1.05-1.19-1.25-.9-2.36-2.05-3.46-3.12,2.85.09,5.77.31,8.61.25,1.02-.02.95-1.61-.08-1.59Z" fill="#fff" stroke-width="0"/><path d="M92.67,105.53c-4.16.09-8.35-.35-12.52-.38-.08,0-.15,0-.24,0,1.61-1.57,3.21-3.15,4.79-4.7,1.14-1.11-.71-2.74-1.84-1.63-1.82,1.76-3.64,3.58-5.48,5.38,0-3.01.15-6.02.28-8.99.07-1.59-2.39-1.45-2.47.12-.12,2.65-.17,5.29-.19,7.95-1.19-1.27-2.31-2.6-3.2-4.04-.84-1.35-2.9.01-2.06,1.37.97,1.56,2.2,2.99,3.5,4.35-4.34-.19-8.7-.5-12.98-.87-1.56-.14-2.1,2.27-.52,2.41,4.73.41,9.51.68,14.28.88-1.95,1.8-3.94,3.54-6,5.14-1.25.97.1,3.03,1.36,2.05,1.97-1.53,3.88-3.18,5.75-4.89.28,2.65.85,5.54.17,7.96-.43,1.53,1.98,2.04,2.41.52.75-2.66,0-5.61-.2-8.3-.01-.21-.01-.44-.03-.65,1.79,1.79,3.63,3.64,5.66,5.1,1.28.92,2.94-.92,1.64-1.84-1.94-1.39-3.66-3.18-5.38-4.84,4.43.14,8.95.49,13.37.39,1.6-.03,1.47-2.5-.12-2.46Z" fill="#fff" stroke-width="0"/><path d="M292.9,385.37c-4.03,0-4.03,6.24,0,6.24s4.03-6.24,0-6.24Z" fill="#025c99" stroke-width="0"/><path d="M318.18,388.64c-4.39,0-8.05,3.66-8.05,8.05s3.66,8.04,8.05,8.04,8.04-3.66,8.04-8.04-3.66-8.05-8.04-8.05Z" fill="#025c99" stroke-width="0"/><path d="M319.25,366.37c2.37,0,4.34-1.97,4.34-4.34s-1.97-4.33-4.34-4.33-4.34,1.97-4.34,4.33,1.97,4.34,4.34,4.34Z" fill="#025c99" stroke-width="0"/><path d="M340.27,352.29c-1.24,0-2.26,1.03-2.26,2.26s1.02,2.27,2.26,2.27,2.26-1.03,2.26-2.27-1.03-2.26-2.26-2.26Z" fill="#025c99" stroke-width="0"/><path d="M349.23,375.59c-1.02-.28-2.24.16-2.75,1.11-.41.79-.53,1.72-.03,2.51,0,0,0,0,0,.02.58.93,1.68,1.42,2.76,1.12,1.01-.28,1.85-1.28,1.8-2.36v-.06c-.06-1.09-.7-2.04-1.79-2.34Z" fill="#025c99" stroke-width="0"/><path d="M369.86,390.14c-5.72,0-5.72,8.87,0,8.87s5.72-8.87,0-8.87Z" fill="#025c99" stroke-width="0"/><path d="M380.32,359.19c-.96,0-1.76.8-1.76,1.76s.8,1.75,1.76,1.75,1.76-.8,1.76-1.75-.8-1.76-1.76-1.76Z" fill="#025c99" stroke-width="0"/><path d="M415.55,371.76c-4.09,0-7.51,3.42-7.51,7.51s3.41,7.51,7.51,7.51,7.51-3.42,7.51-7.51-3.41-7.51-7.51-7.51Z" fill="#025c99" stroke-width="0"/><path d="M371.88,338.05c0-2.83-2.37-5.19-5.2-5.19s-5.19,2.37-5.19,5.19,2.37,5.2,5.19,5.2,5.2-2.36,5.2-5.2Z" fill="#025c99" stroke-width="0"/><path d="M372.27,50.65c-2.13-3.41,3.15-6.73,5.29-3.32,2.14,3.41-3.15,6.73-5.29,3.32Z" fill="#025c99" stroke-width="0"/><path d="M388.47,70.33c-2.33-3.71-1.17-8.76,2.54-11.09,3.72-2.33,8.76-1.18,11.09,2.54,2.33,3.72,1.18,8.76-2.53,11.09-3.72,2.33-8.77,1.18-11.1-2.54Z" fill="#025c99" stroke-width="0"/><path d="M370.18,83.08c1.26,2.01.63,4.72-1.37,5.98-2,1.26-4.72.63-5.98-1.37-1.26-2-.63-4.72,1.37-5.97,2-1.26,4.72-.63,5.97,1.37Z" fill="#025c99" stroke-width="0"/><path d="M369.42,108.36c-.66-1.05-.33-2.46.71-3.12,1.04-.65,2.46-.33,3.11.71.66,1.05.34,2.46-.71,3.12-1.04.66-2.47.33-3.12-.71Z" fill="#025c99" stroke-width="0"/><path d="M393.92,103.57c-.77-.71-1.06-1.98-.51-2.92.44-.77,1.17-1.36,2.1-1.36h.02c1.11,0,2.1.67,2.42,1.75.3,1-.1,2.24-1.04,2.77-.02,0-.03.02-.05.03-.95.53-2.1.49-2.93-.27Z" fill="#025c99" stroke-width="0"/><path d="M417.21,113.32c-3.04-4.85,4.47-9.56,7.51-4.72,3.04,4.85-4.48,9.56-7.51,4.72Z" fill="#025c99" stroke-width="0"/><path d="M396.55,138.63c-.51-.81-.26-1.91.56-2.42.81-.51,1.91-.26,2.42.56.51.81.26,1.92-.56,2.42-.81.51-1.91.25-2.42-.56Z" fill="#025c99" stroke-width="0"/><path d="M425.92,161.79c-2.17-3.47-1.09-8.17,2.37-10.35,3.47-2.17,8.18-1.1,10.35,2.37,2.18,3.47,1.09,8.18-2.37,10.35-3.47,2.17-8.17,1.1-10.35-2.37Z" fill="#025c99" stroke-width="0"/><path d="M374.15,142.7c-2.4,1.5-5.66.76-7.17-1.64-1.5-2.4-.76-5.66,1.64-7.16,2.4-1.51,5.66-.76,7.16,1.64,1.5,2.4.76,5.66-1.64,7.16Z" fill="#025c99" stroke-width="0"/><path d="M91.26,262.31c-2.13-3.41,3.15-6.73,5.29-3.32,2.14,3.41-3.15,6.73-5.29,3.32Z" fill="#025c99" stroke-width="0"/><path d="M107.46,281.99c-2.33-3.72-1.17-8.76,2.54-11.09,3.71-2.33,8.76-1.18,11.08,2.54,2.33,3.72,1.18,8.76-2.53,11.09-3.72,2.33-8.77,1.18-11.09-2.54Z" fill="#025c99" stroke-width="0"/><path d="M89.17,294.74c1.26,2.01.63,4.72-1.37,5.98-2.01,1.26-4.72.63-5.98-1.37-1.26-2-.63-4.72,1.37-5.98,2-1.25,4.72-.63,5.97,1.37Z" fill="#025c99" stroke-width="0"/><path d="M88.41,320.02c-.66-1.04-.33-2.46.71-3.12,1.05-.66,2.46-.33,3.12.72.66,1.04.33,2.46-.71,3.12-1.04.65-2.46.33-3.12-.72Z" fill="#025c99" stroke-width="0"/><path d="M112.91,315.23c-.77-.71-1.06-1.98-.52-2.92.44-.77,1.17-1.36,2.1-1.36h.02c1.1,0,2.1.67,2.42,1.74.3,1-.11,2.24-1.04,2.77-.02,0-.03.02-.05.03-.95.53-2.1.49-2.93-.27Z" fill="#025c99" stroke-width="0"/><path d="M136.19,324.98c-3.04-4.84,4.48-9.56,7.51-4.71,3.04,4.84-4.48,9.56-7.51,4.71Z" fill="#025c99" stroke-width="0"/><path d="M115.54,350.29c-.51-.81-.26-1.91.55-2.42.81-.51,1.92-.26,2.42.56.51.81.26,1.91-.55,2.42-.81.51-1.92.26-2.42-.56Z" fill="#025c99" stroke-width="0"/><path d="M144.91,373.45c-2.17-3.46-1.1-8.17,2.37-10.35,3.47-2.17,8.18-1.1,10.35,2.37,2.17,3.47,1.09,8.17-2.38,10.35-3.47,2.17-8.17,1.1-10.35-2.37Z" fill="#025c99" stroke-width="0"/><path d="M93.14,354.36c-2.4,1.5-5.66.76-7.16-1.64-1.51-2.4-.76-5.66,1.64-7.16,2.4-1.51,5.66-.76,7.16,1.64,1.5,2.4.76,5.66-1.64,7.16Z" fill="#025c99" stroke-width="0"/><path d="M394.95,140.66c-.55-2.77-4.42-14.57-5.81-15.86-8.68-8.05-205.51-41.48-225.18-39.63-20.93,1.98-22.92,104.7-22.92,104.7,0,0-55.76,204.45-54.52,216.22.13,1.24,5.09,14.87,5.81,15.86,6.99,9.56,231.7,60.72,240.38,50.18,8.68-10.53,53.28-227.37,53.28-227.37,0,0,12.81-84.72,8.97-104.11Z" fill="#136849" stroke-width="0"/><path d="M163.96,85.18c-20.93,1.98-22.92,104.7-22.92,104.7,0,0-55.76,204.45-54.52,216.22,1.24,11.77,231.7,60.71,240.38,50.18,8.67-10.53,53.27-227.37,53.27-227.37,0,0,15.72-97.84,8.97-104.11-8.68-8.05-205.51-41.48-225.18-39.63Z" fill="#4dc18a" stroke-width="0"/><path d="M239.38,239.36c34.23-11.07,68.47-5.03,102.69-12.08,24.17-5.03,6.04-11.07-9.06-14.09-18.12-3.02-36.25-5.03-54.37-7.05-38.26-5.04-98.76-14.89-116.54-35.73-11.35-21.27,3.6-63.14,17.37-84.33-7.57-.8-13.01-1.14-15.53-.9-20.93,1.98-22.92,104.7-22.92,104.7,0,0-55.76,204.45-54.52,216.22.26,2.49,10.83,6.66,27.37,11.56,7.98-48.9,24.98-100.6,54.02-134,19.13-21.14,45.31-36.25,71.48-44.3Z" fill="#6fd1a5" stroke-width="0"/><path d="M173.11,116.37c-5.52.69-11.13,35.4-6.22,37.64,4.91,2.23,189.93,47.27,194.84,43.44,1.01-.79,7.23-8.52,8.13-11.11,3.47-9.98,5.73-29.82,3.64-32.2-2.62-3-192.85-38.71-200.39-37.77Z" fill="#136849" stroke-width="0"/><path d="M172.9,122.17c-5.38.69-10.85,35.41-6.06,37.64,4.78,2.23,190.1,41.46,194.88,37.64,4.78-3.83,8.93-34.5,6.38-37.51-2.55-3-187.86-38.71-195.2-37.77Z" fill="#c9f1f3" stroke-width="0"/><g mix-blend-mode="multiply"><path d="M223.6,130.4c-14.85,10.17-29.25,21.17-43.08,32.77,2.97.67,6.35,1.42,10.08,2.25,13.75-11.6,27.66-22.98,42.12-33.33-3.11-.58-6.15-1.14-9.11-1.68Z" fill="#c9f1f3" stroke-width="0"/><path d="M310.23,189.9c2.46.46,4.86.91,7.21,1.34,15.28-11.42,30.52-22.91,46.99-32.55-1.16-.31-2.61-.67-4.26-1.07-16.84,10.4-33.9,20.61-49.94,32.27Z" fill="#c9f1f3" stroke-width="0"/><path d="M290.37,143.1c-14.47,10.9-28.56,22.47-41.99,34.56,8.76,1.8,17.69,3.62,26.5,5.38,13.36-12.74,27.38-24.86,42.73-34.5-8.57-1.74-17.77-3.57-27.24-5.43Z" fill="#c9f1f3" stroke-width="0"/></g><path d="M157.36,206.44c-5.35,2.21-11.34,33.38-6.93,36.53,4.41,3.15,28.02,7.88,32.44,4.73,4.41-3.15,10.71-30.86,8.19-34.64-2.52-3.78-29.9-8.18-33.7-6.61Z" fill="#136849" stroke-width="0"/><path d="M153.72,207.93c-5.35,2.2-11.34,33.38-6.93,36.53,4.41,3.15,28.03,7.87,32.44,4.73,4.41-3.15,10.71-30.87,8.19-34.65-2.52-3.78-29.9-8.18-33.7-6.61Z" fill="#f9b149" stroke-width="0"/><path d="M152.84,207.89c-4.8,1.94-10.17,29.43-6.21,32.22,3.95,2.78,25.14,6.94,29.09,4.17,3.95-2.78,9.61-27.22,7.34-30.55-2.26-3.34-26.82-7.21-30.22-5.83Z" fill="#ffd68b" stroke-width="0"/><path d="M153.51,214.43c-4.38,4.32-5.48,10.39-5.72,16.32-.1,2.57,3.88,2.56,3.98,0,.19-4.86.94-9.95,4.55-13.51,1.83-1.8-.98-4.61-2.81-2.81h0Z" fill="#fff" stroke-width="0"/><path d="M156.58,211.85v.16c0,2.57,3.97,2.57,3.97,0v-.16c0-2.57-3.97-2.57-3.97,0h0Z" fill="#fff" stroke-width="0"/><path d="M207.71,218.75c-5.16,2.62-8.67,34.18-4.03,36.97,4.64,2.79,28.56,5.64,32.71,2.15,4.15-3.49,8.25-31.61,5.44-35.18-2.81-3.57-30.45-5.8-34.12-3.94Z" fill="#136849" stroke-width="0"/><path d="M204.2,220.52c-5.17,2.62-8.68,34.17-4.03,36.97,4.65,2.79,28.56,5.64,32.71,2.16,4.15-3.49,8.24-31.61,5.43-35.18-2.81-3.57-30.45-5.8-34.11-3.94Z" fill="#f9b149" stroke-width="0"/><path d="M203.32,220.55c-4.63,2.32-7.82,30.15-3.65,32.61,4.16,2.45,25.61,4.94,29.32,1.86,3.73-3.08,7.43-27.89,4.92-31.03-2.52-3.15-27.3-5.07-30.59-3.43Z" fill="#ffd68b" stroke-width="0"/><path d="M204.51,227.02c-4.03,4.65-4.65,10.79-4.42,16.72.11,2.56,4.07,2.24,3.97-.31-.19-4.86.15-9.99,3.48-13.83,1.68-1.94-1.35-4.52-3.02-2.58h0Z" fill="#fff" stroke-width="0"/><path d="M207.35,224.21c0,.05,0,.11.01.16.2,2.56,4.17,2.24,3.96-.31,0-.06,0-.11-.01-.17-.2-2.55-4.16-2.24-3.96.32h0Z" fill="#fff" stroke-width="0"/><path d="M260.65,226.85c-5.41,2.07-12.18,33.09-7.85,36.35,4.33,3.26,27.82,8.58,32.31,5.54,4.49-3.04,11.49-30.58,9.07-34.42-2.43-3.84-29.69-8.94-33.52-7.47Z" fill="#136849" stroke-width="0"/><path d="M256.97,228.24c-5.41,2.07-12.18,33.09-7.85,36.35,4.33,3.26,27.82,8.58,32.31,5.55,4.49-3.04,11.49-30.58,9.07-34.43-2.43-3.84-29.69-8.93-33.52-7.47Z" fill="#f9b149" stroke-width="0"/><path d="M256.09,228.18c-4.85,1.82-10.91,29.17-7.03,32.05,3.88,2.87,24.95,7.58,28.98,4.9,4.03-2.68,10.29-26.97,8.12-30.36-2.18-3.39-26.63-7.88-30.07-6.59Z" fill="#ffd68b" stroke-width="0"/><path d="M256.6,234.75c-4.49,4.2-5.74,10.25-6.13,16.17-.17,2.56,3.8,2.65,3.97.1.31-4.85,1.19-9.92,4.9-13.39,1.87-1.75-.87-4.63-2.74-2.88h0Z" fill="#fff" stroke-width="0"/><path d="M259.72,232.24v.16c-.07,2.57,3.91,2.66,3.97.1,0-.06,0-.11,0-.17.07-2.56-3.91-2.66-3.97-.1h0Z" fill="#fff" stroke-width="0"/><path d="M311.35,237.51c-5.41,2.07-12.18,33.08-7.85,36.35,4.33,3.26,44.95,13.11,49.44,10.08,4.48-3.04,11.48-30.58,9.06-34.42-2.42-3.84-46.81-13.47-50.65-12Z" fill="#136849" stroke-width="0"/><path d="M307.67,238.91c-5.41,2.07-12.18,33.09-7.85,36.35,4.33,3.26,43.85,13.12,48.33,10.08,4.49-3.04,11.49-30.59,9.07-34.43-2.42-3.84-45.71-13.47-49.55-12Z" fill="#f9b149" stroke-width="0"/><path d="M306.8,238.85c-4.85,1.82-10.92,29.17-7.03,32.05,3.88,2.87,41.58,12.88,45.6,10.21,4.03-2.68,10.29-26.97,8.12-30.36-2.17-3.39-43.25-13.19-46.68-11.9Z" fill="#ffd68b" stroke-width="0"/><path d="M307.3,245.41c-4.49,4.2-5.74,10.25-6.13,16.17-.16,2.56,3.81,2.65,3.98.1.31-4.85,1.19-9.92,4.89-13.39,1.88-1.75-.86-4.63-2.74-2.88h0Z" fill="#fff" stroke-width="0"/><path d="M310.42,242.9v.17c-.06,2.56,3.91,2.66,3.97.1,0-.06,0-.11,0-.16.06-2.56-3.92-2.67-3.98-.1h0Z" fill="#fff" stroke-width="0"/><path d="M298.69,286.69c-5.33,2.25-11.03,33.49-6.59,36.59,4.44,3.11,45.37,11.56,49.75,8.37,4.38-3.19,10.42-30.96,7.86-34.72-2.55-3.76-47.25-11.84-51.03-10.24Z" fill="#136849" stroke-width="0"/><path d="M295.06,288.21c-5.33,2.25-11.03,33.48-6.59,36.59,4.44,3.11,44.27,11.6,48.65,8.41,4.38-3.19,10.42-30.96,7.86-34.71-2.55-3.76-46.15-11.89-49.93-10.29Z" fill="#f9b149" stroke-width="0"/><path d="M294.19,288.18c-4.79,1.99-9.9,29.53-5.92,32.27,3.98,2.74,42,11.44,45.93,8.63,3.93-2.81,9.36-27.3,7.07-30.61-2.29-3.31-43.68-11.69-47.07-10.28Z" fill="#ffd68b" stroke-width="0"/><path d="M294.92,294.72c-4.34,4.36-5.39,10.44-5.57,16.37-.08,2.56,3.9,2.52,3.98-.04.14-4.87.85-9.96,4.43-13.55,1.81-1.82-1.03-4.6-2.84-2.78h0Z" fill="#fff" stroke-width="0"/><path d="M297.96,292.1c0,.05,0,.11,0,.17.02,2.56,4,2.52,3.97-.04,0-.06,0-.11,0-.17-.02-2.56-4-2.53-3.97.04h0Z" fill="#fff" stroke-width="0"/><path d="M284.86,336.97c-5.34,2.25-11.03,33.49-6.59,36.6,4.44,3.11,45.37,11.56,49.75,8.37,4.37-3.2,10.42-30.96,7.87-34.72-2.56-3.76-47.25-11.85-51.03-10.25Z" fill="#136849" stroke-width="0"/><path d="M281.23,338.49c-5.33,2.25-11.03,33.49-6.59,36.59,4.44,3.11,44.27,11.6,48.65,8.41,4.38-3.19,10.42-30.96,7.86-34.72-2.55-3.76-46.15-11.89-49.93-10.29Z" fill="#f9b149" stroke-width="0"/><path d="M280.35,338.46c-4.78,1.99-9.89,29.53-5.91,32.27,3.97,2.74,41.99,11.44,45.93,8.63,3.93-2.82,9.35-27.31,7.06-30.62-2.28-3.31-43.68-11.69-47.07-10.28Z" fill="#ffd68b" stroke-width="0"/><path d="M281.08,345c-4.34,4.36-5.38,10.44-5.56,16.37-.08,2.56,3.9,2.52,3.97-.04.14-4.87.84-9.96,4.43-13.55,1.81-1.82-1.02-4.6-2.84-2.79h0Z" fill="#fff" stroke-width="0"/><path d="M284.12,342.38c0,.06,0,.11,0,.17.02,2.57,3.99,2.53,3.97-.04v-.17c-.02-2.56-4-2.52-3.98.04h0Z" fill="#fff" stroke-width="0"/><path d="M278.82,387.01c-5.33,2.25-11.03,33.48-6.58,36.59,4.44,3.11,45.37,11.56,49.75,8.37,4.38-3.19,10.42-30.96,7.87-34.72-2.55-3.76-47.25-11.84-51.03-10.24Z" fill="#136849" stroke-width="0"/><path d="M275.2,388.54c-5.34,2.25-11.03,33.48-6.59,36.59,4.44,3.11,44.27,11.6,48.66,8.41,4.38-3.19,10.42-30.96,7.86-34.72-2.55-3.76-46.15-11.89-49.93-10.28Z" fill="#f9b149" stroke-width="0"/><path d="M274.32,388.5c-4.78,1.98-9.9,29.53-5.92,32.27,3.98,2.74,42,11.43,45.93,8.62,3.93-2.81,9.36-27.31,7.06-30.62-2.29-3.31-43.68-11.69-47.07-10.28Z" fill="#ffd68b" stroke-width="0"/><path d="M275.05,395.04c-4.34,4.36-5.39,10.44-5.57,16.37-.08,2.56,3.91,2.52,3.98-.04.14-4.87.85-9.96,4.43-13.55,1.82-1.82-1.03-4.6-2.84-2.78h0Z" fill="#fff" stroke-width="0"/><path d="M278.09,392.43c0,.05,0,.11,0,.16.02,2.57,4,2.53,3.98-.03,0-.06,0-.11,0-.16-.03-2.56-4-2.52-3.98.04h0Z" fill="#fff" stroke-width="0"/><path d="M144.75,256.77c-5.35,2.2-11.34,33.38-6.92,36.53,4.41,3.15,28.02,7.87,32.44,4.73,4.41-3.15,10.71-30.87,8.19-34.65-2.52-3.78-29.9-8.18-33.7-6.61Z" fill="#136849" stroke-width="0"/><path d="M141.1,258.26c-5.35,2.2-11.33,33.38-6.92,36.53,4.41,3.15,28.03,7.87,32.44,4.72,4.41-3.15,10.71-30.86,8.19-34.64-2.52-3.78-29.9-8.18-33.71-6.61Z" fill="#f9b149" stroke-width="0"/><path d="M140.23,258.23c-4.8,1.94-10.17,29.44-6.21,32.22,3.96,2.78,25.14,6.94,29.1,4.17,3.95-2.78,9.6-27.21,7.34-30.55-2.26-3.33-26.82-7.21-30.23-5.83Z" fill="#ffd68b" stroke-width="0"/><path d="M140.9,264.77c-4.39,4.32-5.48,10.39-5.72,16.32-.1,2.57,3.88,2.56,3.97,0,.2-4.86.94-9.95,4.56-13.51,1.83-1.8-.99-4.61-2.81-2.81h0Z" fill="#fff" stroke-width="0"/><path d="M143.97,262.18v.17c0,2.56,3.98,2.56,3.98,0v-.17c0-2.57-3.98-2.57-3.98,0h0Z" fill="#fff" stroke-width="0"/><path d="M195.98,268.58c-5.27,2.4-10.09,33.78-5.56,36.77,4.52,2.98,28.3,6.83,32.59,3.51,4.29-3.31,9.55-31.24,6.89-34.92-2.66-3.68-30.18-7.06-33.92-5.36Z" fill="#136849" stroke-width="0"/><path d="M192.39,270.21c-5.27,2.4-10.09,33.78-5.57,36.76,4.52,2.99,28.31,6.83,32.59,3.51,4.29-3.31,9.56-31.24,6.9-34.92-2.66-3.68-30.19-7.06-33.92-5.35Z" fill="#f9b149" stroke-width="0"/><path d="M191.52,270.2c-4.73,2.12-9.07,29.79-5.01,32.43,4.06,2.63,25.38,6,29.23,3.08,3.85-2.93,8.59-27.55,6.2-30.8-2.38-3.25-27.07-6.21-30.42-4.7Z" fill="#ffd68b" stroke-width="0"/><path d="M192.43,276.72c-4.22,4.48-5.09,10.59-5.1,16.52,0,2.57,3.96,2.41,3.97-.15.01-4.86.57-9.97,4.05-13.67,1.76-1.87-1.15-4.57-2.92-2.71h0Z" fill="#fff" stroke-width="0"/><path d="M195.4,274.02c0,.06,0,.11,0,.16.1,2.57,4.06,2.42,3.97-.15,0-.05,0-.11,0-.17-.1-2.56-4.07-2.41-3.97.15h0Z" fill="#fff" stroke-width="0"/><path d="M248.03,277.18c-5.41,2.07-12.18,33.08-7.85,36.35,4.33,3.26,27.82,8.58,32.31,5.55,4.49-3.04,11.49-30.58,9.07-34.43-2.42-3.84-29.69-8.93-33.52-7.46Z" fill="#136849" stroke-width="0"/><path d="M244.35,278.58c-5.41,2.07-12.18,33.08-7.85,36.35,4.33,3.26,27.82,8.59,32.31,5.54,4.49-3.04,11.48-30.58,9.07-34.42-2.43-3.85-29.69-8.93-33.52-7.47Z" fill="#f9b149" stroke-width="0"/><path d="M243.48,278.52c-4.85,1.82-10.91,29.17-7.02,32.05,3.88,2.87,24.95,7.57,28.98,4.9,4.03-2.67,10.29-26.96,8.12-30.35-2.17-3.39-26.62-7.89-30.07-6.6Z" fill="#ffd68b" stroke-width="0"/><path d="M243.99,285.08c-4.49,4.21-5.74,10.25-6.13,16.17-.17,2.56,3.81,2.66,3.97.1.32-4.86,1.19-9.92,4.9-13.39,1.88-1.75-.86-4.64-2.74-2.88h0Z" fill="#fff" stroke-width="0"/><path d="M247.11,282.57v.17c-.07,2.57,3.91,2.66,3.97.1,0-.06,0-.11,0-.16.06-2.56-3.91-2.66-3.98-.1h0Z" fill="#fff" stroke-width="0"/><path d="M137.95,306.15c-5.39,2.12-11.85,33.2-7.49,36.42,4.36,3.22,27.9,8.31,32.36,5.23,4.46-3.08,11.18-30.7,8.72-34.52-2.46-3.81-29.77-8.64-33.59-7.13Z" fill="#136849" stroke-width="0"/><path d="M134.29,307.58c-5.39,2.12-11.85,33.21-7.49,36.43,4.36,3.22,27.9,8.31,32.36,5.22,4.45-3.08,11.18-30.69,8.72-34.51-2.47-3.82-29.78-8.64-33.6-7.14Z" fill="#f9b149" stroke-width="0"/><path d="M133.41,307.53c-4.83,1.87-10.62,29.28-6.71,32.11,3.91,2.84,25.02,7.33,29.02,4.62,4-2.72,10.02-27.06,7.81-30.43-2.21-3.37-26.71-7.63-30.13-6.3Z" fill="#ffd68b" stroke-width="0"/><path d="M133.98,314.09c-4.45,4.25-5.64,10.31-5.97,16.23-.14,2.56,3.83,2.62,3.97.06.27-4.86,1.09-9.93,4.77-13.44,1.86-1.77-.91-4.63-2.77-2.86h0Z" fill="#fff" stroke-width="0"/><path d="M137.09,311.55v.17c-.04,2.57,3.93,2.63,3.97.06v-.16c.04-2.57-3.93-2.63-3.97-.06h0Z" fill="#fff" stroke-width="0"/><path d="M189.49,318.49c-5.35,2.2-11.37,33.37-6.97,36.52,4.4,3.15,28.02,7.91,32.43,4.77,4.42-3.14,10.76-30.85,8.24-34.63-2.52-3.78-29.9-8.22-33.7-6.66Z" fill="#136849" stroke-width="0"/><path d="M185.85,319.97c-5.35,2.2-11.38,33.37-6.98,36.52,4.4,3.16,28.02,7.91,32.43,4.77,4.41-3.14,10.75-30.85,8.24-34.63-2.51-3.78-29.89-8.22-33.69-6.66Z" fill="#f9b149" stroke-width="0"/><path d="M184.98,319.93c-4.8,1.94-10.21,29.43-6.26,32.21,3.95,2.79,25.13,6.98,29.08,4.21,3.96-2.77,9.65-27.2,7.39-30.54-2.26-3.33-26.81-7.25-30.22-5.87Z" fill="#ffd68b" stroke-width="0"/><path d="M185.64,326.48c-4.39,4.31-5.5,10.38-5.74,16.31-.11,2.56,3.87,2.56,3.98,0,.19-4.85.95-9.94,4.57-13.5,1.83-1.8-.98-4.62-2.8-2.82h0Z" fill="#fff" stroke-width="0"/><path d="M188.7,323.9v.16c0,2.57,3.97,2.57,3.98,0,0-.06,0-.11,0-.17,0-2.56-3.97-2.57-3.97,0h0Z" fill="#fff" stroke-width="0"/><path d="M240.91,328.15c-5.44,1.98-12.69,32.89-8.41,36.22,4.28,3.32,27.69,9.01,32.23,6.04,4.53-2.97,11.96-30.4,9.59-34.28-2.37-3.88-29.55-9.39-33.4-7.98Z" fill="#136849" stroke-width="0"/><path d="M237.21,329.49c-5.44,1.99-12.69,32.9-8.41,36.22,4.27,3.33,27.68,9.01,32.22,6.04,4.54-2.97,11.96-30.4,9.6-34.28-2.37-3.88-29.55-9.39-33.4-7.98Z" fill="#f9b149" stroke-width="0"/><path d="M236.34,329.42c-4.88,1.75-11.36,29-7.53,31.94,3.84,2.94,24.84,7.96,28.9,5.35,4.06-2.62,10.7-26.8,8.58-30.23-2.12-3.43-26.5-8.29-29.96-7.06Z" fill="#ffd68b" stroke-width="0"/><path d="M236.74,335.98c-4.56,4.14-5.9,10.16-6.38,16.07-.21,2.56,3.77,2.71,3.97.16.39-4.85,1.35-9.9,5.1-13.31,1.9-1.72-.8-4.65-2.7-2.93h0Z" fill="#fff" stroke-width="0"/><path d="M239.9,333.52v.16c-.11,2.56,3.87,2.73,3.97.16,0-.06,0-.11,0-.16.1-2.56-3.87-2.72-3.98-.16h0Z" fill="#fff" stroke-width="0"/><path d="M128.14,350.54c-5.46,1.91-13.13,32.73-8.89,36.11,4.22,3.38,27.56,9.38,32.13,6.47,4.57-2.91,12.36-30.24,10.05-34.15-2.31-3.91-29.42-9.78-33.29-8.43Z" fill="#136849" stroke-width="0"/><path d="M124.41,351.83c-5.47,1.91-13.13,32.72-8.89,36.11,4.23,3.38,27.56,9.38,32.13,6.47,4.58-2.91,12.36-30.24,10.06-34.15-2.31-3.91-29.42-9.79-33.3-8.43Z" fill="#f9b149" stroke-width="0"/><path d="M123.54,351.75c-4.9,1.68-11.75,28.84-7.95,31.83,3.8,2.98,24.73,8.29,28.83,5.74,4.1-2.56,11.06-26.66,8.98-30.11-2.08-3.45-26.39-8.65-29.86-7.46Z" fill="#ffd68b" stroke-width="0"/><path d="M123.86,358.32c-4.61,4.07-6.03,10.08-6.59,15.99-.24,2.55,3.73,2.76,3.97.21.45-4.84,1.47-9.88,5.27-13.24,1.93-1.7-.73-4.65-2.66-2.96h0Z" fill="#fff" stroke-width="0"/><path d="M127.05,355.9c0,.05,0,.11,0,.16-.14,2.56,3.84,2.78,3.97.22,0-.06,0-.11,0-.17.14-2.56-3.83-2.78-3.98-.21h0Z" fill="#fff" stroke-width="0"/><path d="M179.31,364.78c-5.45,1.95-12.89,32.81-8.64,36.17,4.26,3.36,27.62,9.19,32.18,6.25,4.55-2.94,12.15-30.33,9.81-34.22-2.34-3.89-29.48-9.58-33.35-8.19Z" fill="#136849" stroke-width="0"/><path d="M175.61,366.1c-5.46,1.95-12.9,32.81-8.64,36.17,4.25,3.35,27.63,9.18,32.18,6.24,4.55-2.94,12.15-30.33,9.81-34.22-2.34-3.89-29.48-9.57-33.35-8.19Z" fill="#f9b149" stroke-width="0"/><path d="M174.73,366.02c-4.89,1.71-11.54,28.93-7.72,31.89,3.82,2.96,24.79,8.12,28.86,5.53,4.08-2.59,10.88-26.73,8.77-30.17-2.1-3.44-26.45-8.46-29.92-7.25Z" fill="#ffd68b" stroke-width="0"/><path d="M175.09,372.59c-4.58,4.11-5.97,10.13-6.48,16.03-.22,2.56,3.75,2.73,3.97.19.42-4.85,1.4-9.89,5.19-13.28,1.91-1.71-.76-4.65-2.68-2.94h0Z" fill="#fff" stroke-width="0"/><path d="M178.28,370.15c0,.05,0,.11,0,.16-.12,2.56,3.85,2.75,3.97.19,0-.05,0-.11,0-.16.12-2.56-3.85-2.75-3.97-.19h0Z" fill="#fff" stroke-width="0"/><path d="M230.16,376.51c-5.51,1.77-13.95,32.38-9.8,35.86,4.14,3.49,27.32,10.08,31.95,7.29,4.65-2.79,13.13-29.92,10.92-33.89-2.22-3.97-29.16-10.53-33.07-9.27Z" fill="#136849" stroke-width="0"/><path d="M226.41,377.71c-5.51,1.77-13.95,32.38-9.8,35.86,4.14,3.49,27.31,10.08,31.95,7.29,4.65-2.79,13.13-29.92,10.92-33.88-2.21-3.97-29.16-10.53-33.07-9.27Z" fill="#f9b149" stroke-width="0"/><path d="M225.54,377.6c-4.94,1.55-12.47,28.54-8.75,31.62,3.72,3.08,24.51,8.92,28.67,6.46,4.17-2.45,11.74-26.37,9.75-29.87-1.99-3.5-26.16-9.32-29.67-8.21Z" fill="#ffd68b" stroke-width="0"/><path d="M225.69,384.18c-4.72,3.96-6.29,9.93-7,15.81-.31,2.55,3.66,2.86,3.96.32.57-4.83,1.73-9.84,5.61-13.1,1.96-1.65-.61-4.68-2.58-3.02h0Z" fill="#fff" stroke-width="0"/><path d="M228.95,381.84c0,.06,0,.11-.01.17-.2,2.55,3.76,2.87,3.97.31,0-.06,0-.11,0-.16.2-2.55-3.76-2.87-3.96-.32h0Z" fill="#fff" stroke-width="0"/><path d="M167.85,219.41c1.09-.48,2.03-.66,2.81-.54.53.08.88.38,1.04.89.18.57,0,1.8-.57,3.68l-1.71,5.69c-.61,2.04-1.1,3.42-1.44,4.14.4.05.85.12,1.35.2.36.07.57.3.64.7.07.4,0,.76-.23,1.07-.06.07-.1.12-.12.15-.4.36-1.08.48-2.04.36-1.05-.13-2.56-.4-4.53-.82-.75-.16-1.04-.54-.87-1.12.07-.22.22-.46.44-.7.33-.35.89-.45,1.68-.33.17.02.36.06.56.1.14-.31.5-1.4,1.07-3.28.6-1.98,1.3-4.49,2.11-7.54-.94.79-1.76,1.13-2.44,1.03-.29-.05-.54-.2-.73-.46-.19-.26-.25-.54-.16-.82.08-.28.29-.55.62-.82.77-.64,1.62-1.18,2.53-1.59Z" fill="#136849" stroke-width="0"/><path d="M219.39,227.51c1.1-.14,2.1-.05,3.03.26.28.09.54.2.79.32,1.14.56,1.89,1.14,2.24,1.75.87,1.53.72,3.37-.45,5.54-.55,1.02-1.39,1.99-2.5,2.91-1.18.96-2.34,1.58-3.48,1.85-.61.15-1.64.32-3.09.52.38,0,.85.12,1.4.35,1,.38,1.57.64,1.72.78.36.33.39.87.11,1.63-.28.77-1.07.97-2.35.59-1-.3-2.1-.68-3.31-1.13-1.77-.68-2.69-1.18-2.75-1.49-.07-.41.01-.85.25-1.33.07-.13.15-.27.26-.42.44-.66,1.01-1.11,1.7-1.34.43-.15,1.17-.25,2.22-.32,2.58-.18,4.36-.9,5.33-2.17.5-.65.98-1.49,1.44-2.5.7-1.52.35-2.5-1.02-2.97-.22-.07-.42-.12-.62-.15-1.13-.18-2.16.59-3.09,2.31-.25.45-.38.71-.4.79-.17.33-.42.59-.75.78-.38.21-.73.27-1.07.17-.42-.13-.71-.31-.88-.55-.51-.7-.41-1.64.31-2.82,1.17-1.93,2.83-3.04,4.99-3.31Z" fill="#136849" stroke-width="0"/><path d="M275.98,242.25c-.27.56-.63,1.07-1.09,1.52-.6.59-1.16.84-1.69.76.56.59.59,1.68.1,3.28-.17.58-.37,1.08-.57,1.51-.54,1.11-1.22,1.88-2.05,2.3-1.14.57-2.33.67-3.55.3-1.44-.44-2.49-.82-3.16-1.16-1.37-.7-1.93-1.46-1.66-2.26.08-.24.16-.45.25-.63.43-.89.98-1.24,1.64-1.02.09.03.17.07.27.12.93.42,1.68.73,2.27.93.63.22,1.1.37,1.4.42.69.11,1.17.01,1.44-.3.44-.49.72-.87.85-1.13.43-.9.03-1.62-1.19-2.18-.8-.29-1.6-.58-2.4-.88-.95-.43-1.38-.99-1.29-1.69.03-.24.08-.45.17-.63.18-.38.52-.63,1.01-.72.41-.08.83-.06,1.26.08.15.05.32.13.51.24.55.32,1.27.56,2.17.71.87.14,1.43.04,1.68-.31.09-.14.16-.27.23-.4.26-.54.25-1.05-.04-1.52-.28-.35-.56-.59-.83-.74-.33-.16-1-.38-2.03-.65-.92-.23-1.54-.46-1.84-.68-.57-.4-.7-.93-.36-1.59.35-.7,1.06-1.01,2.15-.95.56.04,1.38.21,2.45.51,1.26.37,2.16.68,2.72.94,1.02.49,1.65,1.15,1.9,1.96.22.73.13,1.66-.27,2.8-.17.48-.31.83-.42,1.07Z" fill="#136849" stroke-width="0"/><path d="M151.22,274.8l-.83,2-.11.27c.37.16.68.28.91.36.66.23,1.08.34,1.26.33.6-1.27,1.31-3.03,2.13-5.3.78-2.18,1.73-3.2,2.82-3.04,1.12.14,1.39.97.8,2.47-.23.58-.73,1.66-1.52,3.25-.69,1.39-1.14,2.48-1.38,3.28.51.16,1.19.32,2.03.49.69.14,1.37.35,2.05.6.44.18.55.54.32,1.08-.09.2-.2.42-.36.65-.44.64-1.02.96-1.72.95-.37,0-.99-.14-1.87-.43-.76-.26-1.29-.34-1.6-.25-.3.09-.62.53-.95,1.32-.13.31-.22.56-.28.74-.19.54-.41.94-.65,1.2-.35.37-.77.48-1.26.33-.79-.24-1.06-.7-.82-1.36l1.04-2.9c-.83-.12-1.82-.39-2.95-.82-.77-.28-1.28-.59-1.53-.93-.32-.42-.37-.97-.15-1.67l.88-2.07c.63-1.48,1.24-3.11,1.84-4.88.11-.33.22-.63.33-.89.42-1.01.84-1.6,1.25-1.76.52-.21,1.01-.23,1.49-.07.75.26,1.06.84.93,1.76-.06.43-.31,1.18-.75,2.24-.49,1.17-.94,2.19-1.36,3.05Z" fill="#136849" stroke-width="0"/><path d="M214.72,282.43c.68.36.88.81.62,1.35-.25.49-.54.8-.86.96-.33.15-.79.21-1.39.15-.54-.05-1.3-.21-2.28-.47-.99-.26-1.7-.41-2.13-.45-.86,1.53-1.4,2.51-1.6,2.92,1.02,0,2.36.19,4.01.55.28.06.58.14.89.25,1.47.5,2.49,1.39,3.07,2.67.33,1.26.13,2.51-.62,3.76-.8,1.33-1.96,2.33-3.5,3-1.54.67-3.06.84-4.6.53-.54-.11-1.04-.24-1.5-.4-.84-.28-1.49-.64-1.94-1.06-.66-.62-1.05-1.14-1.17-1.54-.02-.19.01-.4.12-.61.09-.18.24-.38.45-.59.45-.45.91-.62,1.38-.51.44.11.9.29,1.4.53.37.18,1.15.41,2.34.68,1.09.25,2.08.19,2.96-.17.61-.25,1.01-.57,1.2-.95.09-.16.13-.36.12-.57,0-.67-.15-1.11-.43-1.34-.23-.2-.69-.4-1.39-.62-.66-.2-1.46-.37-2.41-.53l-2.5-.32c-.28-.04-.56-.09-.81-.18-.61-.21-.88-.56-.78-1.05.12-.64.27-1.17.45-1.57.18-.44.48-1.08.88-1.91.24-.49.65-1.27,1.25-2.36.37-.68.83-1.38,1.39-2.12.5.04.84.1,1.01.16l1.77.38c.75.16,1.66.41,2.69.74.88.27,1.51.51,1.88.71Z" fill="#136849" stroke-width="0"/><path d="M258.27,293.12c1.3-1.01,2.49-1.59,3.55-1.71.98-.12,1.87-.07,2.66.14.74.19,1.52.56,2.32,1.09.98.64,1.62,1.51,1.92,2.59.26.92.02,1.84-.7,2.77-.14.19-.27.33-.36.43-1,1.07-1.75,1.49-2.23,1.26-.47-.22-.81-.53-.99-.93-.13-.28-.03-.62.3-1.04.09-.11.22-.26.42-.45.19-.19.33-.34.42-.45.43-.54.41-1.06-.06-1.55-.3-.31-.58-.54-.83-.68-.25-.15-.5-.24-.73-.27-1.25-.17-2.55.3-3.89,1.41-.41.33-.81.76-1.21,1.26-.47.6-.95,1.32-1.44,2.16.33-.54,1.17-.75,2.52-.64.82.07,1.53.27,2.14.63.41.24.77.54,1.07.9,1.21,1.47,1.35,2.93.43,4.38-.11.17-.21.33-.34.48-1.09,1.39-2.48,2.07-4.16,2.03-1.12-.03-2.05-.21-2.79-.55-.74-.34-1.33-.72-1.75-1.16-.78-.79-1.25-1.89-1.43-3.27-.03-.32-.01-.69.05-1.1.24-1.49,1.04-3.15,2.42-4.98.75-.99,1.65-1.9,2.71-2.73ZM260.37,301.56c-.21-.12-.46-.2-.76-.24-1-.14-1.73.11-2.2.77-.58.81-.48,1.45.31,1.91.54.31,1.18.38,1.93.21.3-.07.55-.23.74-.48.2-.26.34-.57.43-.96.13-.55-.02-.95-.46-1.2Z" fill="#136849" stroke-width="0"/><path d="M139.25,315c.51.06,1.29.16,2.36.32,1.02.15,2.2.43,3.54.83,1.12.35,1.45,1.44.98,3.28-.43,1.66-1.02,3.39-1.75,5.18-.77,1.91-1.35,3.34-1.72,4.29-.96,2.3-1.68,3.51-2.14,3.62-.3.07-.6.09-.91.03-.28-.05-.59-.16-.95-.33-.7-.34-.98-.74-.84-1.2.25-.83.71-1.93,1.39-3.31.82-1.67,1.32-2.77,1.54-3.3.62-1.56,1.07-2.69,1.33-3.38.35-.93.57-1.68.64-2.27-.83-.28-1.71-.48-2.65-.6-.84-.1-1.42-.09-1.73.04-.39.16-.73.61-1.03,1.35-.25.64-.43,1.12-.56,1.45-.24.65-.47,1.31-.7,1.96-.36.82-.8,1.33-1.31,1.54-.33.13-.61.18-.85.14-.18-.03-.33-.12-.47-.26-.34-.38-.54-.73-.57-1.05-.03-.24.05-.67.23-1.3.28-1,.95-2.97,1.99-5.88.55-.87,1.13-1.3,1.75-1.31.7-.01,1.5.03,2.41.14Z" fill="#136849" stroke-width="0"/><path d="M202.56,330.39c-.54,1.74-1.5,2.84-2.88,3.3.17.13.28.22.31.25.88.72,1.43,1.35,1.65,1.86.16.38.28.72.34,1,.17.75.15,1.44-.05,2.06-.19.52-.32.87-.39,1.05-.2.52-.44.94-.71,1.27-.68.78-1.36,1.36-2.06,1.7-.7.35-1.57.46-2.63.33-.34-.04-.6-.08-.79-.12-.81-.18-1.6-.54-2.38-1.09-.65-.45-1.11-.98-1.37-1.61-.04-.11-.08-.18-.11-.23-.21-.62-.27-1.18-.17-1.7.08-.42.19-.83.35-1.25.11-.41.31-.83.59-1.26,0-.02,0-.04.03-.05.31-.41.62-.81.91-1.21.34-.41.75-.74,1.24-1.01.23-.13.7-.35,1.44-.64-1.3-.68-1.83-1.83-1.61-3.43.09-.55.25-1.07.49-1.56.43-.85,1.25-1.41,2.45-1.67.86-.18,1.62-.25,2.28-.19,1.25.12,2.18.67,2.79,1.65.47.77.57,1.61.28,2.53ZM195.93,336.2c-.44.37-.72.83-.85,1.38-.2.85-.03,1.54.53,2.06.25.23.54.36.86.39.24.02.52-.02.83-.12.7-.21,1.17-.89,1.42-2.04.25-1.14-.01-1.82-.79-2.05-.17-.05-.35-.08-.52-.1-.55-.05-1.04.11-1.48.48ZM199.41,330.09c.1-.61-.08-1.01-.54-1.21-.22-.1-.41-.16-.56-.17-.45-.04-.78.19-.98.69-.05.14-.11.3-.15.49-.17.75.14,1.16.94,1.23.49-.05.88-.31,1.18-.79.06-.1.09-.18.11-.23Z" fill="#136849" stroke-width="0"/><path d="M250.11,338.76c.42.05.84.15,1.28.29,1.02.34,1.75.9,2.18,1.69.57,1.05.71,2.05.42,2.99-.2.64-.48,1.33-.84,2.06-.4.81-.9,1.67-1.48,2.58-1.17,1.81-2.28,3.18-3.36,4.12-1.11.97-2,1.59-2.69,1.84-.92.36-1.94.32-3.05-.12-.97-.38-1.62-.79-1.98-1.25-.42-.52-.56-1.26-.43-2.2.03-.28.1-.5.19-.68.14-.3.36-.49.66-.58.61-.17,1.06-.21,1.35-.12.48.16.71.49.69,1-.01.51,0,.83.04.95.1.33.39.56.86.7.67.18,1.64-.47,2.93-1.95,1.2-1.37,1.99-2.47,2.39-3.28-.26.18-.9.35-1.96.52-.42.06-.87.02-1.35-.14-.63-.21-1.27-.63-1.91-1.28-1.09-1.09-1.26-2.35-.52-3.78.43-.83.77-1.4,1.01-1.71.38-.46.9-.86,1.57-1.22.98-.52,2.32-.67,4.01-.45ZM247.54,344.1c.82.24,1.5,0,2.05-.69.09-.12.17-.24.22-.34.26-.53.12-.97-.43-1.32-.23-.15-.46-.26-.7-.34-.4-.13-.77-.11-1.12.06-.35.17-.62.45-.82.85-.07.14-.13.3-.18.49-.18.63.14,1.07.99,1.31Z" fill="#136849" stroke-width="0"/><path d="M137.12,365.89c1.4.17,2.38.62,2.94,1.35.45.6.73,1.65.84,3.15.09,1.26-.14,2.74-.7,4.46-.27.82-.59,1.68-.99,2.56-1.27,2.85-2.6,4.47-4.01,4.87-1.01.29-1.9.37-2.67.23-.3-.05-.58-.14-.83-.25-1.17-.55-1.9-1.44-2.19-2.68-.22-.97-.18-2.21.1-3.73.23-1.22.53-2.39.88-3.5.8-2.46,1.89-4.24,3.28-5.33,1.12-.88,2.23-1.26,3.33-1.12ZM133.37,379.54c.77.19,1.51-.2,2.21-1.17.48-.66.88-1.46,1.17-2.37.29-.89.53-1.97.72-3.23.24-1.62.19-2.63-.15-3.04-.22-.26-.7-.41-1.47-.47-1.12.28-2.03,1.62-2.75,4.03-1.15,3.84-1.06,5.92.28,6.25Z" fill="#136849" stroke-width="0"/><path d="M187.7,390.1c-.12-.13-.19-.24-.22-.33.09-.15.23-.5.42-1.05.22-.65.34-1.15.35-1.47,0-.33.08-.57.22-.73.14-.15.37-.29.7-.4.69-.22,1.08-.04,1.19.56.03.18.04.4.01.65-.06.64-.34,1.24-.83,1.78-.62.66-1.15,1.07-1.58,1.21-.06.02-.14-.05-.27-.22Z" fill="#136849" stroke-width="0"/><path d="M239.29,394.25c-2.1,0-3.64.98-4.62,2.93-.24.47-.4,1.01-.49,1.61-.11.77-.08,1.64.1,2.61.27,1.47,1.22,2.2,2.87,2.2.22,0,.54-.02.98-.06.43-.04.76-.07.98-.07,1.42,0,2.26.39,2.53,1.17.07.2.1.43.06.67-.1.68-.76,1.27-1.98,1.79-1.29.32-2.21.49-2.73.5-1.24.03-2.51-.24-3.8-.81-1.77-.78-2.6-2.81-2.49-6.11.02-.66.08-1.32.17-1.97.12-.85.29-1.7.53-2.56.42-1.5.97-2.59,1.65-3.28.82-.82,1.66-1.41,2.5-1.76.69-.29,1.67-.51,2.93-.67.62-.08,1.17-.12,1.65-.12.71,0,1.29.08,1.75.24,1.26.28,1.84,1.09,1.77,2.44-.06,1.05-.6,1.58-1.65,1.58-.26,0-.55-.03-.86-.1-.68-.15-1.29-.22-1.84-.22Z" fill="#136849" stroke-width="0"/><path d="M290.19,408.49c-.61-.68-1.03-1.26-1.26-1.74-.29-.58-.38-1.29-.28-2.1.1-.83.37-1.44.79-1.87.42-.42,1.2-.73,2.33-.91,1.42-.23,2.61-.12,3.58.34.17.05.41.19.71.43,1.13.88,1.86,1.83,2.18,2.88.43,1.4-.1,2.69-1.59,3.86-.4.31-.93.57-1.57.77-.54.17-1.06.21-1.57.13-1.37-.23-2.48-.83-3.33-1.8ZM293.84,407.12c.06-.02.14-.05.24-.06.19-.1.31-.17.35-.21.14-.11.22-.21.24-.32.02-.11.02-.26.02-.44.02-.11.01-.21-.02-.32-.07-.24-.25-.47-.54-.69-.28-.22-.55-.35-.81-.39-.52-.07-.83-.05-.94.05-.44.27-.59.7-.4,1.28.05.19.13.37.21.53.49.45.97.65,1.42.57.09,0,.16,0,.23-.01ZM279.98,410.87c-.13-.42-.13-.83-.01-1.21.14-.45.42-.71.83-.78.76-.12,2.23.03,4.42.46,1.52.31,3.03.61,4.54.91,1.53.25,3.04.55,4.52.9,1.25.29,2.76.62,4.53.98.14.02,1.3.19,3.47.48,1.41.21,2.2.32,2.38.36.96.26,1.54.73,1.75,1.41.41,1.31-.19,2.09-1.79,2.35-.84.14-2.84-.14-6-.8-2.39-.5-4.47-1.01-6.26-1.53-.4-.03-.9-.1-1.5-.18-.79-.2-1.4-.31-1.82-.35-.78-.06-1.79-.23-3.04-.53-1.42-.34-2.44-.56-3.08-.67-.71-.12-1.21-.22-1.51-.33-.58-.21-.98-.49-1.23-.87l-.18-.6ZM290.79,423.79c-.32-.02-.98-.27-1.96-.72-.64-.3-1.08-.65-1.31-1.06-.16-.23-.39-.54-.68-.94-.31-.56-.42-1.42-.33-2.58.09-1.16.36-1.92.8-2.29.72-.61,1.57-.99,2.54-1.15.76-.13,1.78,0,3.08.37.51.15,1.18.6,1.99,1.34.26.24.57.7.91,1.37.29.55.42,1.24.4,2.05-.02.76-.17,1.41-.42,1.94-.26.53-.76.98-1.49,1.34-.74.36-1.43.5-2.07.44-.19-.02-.68-.06-1.46-.12ZM292.36,420.14c.09-.08.14-.25.13-.49-.11-.63-.42-1.06-.94-1.29-.28-.12-.56-.16-.84-.11-.24.04-.46.13-.66.28-.17.09-.29.23-.34.4-.03.29,0,.57.08.84-.03.18.14.39.5.61.36.23.65.33.87.31.43-.05.84-.24,1.21-.54Z" fill="#136849" stroke-width="0"/><path d="M304.95,370.83c-.32,0-.68-.16-1.09-.46-.41-.31-.62-.67-.64-1.08-.11-1.39-.04-3.38.21-6,.05-.61.06-1.05.04-1.34-.98.83-1.71,1.45-2.18,1.87-.72.74-1.83,1.82-3.35,3.24-.53.45-1.27.47-2.22.07-.55-.23-.93-.61-1.14-1.13-.21-.53-.16-1.05.15-1.56.16-.26.4-.52.71-.78.63-.51,1.7-1.31,3.22-2.39l2.57-1.83c.37-.27.6-.48.7-.65.13-.2.16-.52.13-.96-.09-.84-.18-1.66-.28-2.49-.1-.97-.13-1.81-.1-2.5.05-1.35.13-2.24.25-2.67.06-.26.15-.49.27-.69.26-.42.64-.72,1.15-.91.73-.29,1.48-.27,2.24.05,1.17.5,1.45,1.78.84,3.83-.17.57-.28,1.14-.33,1.69-.01.25-.21,1.5-.56,3.77,1.43-.97,2.7-1.97,3.8-2.99,1.1-1.03,1.88-1.69,2.34-1.99,1.1-.72,2.03-.87,2.79-.45.68.36,1.03.95,1.06,1.74.02.49-.07.91-.28,1.26-.14.25-.33.44-.56.6-.5.36-.84.63-1.03.8-1.02.66-2.24,1.42-3.65,2.27-.56.3-1.13.61-1.7.92-.83.44-1.31.79-1.46,1.03-.09.14-.14.3-.15.46-.05.53,0,1.19.13,1.97.26,1.4.41,2.33.46,2.77.15,1.25.12,2.16-.08,2.74-.16.41-.33.81-.53,1.19-.22.42-.8.63-1.73.64Z" fill="#136849" stroke-width="0"/><path d="M318.87,310.6c-2.15-.32-3.63-.54-4.44-.64-1.43-.22-3.13-.71-5.11-1.47-1.79-.69-2.41-1.65-1.86-2.86.8-1.77,2.69-2.51,5.68-2.21,1.28.14,3.25.59,5.9,1.38,2.51.75,3.87,1.46,4.07,2.11.14.45.09.92-.15,1.44-.13.3-.35.64-.64,1.03-.78,1.04-1.92,1.44-3.45,1.2Z" fill="#136849" stroke-width="0"/><path d="M331.66,249.6c.61.23.79.81.53,1.75-.35,1.22-.58,2.06-.7,2.51l-.66,2.55.8.09c2.67.3,4.21.74,4.59,1.3.27.39.33.88.18,1.44-.06.22-.15.47-.3.75-.49.97-1.39,1.42-2.67,1.36-1.68-.09-2.83-.16-3.46-.21l-.48,1.89c-.03.18-.11.53-.24,1.03l-.28,1.11c-.31.73-.78,1.29-1.41,1.68-.42.18-.84.25-1.29.19-.19-.04-.44-.14-.77-.32-.34-.17-.49-.26-.48-.26-.07-.18-.14-.35-.21-.51-.11-.47.13-1.81.7-4.05.03-.12.06-.28.11-.5.04-.22.07-.39.1-.51-1.93-.3-3.1-.5-3.54-.58-1.4-.26-1.95-1.01-1.61-2.23.31-1.12,1.17-1.77,2.61-1.94.45-.05,1.64-.02,3.56.09.15-.31.29-.77.42-1.4.16-.95.28-1.6.34-1.96.08-.45.2-.98.35-1.57.21-.82.52-1.42.91-1.79.23-.15.6-.22,1.11-.21.46-.07,1.05.03,1.79.3Z" fill="#136849" stroke-width="0"/><path d="M137.35,210.89c-14.03-13.39-32.9-21.8-51.06-27.88-21.53-6.96-49.04-13.33-70.97-4.44-6.54,2.65-11.6,7.98-12.14,15.19-.65,8.71,6.33,16.74,12.15,22.29,20.45,19.49,50.64,29.84,77.94,34.48,11.54,1.96,23.57,2.62,35.14.52,7.27-1.32,15.18-4.42,19.14-11.05,6.22-10.41-2.95-22.2-10.2-29.11ZM143.14,233.74c-.6,8.1-12.22,10.55-18.42,11.54-12.77,2.04-26.33.14-38.84-2.54-15.87-3.4-31.35-9.11-45.61-16.82-10.59-5.73-22.05-13.2-28.36-23.77-12.91-21.62,26.25-21.7,37.55-20.7,11.91,1.05,23.61,3.92,34.96,7.58,14.97,5.01,29.4,11.63,42.15,21.02,7.07,5.2,17.29,13.86,16.56,23.68Z" fill="#fd6502" stroke-width="0"/><path d="M78,146.31c-5.46-5.07-13.08-9.17-20.62-6.59-10.69,3.65-14.12,16.92-15.79,26.75-3.05,17.86-.49,36.87,3.56,54.35,3.6,14.82,8.71,29.33,16.3,42.6,4.99,8.72,11.64,17.98,20.86,22.58,17.69,8.82,26.43-11.66,28.79-25.51,4.67-27.42-2.36-57.9-12.97-83.11-4.74-11.27-11.09-22.66-20.13-31.06ZM95.29,187.17c5.76,15.18,9.2,31.53,10.37,47.71.84,11.64.5,23.9-3.33,35.03-2.43,7.04-7.53,13.77-15.7,11.11-10.26-3.33-17.26-16.02-21.95-24.81-6.16-11.53-10.29-24.08-13.37-36.74-3.27-14.13-5.13-28.55-4.44-43.07.44-9.15,1.79-20.7,8.25-27.82,6.26-6.88,14.69-1.55,19.99,3.65,9.57,9.4,15.49,22.58,20.18,34.93Z" fill="#fe8a0d" stroke-width="0"/><path d="M104.83,159.67c-18.55,5.37-35.3,17.26-49.69,29.77-10.79,9.59-20.63,20.25-28.62,32.3-5.55,8.37-10.37,17.96-11.38,28.08-.69,6.97,1.98,13.93,8.3,17.37,7.35,4.01,16.82,2.26,24.42.07,26.47-7.65,50.34-27.7,67.9-48.26,7.81-9.14,14.71-19.24,19.08-30.5,2.76-7.11,4.33-15.82.55-22.85-5.82-10.82-20.88-8.79-30.57-5.99ZM129.61,184.39c-3.81,12.19-12.14,23.16-20.42,32.64-10.4,11.91-22.66,22.39-35.89,31.02-10.28,6.7-21.73,12.59-33.91,14.73-7.26,1.27-16.07.32-17.81-8.11-1.97-9.57,4.67-20.62,9.47-28.3,7.6-12.19,17.66-22.78,28.37-32.29,11.24-9.78,23.47-18.36,37.05-24.58,8.39-3.84,19.49-7.92,28.71-4.74,8.19,2.83,6.42,13.3,4.45,19.62Z" fill="#ffa303" stroke-width="0"/><path d="M49.47,181.45c11.91,1.05,23.61,3.92,34.96,7.58,14.97,5.01,29.4,11.63,42.15,21.02l10.77.84c-14.03-13.39-32.9-21.8-51.06-27.88-21.53-6.96-49.04-13.33-70.97-4.44l34.16,2.88Z" fill="#fd6502" stroke-width="0"/><path d="M425.33,248.87c-2.01-10.65-10.31-15.74-18.6-21.24-12.24-7.85-24.51-18.85-32.04-31.85-21-36.6-5.37-85.16,38.38-93.17,4.34-.8,21.62-2.82,26.03-3.04,44.41-2.29,70.82,41.34,58.84,81.8-4.34,14.38-13.73,27.92-23.83,38.38-6.8,7.26-13.7,14.14-13.19,24.95l-35.58,4.16Z" fill="#fad524" stroke-width="0"/><path d="M480.44,113.81c10.85,33.8,1.58,72.26-32.53,92.63-18.35,11.07-46.57,8.73-67.96-2.92,7.37,9.63,17.07,17.88,26.79,24.11,8.29,5.5,16.58,10.59,18.6,21.24l35.58-4.16c-.51-10.81,6.39-17.7,13.19-24.95,10.1-10.46,19.5-24,23.83-38.38,7.49-25.27,0-51.78-17.5-67.57Z" fill="#fcc100" stroke-width="0"/><path d="M449.68,210.6c-.35-3.77-.42-7.55-.3-11.31,7.27-2.86,13.74-8.16,15.87-15.48,2.67-9.16-4.83-18.72-13.14-10.47-5.15,5.12-6.57,14.43-6.67,23.39-.56.17-1.11.37-1.67.52-3.41.9-6.9,1.11-10.33.81-2.27-6.86-5.69-13.01-10.48-17.64-5.74-5.57-14.35-6.11-14.62,3.67-.29,10.02,12.01,15.13,21.66,16.88,4.29,14.93,4.05,33.64-2.87,47.68l4.26-.49c5.69-13.21,7.15-31.27,3.11-46.58.77.06,1.51.11,2.18.12,2.8.05,5.8-.34,8.76-1.12.13,4.71.53,9.13.84,12.56,1.01,11.01,3.38,21.83,5.97,32.58l3.68-.43c-2.71-11.45-5.18-22.94-6.26-34.69ZM451.6,183.14c.56-2.02.49-4.62,2.17-5.88,6.38-4.79,10.55,1.04,8.38,6.1-.87,2.04-3.53,4.88-5.07,6.49-2.1,2.38-4.67,4.04-7.46,5.3.34-4.05.95-8.06,1.99-12.02ZM414.64,189.14c-2.95-7.69,2.06-10.3,5.69-6.22,1.49,1.26,2.8,2.85,3.91,4.45,2.08,3.04,3.49,6.48,4.67,9.95-5.4-1.32-12.23-2.92-14.26-8.18Z" fill="#fff" stroke-width="0"/><path d="M428.08,276.52c.85,9.04,11.82,14.84,20.15,13.98,8.33-.86,17.89-8.77,16.87-17.8l-37.02,3.82Z" fill="#0167a2" stroke-width="0"/><path d="M421.07,279.48c16.18,3.63,36.39,2.43,51.57-4.59,6.62-3.06,2.4-15.3-4.25-12.22-13.33,6.17-31.47,7.16-45.66,3.98-7.14-1.6-8.78,11.23-1.66,12.83h0Z" fill="#059dd8" stroke-width="0"/><path d="M431.14,274.75c-3.7-.87-9.01-2.31-10.72-6.11-.27-.57-.38-1.18-.44-1.81-4.65,1.78-4.97,11.3,1.1,12.66,16.18,3.63,36.39,2.43,51.57-4.59,1.91-.89,2.9-2.54,3.2-4.37-13.88,6.47-29.7,7.86-44.71,4.22Z" fill="#027dba" stroke-width="0"/><path d="M471.53,264.12c.6-.28,1.09-.66,1.52-1.07-1.27-.91-2.87-1.2-4.66-.38-13.33,6.17-31.47,7.16-45.66,3.98-1.91-.43-3.41.19-4.47,1.33.5.31,1.05.57,1.69.71,16.18,3.63,36.39,2.44,51.57-4.58Z" fill="#0167a2" stroke-width="0"/><path d="M419.84,267.53c16.19,3.63,36.4,2.44,51.57-4.59,6.62-3.06,2.4-15.3-4.25-12.22-13.33,6.17-31.47,7.16-45.67,3.98-7.14-1.61-8.78,11.24-1.66,12.83h0Z" fill="#059dd8" stroke-width="0"/><path d="M430.01,263.82c-3.7-.88-9-2.31-10.72-6.11-.41-.88-.53-1.86-.49-2.86-4.71,1.72-5.06,11.32,1.04,12.68,16.19,3.63,36.4,2.44,51.57-4.59,1.48-.68,2.39-1.83,2.88-3.15-13.77,6.3-29.42,7.63-44.28,4.03Z" fill="#027dba" stroke-width="0"/><path d="M470.31,252.3c.64-.29,1.14-.69,1.59-1.14-1.28-.96-2.92-1.29-4.74-.45-13.33,6.17-31.47,7.16-45.67,3.98-1.96-.44-3.48.22-4.54,1.42.53.34,1.11.62,1.79.77,16.19,3.62,36.4,2.43,51.57-4.6Z" fill="#0167a2" stroke-width="0"/><path d="M418.61,255.59c16.18,3.63,36.39,2.43,51.57-4.59,6.62-3.06,2.4-15.3-4.25-12.22-13.33,6.17-31.47,7.15-45.66,3.98-7.14-1.6-8.78,11.24-1.66,12.83h0Z" fill="#059dd8" stroke-width="0"/><path d="M418.61,255.59c16.18,3.63,36.39,2.43,51.57-4.59,1.97-.91,2.97-2.65,3.23-4.54-13.88,6.49-29.73,7.89-44.76,4.24-3.69-.86-9-2.31-10.72-6.11-.25-.52-.37-1.09-.44-1.66-4.65,1.79-4.96,11.3,1.11,12.66Z" fill="#027dba" stroke-width="0"/><path d="M386.92,136.55c.13.03.26.06.38.1,5.82,1.32,16.43-3.57,16.54-10.3.1-6.37-4.47-11.58-10.96-9.82-7.28,1.97-17.33,16.69-5.96,20.03Z" fill="#fce473" stroke-width="0"/><path d="M378.4,156.29c.09.02.19.05.28.07,4.27.97,12.05-2.61,12.14-7.56.07-4.67-3.28-8.49-8.04-7.2-5.33,1.45-12.71,12.24-4.37,14.68Z" fill="#fce473" stroke-width="0"/></g></g></svg>