<?xml version="1.0" encoding="UTF-8"?><svg id="OBJECTS" xmlns="http://www.w3.org/2000/svg" viewBox="0 0 512 512"><path d="M118.51,52.64s-72.74,122-35.27,380.61c0,0,158.7-5.88,312.99,55.83,0,0,3.68-257.88,71.26-362.2,0,0-171.17-122.77-348.98-74.24ZM89.3,276.63c3.04,0,5.51,5.53,5.51,12.36s-2.47,12.37-5.51,12.37-5.51-5.53-5.51-12.37,2.47-12.36,5.51-12.36ZM92.06,402.64c-3.04,0-5.51-5.53-5.51-12.36s2.47-12.36,5.51-12.36,5.51,5.53,5.51,12.36-2.47,12.36-5.51,12.36ZM94.81,214.1c-3.04,0-5.51-5.53-5.51-12.36s2.47-12.36,5.51-12.36,5.51,5.55,5.51,12.36-2.47,12.36-5.51,12.36ZM112.44,118c-3.04,0-5.51-5.53-5.51-12.37s2.47-12.36,5.51-12.36,5.51,5.53,5.51,12.36-2.47,12.37-5.51,12.37Z" fill="#ffbedb" stroke-width="0"/><polygon points="246.57 114.25 184.28 96.95 171.06 185.68 229.31 200.64 246.57 114.25" fill="none" stroke-width="0"/><polygon points="228.87 202.81 170.73 187.88 157.73 275.18 212.21 286.24 228.87 202.81" fill="none" stroke-width="0"/><polygon points="157.4 277.36 147.73 342.27 198.81 353.29 211.77 288.4 157.4 277.36" fill="none" stroke-width="0"/><polygon points="213.93 288.84 200.96 353.75 259.5 366.37 275.3 301.3 213.93 288.84" fill="none" stroke-width="0"/><polygon points="261.66 366.84 326.06 380.73 342.05 314.85 277.46 301.74 261.66 366.84" fill="none" stroke-width="0"/><polygon points="295.6 217.66 316.02 133.54 248.7 114.84 231.44 201.19 295.6 217.66" fill="none" stroke-width="0"/><polygon points="277.98 299.59 342.57 312.71 361.02 236.74 297.22 220.36 277.98 299.59" fill="none" stroke-width="0"/><polygon points="214.36 286.68 275.82 299.15 295.08 219.81 231.01 203.35 214.36 286.68" fill="none" stroke-width="0"/><polygon points="361.54 234.6 381.65 151.77 318.15 134.13 297.74 218.21 361.54 234.6" fill="none" stroke-width="0"/><path d="M408.91,328.43c.1-.73.2-1.46.3-2.19l-64.47-13.09,18.42-75.86,58.86,15.12c.15-.72.31-1.44.46-2.16l-58.81-15.1,20.1-82.78,62.32,17.31c.27-.69.54-1.38.82-2.06l-62.62-17.39,15.02-61.83c-.67-.32-1.36-.63-2.04-.95l-15.1,62.19-63.5-17.64,16.74-68.94c-.7-.23-1.4-.45-2.11-.68l-16.76,69.03-67.41-18.73,13.38-66.98c-.73-.11-1.46-.21-2.18-.31l-13.33,66.7-62.4-17.33,7.93-53.23c-.74.03-1.49.07-2.24.11l-7.83,52.53-73.87-20.52c-.28.67-.56,1.35-.84,2.05l74.39,20.66-13.23,88.78-85.5-21.96c-.13.72-.26,1.44-.39,2.18l85.57,21.97-13.02,87.41-82.37-16.72c-.03.74-.06,1.49-.09,2.23l82.13,16.68-9.67,64.89-72.35-15.6c.03.76.06,1.51.09,2.27l71.94,15.51-13.42,90.11c.73.04,1.47.08,2.21.12l13.37-89.76,50.97,10.99-16.5,82.58c.73.08,1.47.16,2.2.24l16.45-82.35,58.45,12.6-18.83,77.56c.73.12,1.45.24,2.18.37l18.8-77.46,64.4,13.89-18.77,77.31c.71.18,1.42.36,2.14.54l18.79-77.39,73.5,15.85c.06-.74.12-1.47.19-2.21l-73.17-15.78,16-65.9,64.7,13.14ZM342.57,312.71l-64.59-13.11,19.24-79.24,63.8,16.38-18.45,75.97ZM275.82,299.15l-61.46-12.48,16.65-83.32,64.07,16.45-19.26,79.35ZM381.65,151.77l-20.11,82.82-63.8-16.38,20.41-84.08,63.5,17.64ZM316.02,133.54l-20.42,84.12-64.16-16.47,17.25-86.35,67.33,18.7ZM184.28,96.95l62.29,17.3-17.26,86.39-58.25-14.96,13.22-88.74ZM170.73,187.88l58.14,14.93-16.67,83.43-54.48-11.06,13.01-87.3ZM147.73,342.27l9.67-64.91,54.37,11.04-12.96,64.89-51.08-11.01ZM200.96,353.75l12.97-64.91,61.37,12.46-15.8,65.08-58.54-12.62ZM326.06,380.73l-64.4-13.89,15.8-65.1,64.59,13.11-16,65.87Z" fill="#f4e4ce" opacity=".4" stroke-width="0"/><path d="M146.01,46.47c-9.15,1.61-18.32,3.66-27.51,6.17,0,0-72.74,122-35.27,380.61,0,0,9.94-.37,27.27.04-6.08-61.01-19.68-255.08,35.51-386.82ZM112.44,93.26c3.04,0,5.51,5.53,5.51,12.36s-2.47,12.37-5.51,12.37-5.51-5.53-5.51-12.37,2.47-12.36,5.51-12.36ZM89.3,276.63c3.04,0,5.51,5.53,5.51,12.36s-2.47,12.37-5.51,12.37-5.51-5.53-5.51-12.37,2.47-12.36,5.51-12.36ZM92.06,402.64c-3.04,0-5.51-5.53-5.51-12.36s2.47-12.36,5.51-12.36,5.51,5.53,5.51,12.36-2.47,12.36-5.51,12.36ZM94.81,214.09c-3.04,0-5.51-5.53-5.51-12.36s2.47-12.36,5.51-12.36,5.51,5.55,5.51,12.36-2.47,12.36-5.51,12.36Z" fill="#ff80b5" stroke-width="0"/><path d="M146.35,241.57c1.35.18,2.46.35,3.33.49.88.14,1.57.25,2.08.32l1.39.19,1.6.22c.65.09,1.52.2,2.61.32,1.09.13,2.52.26,4.3.41-.86.07-1.53.18-2.03.33-.49.14-.87.32-1.13.52-.31.2-.51.43-.59.7,0,.38.08.98.25,1.81.14.73.42,1.73.83,3.02.41,1.29,1.06,3.03,1.94,5.22,2.25-1.96,3.98-3.51,5.17-4.67,1.2-1.16,2.1-2.05,2.71-2.68.62-.72.99-1.21,1.12-1.47-.02-.24-.05-.48-.11-.72-.09-.39-.36-1.02-.81-1.88,1.24.26,2.32.47,3.24.62.93.15,1.71.29,2.35.43.73.15,1.33.25,1.8.32.51.07,1.25.15,2.23.24.8.06,1.88.15,3.26.27,1.38.12,3.12.23,5.23.33-1.83.6-3.4,1.2-4.71,1.8-1.31.6-2.4,1.15-3.27,1.64-1.02.57-1.88,1.11-2.56,1.63-.7.61-1.56,1.37-2.58,2.27-.91.82-2.03,1.83-3.35,3.04-1.32,1.21-2.94,2.73-4.84,4.54.92,2.25,1.82,4.19,2.71,5.83.88,1.63,1.65,2.99,2.31,4.07.77,1.29,1.5,2.33,2.19,3.13.69.8,1.46,1.62,2.29,2.44.7.71,1.53,1.47,2.48,2.29.95.82,1.99,1.56,3.13,2.23-1.22-.07-2.4-.17-3.53-.31-1.14-.13-2.16-.21-3.05-.24-1.03-.05-2.01-.11-2.95-.19-.94-.03-1.9-.09-2.88-.18-.84-.07-1.77-.15-2.8-.24-1.03-.09-2.07-.21-3.14-.36.48-.36.85-.71,1.13-1.05.28-.34.52-.64.69-.9.23-.3.39-.59.47-.86,0-.38-.14-1.01-.45-1.9-.27-.79-.71-1.9-1.32-3.33-.61-1.43-1.52-3.38-2.74-5.86-1.22.97-2.2,1.82-2.94,2.57-.74.75-1.31,1.38-1.71,1.89-.46.6-.79,1.1-.98,1.49-.15.4-.22.87-.19,1.39.03.43.11.95.21,1.55.11.6.35,1.24.73,1.9-2.34-.18-4.29-.37-5.87-.59l-2.36-.33c-.74-.1-1.62-.25-2.63-.43-.87-.17-1.97-.35-3.29-.56-1.32-.2-2.85-.47-4.6-.81.53-.12,1.1-.28,1.69-.48.6-.2,1.12-.39,1.56-.57.55-.21,1.08-.44,1.58-.7.57-.35,1.49-1.02,2.76-2.03,1.06-.85,2.52-2.05,4.39-3.61,1.87-1.56,4.3-3.67,7.31-6.33-1.15-2.99-2.09-5.37-2.81-7.15-.73-1.78-1.28-3.16-1.66-4.16-.46-1.15-.8-1.93-1.02-2.34-.23-.41-.54-.88-.94-1.4-.64-.84-1.72-1.89-3.25-3.14Z" fill="#222a5c" stroke-width="0"/><path d="M194.89,248.14l8.11.76c-.53,1.06-.95,2.03-1.29,2.91-.33.87-.59,1.63-.77,2.27-.25.77-.41,1.46-.49,2.06l-.28,2.01c-.09.65-.21,1.36-.37,2.15-.15.78-.32,1.63-.49,2.55,1.67.18,3.1.33,4.29.45,1.19.12,2.17.23,2.96.34l2.23.31c.56.08,1.12.13,1.68.16.52.02,1.07.04,1.66.05.59.01,1.17-.04,1.75-.15l-.53,5.95c-1.01-.23-1.92-.4-2.73-.51-.81-.11-1.52-.23-2.11-.36-.7-.1-1.32-.2-1.87-.33l-2.09-.29c-.7-.09-1.55-.19-2.55-.28-1.01-.09-2.18-.2-3.53-.34-.2.77-.36,1.51-.48,2.2-.12.69-.19,1.32-.22,1.88-.09.65-.12,1.26-.11,1.83-.04.61-.04,1.32,0,2.12,0,.71.01,1.56.04,2.55.03.99.07,2.18.12,3.55l-7.58-1.04c.36-1.22.66-2.33.91-3.31.25-.98.47-1.79.65-2.43.2-.77.37-1.46.49-2.06.15-.73.3-1.47.45-2.2.13-.64.25-1.32.35-2.04.1-.72.17-1.4.21-2.06-1.15-.2-2.18-.36-3.09-.46-.91-.1-1.69-.17-2.34-.22-.75-.06-1.4-.1-1.97-.13-.57.02-1.21,0-1.9-.05-.62.01-1.34-.03-2.18-.12-.84-.09-1.75-.16-2.74-.2l.29-5.77c1.24.26,2.33.49,3.27.66.94.18,1.74.31,2.39.4l1.87.26,2.09.29,5.49.75c.16-1.21.3-2.26.4-3.17.1-.91.17-1.66.2-2.27.05-.7.08-1.26.09-1.69.02-.47,0-1.04-.05-1.7-.02-.57-.05-1.29-.09-2.17-.05-.88-.1-1.91-.18-3.11Z" fill="#222a5c" stroke-width="0"/><path d="M214.13,253.97c.91.27,1.72.48,2.43.65.71.17,1.34.31,1.89.43.59.13,1.17.23,1.73.31.51.07,1.16.14,1.96.2.65.04,1.51.1,2.56.17,1.05.08,2.31.14,3.76.2-.12.17-.38.71-.79,1.63-.41.91-.85,2.03-1.31,3.36-.47,1.33-.92,2.8-1.35,4.42-.43,1.62-.75,3.23-.94,4.83-.19,1.6-.2,3.14-.03,4.6.18,1.47.62,2.69,1.34,3.69,1.51,2.05,2.93,3.35,4.24,3.91,1.32.56,2.52.68,3.6.35,1.08-.32,2.01-.9,2.79-1.74.78-.84,1.36-1.63,1.74-2.38.99-2.04,1.71-4.23,2.17-6.57.37-2.03.53-4.32.45-6.88-.08-2.56-.72-5.25-1.94-8.06,1.19.26,2.23.47,3.1.64.87.17,1.63.32,2.28.45.73.15,1.38.28,1.93.4.5.12,1.1.2,1.81.25.6.08,1.34.15,2.21.2.87.05,1.84.1,2.92.15-.43,4.57-.83,8.63-1.18,12.2-.35,3.57-.67,6.71-.97,9.43-.3,2.72-.59,5.07-.86,7.03-.27,1.97-.5,3.63-.68,4.97-.49,3.19-.91,5.28-1.29,6.27-.57,1.38-1.42,2.73-2.57,4.04-1.15,1.31-2.52,2.43-4.11,3.37-1.59.94-3.37,1.59-5.33,1.96-1.97.37-4.04.31-6.24-.18-2.15-.48-3.84-1.01-5.06-1.58-1.22-.57-2.15-1.16-2.8-1.77-.65-.61-1.08-1.21-1.31-1.81-.23-.6-.37-1.2-.43-1.8s-.12-1.16-.19-1.69c-.07-.53-.29-1.01-.65-1.44-.46-.49-.93-.98-1.43-1.47-.46-.44-.95-.89-1.48-1.34-.53-.45-1.05-.83-1.58-1.14l14.92,1.19c-.49.5-.87.97-1.11,1.41-.25.44-.42.82-.51,1.13-.1.41-.13.76-.08,1.05.11.58.36,1.24.76,1.98.39.74.96,1.36,1.69,1.86.73.5,1.65.76,2.76.77,1.11.01,2.43-.4,3.96-1.23,1.28-.72,2.45-2,3.5-3.84.88-1.58,1.71-3.85,2.49-6.81.78-2.96,1.26-6.93,1.42-11.92-1.23,2.76-2.66,4.8-4.31,6.14s-3.24,2.25-4.77,2.75c-1.78.6-3.58.81-5.39.61-2.4-.42-4.42-1.02-6.06-1.79-1.64-.77-2.96-1.69-3.94-2.77-.98-1.08-1.7-2.3-2.15-3.66-.45-1.36-.71-2.85-.77-4.46-.06-1.61.02-3.22.23-4.82.22-1.6.43-3.09.65-4.48.22-1.39.4-2.65.55-3.78.16-1.13.17-2.07.03-2.79-.18-.73-.46-1.48-.83-2.24-.29-.65-.72-1.39-1.29-2.2-.57-.81-1.28-1.6-2.12-2.38Z" fill="#222a5c" stroke-width="0"/><path d="M256.1,276.93c4.09.51,7.38.92,9.89,1.22,2.51.29,4.44.51,5.79.65,1.58.17,2.72.3,3.42.4.6.08,1.56.17,2.87.25,1.12.11,2.65.25,4.58.42,1.94.17,4.47.38,7.6.62l-.65,6.29c-3.52-.53-6.42-.96-8.71-1.3-2.29-.34-4.1-.62-5.44-.85-1.57-.26-2.77-.45-3.61-.56-.83-.16-1.99-.3-3.48-.41-1.26-.08-2.96-.18-5.09-.31-2.13-.13-4.82-.22-8.07-.29.17-.59.29-1.1.35-1.54.06-.44.11-.82.16-1.15l.13-.98c-.02-.24,0-.5.04-.77l.23-1.67ZM291.07,274c-4.13-.57-7.43-1.01-9.91-1.32s-4.4-.57-5.74-.75l-3.41-.47c-.61-.04-1.57-.12-2.87-.25-1.12-.1-2.65-.25-4.61-.42-1.96-.17-4.47-.42-7.55-.75l.73-6.35c3.51.57,6.4,1.07,8.69,1.47,2.28.41,4.09.73,5.43.96,1.56.31,2.76.52,3.59.63.78.15,1.92.29,3.42.4,1.26.13,2.96.26,5.11.42,2.15.15,4.85.29,8.09.4-.3,1.19-.5,2.06-.57,2.61l-.13.97-.12.84c-.03.23-.06.49-.07.77-.02.28-.04.56-.08.84Z" fill="#222a5c" stroke-width="0"/><path d="M316.55,252.35c2.14.25,4.23,1.03,6.27,2.35,2.04,1.32,3.79,3.13,5.27,5.43s2.56,5.08,3.25,8.34c.68,3.26.77,6.98.24,11.15-.34,2.79-.89,5.28-1.66,7.49-.77,2.21-1.68,4.15-2.71,5.83-1.04,1.68-2.14,3.13-3.32,4.36-1.19,1.23-2.35,2.25-3.5,3.06-1.15.81-2.23,1.43-3.23,1.86-1,.43-1.84.69-2.51.79-.87.16-1.9.27-3.09.32-1.19.05-2.41.02-3.67-.08-1.26-.1-2.49-.34-3.69-.72-1.2-.38-2.23-.91-3.07-1.59-.85-.68-1.82-1.63-2.9-2.84-1.09-1.21-2.06-2.81-2.92-4.79-.86-1.98-1.5-4.42-1.9-7.31-.41-2.89-.33-6.35.22-10.38s1.52-7.58,2.91-10.65c1.39-3.07,3.08-5.6,5.08-7.59,2-1.99,4.27-3.42,6.82-4.27,2.55-.85,5.26-1.11,8.14-.76ZM303.21,276.87c-.42,2.73-.59,5.14-.49,7.23.09,2.09.29,3.87.61,5.33s.69,2.63,1.11,3.52c.42.88.75,1.51.98,1.87.22.46.69.81,1.41,1.04.72.24,1.5.41,2.34.5.84.09,1.66.09,2.48-.02.82-.1,1.46-.31,1.93-.62.26-.2.68-.73,1.25-1.6.57-.87,1.17-2.01,1.81-3.44s1.29-3.09,1.93-5.01c.64-1.92,1.18-4,1.64-6.26.49-2.53.81-4.88.97-7.06.16-2.17.21-4.09.15-5.75-.06-1.66-.2-3.05-.42-4.17-.23-1.11-.52-1.89-.89-2.32-.53-.64-1.2-1.13-2.03-1.48-.82-.35-1.67-.56-2.53-.63-.86-.07-1.69-.02-2.5.15-.8.17-1.44.46-1.92.87-.96.81-1.84,1.68-2.63,2.62-.79.93-1.49,2.09-2.1,3.46-.61,1.38-1.18,3.02-1.7,4.9-.52,1.89-.99,4.17-1.4,6.85Z" fill="#222a5c" stroke-width="0"/><path d="M133.13,331.26c1.35.18,2.46.35,3.33.49.88.14,1.57.25,2.08.32l1.39.19,1.6.22c.65.09,1.52.2,2.61.32,1.09.13,2.52.26,4.3.41-.86.07-1.53.18-2.03.33-.49.14-.87.32-1.13.52-.31.2-.51.43-.59.7,0,.38.08.98.25,1.81.14.73.42,1.73.83,3.02s1.06,3.03,1.94,5.22c2.25-1.96,3.98-3.51,5.17-4.67,1.2-1.16,2.1-2.05,2.71-2.68.62-.72.99-1.21,1.12-1.47-.02-.24-.05-.48-.11-.72-.09-.39-.36-1.02-.81-1.88,1.24.26,2.32.47,3.24.62.93.15,1.71.29,2.35.43.73.15,1.33.25,1.8.32.51.07,1.25.15,2.23.24.8.06,1.88.15,3.26.27,1.38.12,3.12.23,5.23.33-1.83.6-3.4,1.2-4.71,1.8-1.31.6-2.4,1.15-3.27,1.64-1.02.57-1.88,1.11-2.56,1.63-.7.61-1.56,1.37-2.58,2.27-.91.82-2.03,1.83-3.35,3.04-1.32,1.21-2.94,2.73-4.84,4.54.92,2.25,1.82,4.19,2.71,5.83.88,1.63,1.65,2.99,2.31,4.07.77,1.29,1.5,2.33,2.19,3.13.69.8,1.46,1.62,2.29,2.44.7.71,1.53,1.47,2.48,2.29.95.82,1.99,1.56,3.13,2.23-1.22-.07-2.4-.17-3.53-.31-1.14-.13-2.16-.21-3.05-.24-1.03-.05-2.01-.11-2.95-.19-.94-.03-1.9-.09-2.88-.18-.84-.07-1.77-.15-2.8-.24-1.03-.09-2.07-.21-3.14-.36.48-.36.85-.71,1.13-1.05.28-.34.52-.64.69-.9.23-.3.39-.59.47-.86,0-.38-.14-1.01-.45-1.9-.27-.79-.71-1.9-1.32-3.33-.61-1.43-1.52-3.38-2.74-5.86-1.22.97-2.2,1.82-2.94,2.57-.74.75-1.31,1.38-1.71,1.89-.46.6-.79,1.1-.98,1.49-.15.4-.22.87-.19,1.39.03.43.11.95.21,1.55s.35,1.24.73,1.9c-2.34-.18-4.29-.37-5.87-.59l-2.36-.33c-.74-.1-1.62-.25-2.63-.43-.87-.17-1.97-.35-3.29-.56-1.32-.2-2.85-.47-4.6-.81.53-.12,1.1-.28,1.69-.48.6-.2,1.12-.39,1.56-.57.55-.21,1.08-.44,1.58-.7.57-.35,1.49-1.02,2.76-2.03,1.06-.85,2.52-2.05,4.39-3.61,1.87-1.56,4.3-3.67,7.31-6.33-1.15-2.99-2.09-5.37-2.81-7.15-.73-1.78-1.28-3.16-1.66-4.16-.46-1.15-.8-1.93-1.02-2.34-.23-.41-.54-.88-.94-1.4-.64-.84-1.72-1.89-3.25-3.14Z" fill="#222a5c" stroke-width="0"/><path d="M181.66,337.84l8.11.76c-.53,1.06-.95,2.03-1.29,2.91-.33.87-.59,1.63-.77,2.27-.25.77-.41,1.46-.49,2.06l-.28,2.01c-.09.65-.21,1.36-.37,2.15-.15.78-.32,1.63-.49,2.55,1.67.18,3.1.33,4.29.45,1.19.12,2.17.23,2.96.34l2.23.31c.56.08,1.12.13,1.68.16.52.02,1.07.04,1.66.05.59.01,1.17-.04,1.75-.15l-.53,5.95c-1.01-.23-1.92-.4-2.73-.51-.81-.11-1.52-.23-2.11-.36-.7-.1-1.32-.2-1.87-.33l-2.09-.29c-.7-.09-1.55-.19-2.55-.28-1.01-.09-2.18-.2-3.53-.34-.2.77-.36,1.51-.48,2.2-.12.69-.19,1.32-.22,1.88-.09.65-.12,1.26-.11,1.83-.04.61-.04,1.32,0,2.12,0,.71.01,1.56.04,2.55.03.99.07,2.18.12,3.55l-7.58-1.04c.36-1.22.66-2.33.91-3.31.25-.98.47-1.79.65-2.43.2-.77.37-1.46.49-2.06.15-.73.3-1.47.45-2.2.13-.64.25-1.32.35-2.04.1-.72.17-1.4.21-2.06-1.15-.2-2.18-.36-3.09-.46-.91-.1-1.69-.17-2.34-.22-.75-.06-1.4-.1-1.97-.13-.57.02-1.21,0-1.9-.05-.62.01-1.34-.03-2.18-.12-.84-.09-1.75-.16-2.74-.2l.29-5.77c1.24.26,2.33.49,3.27.66.94.18,1.74.31,2.39.4l1.87.26,2.09.29,5.49.75c.16-1.21.3-2.26.4-3.17.1-.91.17-1.66.2-2.27.05-.7.08-1.26.09-1.69.02-.47,0-1.04-.05-1.7-.02-.57-.05-1.29-.09-2.17-.05-.88-.1-1.91-.18-3.11Z" fill="#222a5c" stroke-width="0"/><path d="M200.91,343.66c.91.27,1.72.48,2.43.65.71.17,1.34.31,1.89.43.59.13,1.17.23,1.73.31.51.07,1.16.14,1.96.2.65.04,1.51.1,2.56.17,1.05.08,2.31.14,3.76.2-.12.17-.38.71-.79,1.63-.41.91-.85,2.03-1.31,3.36-.47,1.33-.92,2.8-1.35,4.42-.43,1.62-.75,3.23-.94,4.83-.19,1.6-.2,3.14-.03,4.6.18,1.47.62,2.69,1.34,3.69,1.51,2.05,2.93,3.35,4.24,3.91,1.32.56,2.52.68,3.6.35,1.08-.32,2.01-.9,2.79-1.74.78-.84,1.36-1.63,1.74-2.38.99-2.04,1.71-4.23,2.17-6.57.37-2.03.53-4.32.45-6.88-.08-2.56-.72-5.25-1.94-8.06,1.19.26,2.23.47,3.1.64.87.17,1.63.32,2.28.45.73.15,1.38.28,1.93.4.5.12,1.1.2,1.81.25.6.08,1.34.15,2.21.2.87.05,1.84.1,2.92.15-.43,4.57-.83,8.63-1.18,12.2-.35,3.57-.67,6.71-.97,9.43-.3,2.72-.59,5.07-.86,7.03-.27,1.97-.5,3.63-.68,4.97-.49,3.19-.91,5.28-1.29,6.27-.57,1.38-1.42,2.73-2.57,4.04-1.15,1.31-2.52,2.43-4.11,3.37-1.59.94-3.37,1.59-5.33,1.96-1.97.37-4.04.31-6.24-.18-2.15-.48-3.84-1.01-5.06-1.58-1.22-.57-2.15-1.16-2.8-1.77-.65-.61-1.08-1.21-1.31-1.81-.23-.6-.37-1.2-.43-1.8s-.12-1.16-.19-1.69c-.07-.53-.29-1.01-.65-1.44-.46-.49-.93-.98-1.43-1.47-.46-.44-.95-.89-1.48-1.34-.53-.45-1.05-.83-1.58-1.14l14.92,1.19c-.49.5-.87.97-1.11,1.41-.25.44-.42.82-.51,1.13-.1.41-.13.76-.08,1.05.11.58.36,1.24.76,1.98.39.74.96,1.36,1.69,1.86.73.5,1.65.76,2.76.77,1.11.01,2.43-.4,3.96-1.23,1.28-.72,2.45-2,3.5-3.84.88-1.58,1.71-3.85,2.49-6.81.78-2.96,1.26-6.93,1.42-11.92-1.23,2.76-2.66,4.8-4.31,6.14-1.65,1.33-3.24,2.25-4.77,2.75-1.78.6-3.58.81-5.39.61-2.4-.42-4.42-1.02-6.06-1.79-1.64-.77-2.96-1.69-3.94-2.77-.98-1.08-1.7-2.3-2.15-3.66-.45-1.36-.71-2.85-.77-4.46-.06-1.61.02-3.22.23-4.82.22-1.6.43-3.09.65-4.48.22-1.39.4-2.65.55-3.78.16-1.13.17-2.07.03-2.79-.18-.73-.46-1.48-.83-2.24-.29-.65-.72-1.39-1.29-2.2-.57-.81-1.28-1.6-2.12-2.38Z" fill="#222a5c" stroke-width="0"/><path d="M270.72,357.27c-.71-.05-1.35-.1-1.97-.15l5.15-9.09-6.98-4.04-5.79,12.3c-.7-.12-1.54-.27-2.54-.47-1.34-.23-3.15-.55-5.43-.96s-5.18-.9-8.69-1.47l-.73,6.35c3.07.33,5.59.58,7.55.75,1.96.17,3.5.31,4.61.42,1.3.13,2.26.22,2.87.25h.05s-3.29,7-3.29,7c-.84-.09-1.74-.2-2.77-.32-2.51-.3-5.81-.7-9.89-1.22l-.23,1.67c-.04.28-.05.54-.04.77l-.13.98c-.04.32-.1.71-.16,1.15-.06.44-.18.96-.35,1.54,3.25.07,5.94.17,8.07.29,1.18.07,2.21.13,3.13.19l-6.82,14.49,4.04,1.84,8.89-15.7c.77.11,1.75.27,2.94.47,1.34.23,3.15.52,5.44.85,2.29.34,5.19.77,8.71,1.3l.65-6.29c-3.13-.24-5.67-.45-7.6-.62-1.94-.17-3.46-.31-4.58-.42-1.24-.08-2.16-.16-2.76-.24l3.84-6.78c.63.08,1.29.17,2.01.26,2.48.32,5.79.76,9.91,1.32.04-.28.06-.56.08-.84.01-.28.04-.54.07-.77l.12-.84.13-.97c.08-.56.27-1.43.57-2.61-3.24-.11-5.94-.25-8.09-.4Z" fill="#222a5c" stroke-width="0"/><path d="M303.33,342.05c2.14.25,4.23,1.03,6.27,2.35,2.04,1.32,3.79,3.13,5.27,5.43,1.48,2.3,2.56,5.08,3.25,8.34.68,3.26.77,6.98.24,11.15-.34,2.79-.89,5.28-1.66,7.49-.77,2.21-1.68,4.15-2.71,5.83-1.04,1.68-2.14,3.13-3.32,4.36-1.19,1.23-2.35,2.25-3.5,3.06-1.15.81-2.23,1.43-3.23,1.86-1,.43-1.84.69-2.51.79-.87.16-1.9.27-3.09.32-1.19.05-2.41.02-3.67-.08-1.26-.1-2.49-.34-3.69-.72-1.2-.38-2.23-.91-3.07-1.59-.85-.68-1.82-1.63-2.9-2.84-1.09-1.21-2.06-2.81-2.92-4.79-.86-1.98-1.5-4.42-1.9-7.31s-.33-6.35.22-10.38c.55-4.03,1.52-7.58,2.91-10.65,1.39-3.07,3.08-5.6,5.08-7.59,2-1.99,4.27-3.42,6.82-4.27,2.55-.85,5.26-1.11,8.14-.76ZM289.98,366.56c-.42,2.73-.59,5.14-.49,7.23.09,2.09.29,3.87.61,5.33.32,1.46.69,2.63,1.11,3.52.42.88.75,1.51.98,1.87.22.46.69.81,1.41,1.04.72.24,1.5.41,2.34.5.84.09,1.66.09,2.48-.02.82-.1,1.46-.31,1.93-.62.26-.2.68-.73,1.25-1.6.57-.87,1.17-2.01,1.81-3.44.64-1.42,1.29-3.09,1.93-5.01.64-1.92,1.18-4,1.64-6.26.49-2.53.81-4.88.97-7.06.16-2.17.21-4.09.15-5.75-.06-1.66-.2-3.05-.42-4.17-.23-1.11-.52-1.89-.89-2.32-.53-.64-1.2-1.13-2.03-1.48-.82-.35-1.67-.56-2.53-.63-.86-.07-1.69-.02-2.5.15-.8.17-1.44.46-1.92.87-.96.81-1.84,1.68-2.63,2.62-.79.93-1.49,2.09-2.1,3.46-.61,1.38-1.18,3.02-1.7,4.9-.52,1.89-.99,4.17-1.4,6.85Z" fill="#222a5c" stroke-width="0"/><path d="M241.99,420.16c-71.05,0-105.61-27.73-115.38-37.28-11.12-10.87-16.74-22.57-15.81-32.95,2.79-31.04,62.18-36.92,64.7-37.16l.61,6.58c-.56.05-56.43,5.58-58.73,31.17-.74,8.23,4.3,18.3,13.84,27.63,10.69,10.45,52.68,43.75,144.13,33.45,44.48-5.01,71.26-18.96,73.48-38.28,1.8-15.7-13.52-33.45-35.64-41.28-45.33-16.06-145.8-1.1-146.81-.95l-.99-6.54c4.19-.63,103.12-15.36,150.01,1.25,25.35,8.98,42.18,29.29,40,48.27-1.53,13.3-13.86,36.72-79.31,44.09-12.2,1.37-23.56,1.99-34.12,1.99Z" fill="#ff80b5" stroke-width="0"/><polygon points="307.23 249.05 305.22 242.75 237.21 264.5 187.21 219.56 182.79 224.48 229.91 266.83 151.3 291.98 153.31 298.28 235.61 271.95 278.85 310.81 283.27 305.89 242.91 269.62 307.23 249.05" fill="#ff80b5" stroke-width="0"/><path d="M386.88,133.1c2.67.22,5.02.36,7.05.4,2.03.05,3.75.07,5.18.07,1.65,0,3.08-.04,4.28-.13,1.25-.13,2.87-.31,4.88-.53,1.69-.22,3.88-.52,6.55-.9,2.67-.38,5.93-.88,9.76-1.5-.49.76-.9,1.55-1.24,2.37-.33.83-.61,1.57-.84,2.24-.22.8-.42,1.58-.6,2.34-.13.85-.29,1.89-.47,3.14-.18,1.07-.39,2.42-.63,4.04-.25,1.63-.54,3.55-.9,5.78-1.34-3.48-2.68-6.15-4.04-8.02-1.36-1.87-2.62-3.25-3.78-4.14-1.34-1.02-2.61-1.6-3.81-1.74-1.74,0-3.16.33-4.28,1-1.11.67-2.02,1.53-2.71,2.57-.69,1.05-1.22,2.18-1.57,3.41-.36,1.23-.6,2.41-.74,3.54-.13,1.14-.22,2.14-.27,3.01-.05.87-.09,1.46-.13,1.77,1.56-.09,2.87-.2,3.94-.33,1.07-.13,1.92-.27,2.54-.4.76-.18,1.36-.36,1.8-.53.67-.36,1.34-.78,2.01-1.27.58-.44,1.19-.98,1.84-1.6.65-.62,1.21-1.38,1.7-2.27-.27,1.6-.5,2.94-.7,4.01-.2,1.07-.37,1.92-.5,2.54-.18.76-.29,1.34-.34,1.74-.09.4-.2.96-.33,1.67-.13.62-.29,1.43-.47,2.41-.18.98-.38,2.21-.6,3.68-.53-.94-1.09-1.7-1.67-2.31s-1.11-1.08-1.6-1.44c-.58-.4-1.14-.71-1.67-.94-.58-.18-1.2-.36-1.87-.53-.58-.13-1.26-.28-2.04-.43-.78-.15-1.62-.3-2.51-.43.09,2.41.22,4.47.4,6.18.18,1.72.33,3.15.47,4.31.18,1.34.36,2.45.54,3.34.22.89.58,1.85,1.07,2.87.4.89.97,1.9,1.7,3.04.74,1.14,1.68,2.35,2.84,3.64-.89-.22-1.83-.38-2.81-.47-.98-.09-1.85-.16-2.61-.2-.94-.04-1.83-.04-2.67,0-.89.05-1.87.13-2.94.27-.89.09-1.92.22-3.08.4-1.16.18-2.38.38-3.68.6.76-.76,1.38-1.51,1.87-2.27.49-.76.85-1.43,1.07-2.01.27-.67.44-1.31.53-1.94.04-.53.07-1.7.07-3.51s-.02-3.92-.07-6.35c-.05-2.43-.11-5-.2-7.72-.09-2.72-.18-5.27-.27-7.65-.09-2.38-.19-4.42-.3-6.12-.11-1.69-.23-2.72-.37-3.07-.18-.44-.38-.96-.6-1.54-.36-.94-1.09-2.29-2.21-4.08Z" fill="#ff80b5" stroke-width="0"/><path d="M388.97,192.77c-7.13,0-14.52-1.78-19.1-5.82-3.87-3.41-5.42-8.17-4.5-13.78,1.69-10.15,9.2-19.76,18.26-23.39l.82,2.05c-8.38,3.35-15.34,12.28-16.91,21.7-.8,4.88.47,8.84,3.79,11.76,6.35,5.6,19.33,6.39,27.73,3.9,21.75-6.31,36.34-25.23,35.5-46.01-.2-8.05-4.68-17.71-14.03-19.94-9.13-2.28-16.42,3.12-21.76,8.08l-1.5-1.61c5.3-4.92,13.53-11.16,23.78-8.6,10.48,2.49,15.49,13.16,15.71,22,.88,21.78-14.37,41.6-37.09,48.2-3.18.94-6.91,1.45-10.71,1.45Z" fill="#ff80b5" stroke-width="0"/><path d="M263.98,197.92c-1.89,0-3.7-.28-5.45-.84-9.45-3.05-13.08-13.2-13.23-13.63l2.08-.72c.03.09,3.44,9.57,11.84,12.26,5.99,1.93,13.13.03,21.2-5.64,4.93-3.46,9.87-7.51,14.64-11.42,12.63-10.35,24.55-20.14,33.76-16.71,6.16,2.29,10.36,10.28,12.83,24.44l-2.17.38c-2.32-13.32-6.06-20.76-11.43-22.75-8.01-2.97-19.46,6.41-31.59,16.35-4.81,3.94-9.78,8.02-14.78,11.52-6.42,4.51-12.35,6.77-17.71,6.77Z" fill="#222a5c" stroke-width="0"/><path d="M339.89,197.99c-7.31,0-15.57-6.54-15.99-6.88l1.38-1.72c.12.09,11.64,9.23,18.25,5.52,4.41-2.48,5.87-10.58,4.21-23.44l2.19-.28c1.81,14.02.02,22.65-5.32,25.65-1.46.82-3.06,1.15-4.72,1.15Z" fill="#222a5c" stroke-width="0"/><path d="M246.35,117.99c0,15.79-9.37,28.58-20.94,28.58s-20.94-12.8-20.94-28.58,9.37-28.58,20.94-28.58,20.94,12.8,20.94,28.58Z" fill="#f4e4ce" stroke-width="0"/><path d="M238.27,136.43c0,4.46-4.19,8.08-9.37,8.08s-9.37-3.62-9.37-8.08,4.19-8.08,9.37-8.08,9.37,3.62,9.37,8.08Z" fill="#222a5c" stroke-width="0"/><path d="M311.37,119.07c0,28.86-13.57,52.26-30.31,52.26s-30.31-23.4-30.31-52.26,13.57-52.26,30.31-52.26,30.31,23.4,30.31,52.26Z" fill="#f4e4ce" stroke-width="0"/><path d="M276.47,148.55c0,4.46-4.19,8.08-9.37,8.08s-9.37-3.62-9.37-8.08,4.19-8.08,9.37-8.08,9.37,3.62,9.37,8.08Z" fill="#222a5c" stroke-width="0"/><path d="M239.63,93.33c-18.03,0-43.45-23.82-48.93-29.18l7.7-7.89c15.35,14.97,36.32,29.04,43.45,25.65,2.98-1.42,4.26-7.97,3.41-17.53l10.98-.97c.5,5.67,2.03,22.91-9.67,28.46-2.13,1.01-4.46,1.46-6.94,1.46Z" fill="#222a5c" stroke-width="0"/><path d="M303.76,74.33c-5.31,0-10.34-1-15.07-3.01-24.94-10.59-31-45.11-31.25-46.57l10.87-1.83c.05.3,5.34,30.08,24.72,38.27,11.63,4.92,26.58,1.21,44.42-11.04l6.24,9.09c-14.64,10.05-28.01,15.09-39.93,15.09Z" fill="#222a5c" stroke-width="0"/></svg>